<?xml version="1.0"?>
<svg xmlns="http://www.w3.org/2000/svg" height="512px" viewBox="0 -48 512 512" width="512px" class=""><g><path d="m152 152.5h16v15h-16zm0 0" data-original="#000000" class="active-path" data-old_color="#000000" fill="#FFFFFF"/><path d="m184 152.5h16v15h-16zm0 0" data-original="#000000" class="active-path" data-old_color="#000000" fill="#FFFFFF"/><path d="m216 152.5h16v15h-16zm0 0" data-original="#000000" class="active-path" data-old_color="#000000" fill="#FFFFFF"/><path d="m344 152.5h16v15h-16zm0 0" data-original="#000000" class="active-path" data-old_color="#000000" fill="#FFFFFF"/><path d="m376 152.5h16v15h-16zm0 0" data-original="#000000" class="active-path" data-old_color="#000000" fill="#FFFFFF"/><path d="m218.695312 98.195312-10.695312 10.699219-16-16-16 16-10.695312-10.699219-10.609376 10.609376 21.304688 21.300781 16-16 16 16 21.304688-21.300781zm0 0" data-original="#000000" class="active-path" data-old_color="#000000" fill="#FFFFFF"/><path d="m346.695312 98.195312-10.695312 10.699219-16-16-16 16-10.695312-10.699219-10.609376 10.609376 21.304688 21.300781 16-16 16 16 21.304688-21.300781zm0 0" data-original="#000000" class="active-path" data-old_color="#000000" fill="#FFFFFF"/><path d="m483.105469 192.5-163.105469-163.355469-64 63.875-64-63.8125-163.105469 163.292969h-28.894531v15h512v-15zm-163.105469-142.144531 141.894531 142.144531h-106.789062l-88.5-88.625zm-128 .25 141.894531 141.894531h-283.789062zm0 0" data-original="#000000" class="active-path" data-old_color="#000000" fill="#FFFFFF"/><path d="m407 343.5h59.105469l-32-32h32l-66.105469-66.105469-66.105469 66.105469h32l-32 32h58.105469v25h-129v-25h59.105469l-32-32h32l-66.105469-66.105469-66.105469 66.105469h32l-32 32h58.105469v25h-129v-25h59.105469l-32-32h32l-66.105469-66.105469-66.105469 66.105469h32l-32 32h58.105469v25h-104v15h512v-15h-105zm-7-76.894531 29.894531 29.894531h-59.789062zm-12.894531 44.894531h25.789062l17 17h-59.789062zm-131.105469-44.894531 29.894531 29.894531h-59.789062zm-12.894531 44.894531h25.789062l17 17h-59.789062zm-131.105469-44.894531 29.894531 29.894531h-59.789062zm-12.894531 44.894531h25.789062l17 17h-59.789062zm0 0" data-original="#000000" class="active-path" data-old_color="#000000" fill="#FFFFFF"/><path d="m0 400.5h512v15h-512zm0 0" data-original="#000000" class="active-path" data-old_color="#000000" fill="#FFFFFF"/><path d="m232 224.5h280v15h-280zm0 0" data-original="#000000" class="active-path" data-old_color="#000000" fill="#FFFFFF"/><path d="m88 224.5h128v15h-128zm0 0" data-original="#000000" class="active-path" data-old_color="#000000" fill="#FFFFFF"/><path d="m0 272.5h56v15h-56zm0 0" data-original="#000000" class="active-path" data-old_color="#000000" fill="#FFFFFF"/><path d="m296 256.5h64v15h-64zm0 0" data-original="#000000" class="active-path" data-old_color="#000000" fill="#FFFFFF"/><path d="m472 288.5h40v15h-40zm0 0" data-original="#000000" class="active-path" data-old_color="#000000" fill="#FFFFFF"/><path d="m0 320.5h32v15h-32zm0 0" data-original="#000000" class="active-path" data-old_color="#000000" fill="#FFFFFF"/><path d="m400 39c4.6875 0 8.5 3.8125 8.5 8.5h15c0-9.097656 7.402344-16.5 16.5-16.5s16.5 7.402344 16.5 16.5h15c0-17.367188-14.132812-31.5-31.5-31.5-10.472656 0-19.765625 5.144531-25.496094 13.03125-3.996094-3.144531-9.03125-5.03125-14.503906-5.03125-12.957031 0-23.5 10.542969-23.5 23.5h15c0-4.6875 3.8125-8.5 8.5-8.5zm0 0" data-original="#000000" class="active-path" data-old_color="#000000" fill="#FFFFFF"/><path d="m72 15c9.097656 0 16.5 7.402344 16.5 16.5h15c0-4.6875 3.8125-8.5 8.5-8.5s8.5 3.8125 8.5 8.5h15c0-12.957031-10.542969-23.5-23.5-23.5-5.472656 0-10.507812 1.882812-14.503906 5.03125-5.730469-7.886719-15.023438-13.03125-25.496094-13.03125-17.367188 0-31.5 14.132812-31.5 31.5h15c0-9.097656 7.402344-16.5 16.5-16.5zm0 0" data-original="#000000" class="active-path" data-old_color="#000000" fill="#FFFFFF"/></g> </svg>
