<?xml version="1.0"?>
<svg xmlns="http://www.w3.org/2000/svg" viewBox="0 0 64 64" width="512px" height="512px"><g><g id="Warehouse"><rect x="27" y="50" width="10" height="10" data-original="#000000" class="active-path" data-old_color="#ffffff" fill="#ffffff"/><path d="M57,60V22H7V60H9V30a1,1,0,0,1,1-1H54a1,1,0,0,1,1,1V60Z" data-original="#000000" class="active-path" data-old_color="#ffffff" fill="#ffffff"/><rect x="21" y="38" width="10" height="10" data-original="#000000" class="active-path" data-old_color="#ffffff" fill="#ffffff"/><rect x="33" y="38" width="10" height="10" data-original="#000000" class="active-path" data-old_color="#ffffff" fill="#ffffff"/><rect x="39" y="50" width="10" height="10" data-original="#000000" class="active-path" data-old_color="#ffffff" fill="#ffffff"/><rect x="15" y="50" width="10" height="10" data-original="#000000" class="active-path" data-old_color="#ffffff" fill="#ffffff"/><path d="M32,4.177,6.507,20H57.493ZM32,17a4,4,0,1,1,4-4A4,4,0,0,1,32,17Z" data-original="#000000" class="active-path" data-old_color="#ffffff" fill="#ffffff"/><circle cx="32" cy="13" r="2" data-original="#000000" class="active-path" data-old_color="#ffffff" fill="#ffffff"/></g></g> </svg>
