<?xml version="1.0" standalone="no"?>
<!DOCTYPE svg PUBLIC "-//W3C//DTD SVG 1.1//EN" "http://www.w3.org/Graphics/SVG/1.1/DTD/svg11.dtd" >
<svg xmlns="http://www.w3.org/2000/svg" xmlns:xlink="http://www.w3.org/1999/xlink" version="1.1">
<metadata></metadata>
<defs>
<font id="bwmodelica-blackcuploadedfile" horiz-adv-x="1464" >
<font-face units-per-em="2048" ascent="1597" descent="-451" />
<missing-glyph horiz-adv-x="415" />
<glyph unicode="&#xfb01;" horiz-adv-x="1406" d="M57 803v321h152v125q0 166 100.5 267.5t263.5 101.5q70 0 135.5 -11.5t110.5 -33.5l-24 -303q-37 12 -86 12q-47 0 -77 -25.5t-30 -68.5v-64h180v-321h-180v-803h-393v803h-152zM891 1442q0 98 63.5 161.5t159.5 63.5t158.5 -63.5t62.5 -161.5q0 -96 -62.5 -159.5 t-158.5 -63.5t-159.5 63.5t-63.5 159.5zM915 0v1124h394v-1124h-394z" />
<glyph unicode="&#xfb02;" horiz-adv-x="1404" d="M57 803v321h152v125q0 166 100.5 267.5t263.5 101.5q70 0 135.5 -11.5t110.5 -33.5l-24 -303q-37 12 -86 12q-47 0 -77 -25.5t-30 -68.5v-64h180v-321h-180v-803h-393v803h-152zM915 0v1597h394v-1597h-394z" />
<glyph horiz-adv-x="0" />
<glyph unicode="&#xd;" horiz-adv-x="354" />
<glyph unicode=" "  horiz-adv-x="415" />
<glyph unicode="&#x09;" horiz-adv-x="415" />
<glyph unicode="&#xa0;" horiz-adv-x="415" />
<glyph unicode="!" horiz-adv-x="604" d="M80 205q0 98 63.5 160.5t159.5 62.5t158.5 -62.5t62.5 -160.5t-62.5 -161.5t-158.5 -63.5t-159.5 63t-63.5 162zM98 1516h406l-35 -977h-334z" />
<glyph unicode="&#x22;" horiz-adv-x="901" d="M86 1597h305l-8 -442h-291zM512 1597h305l-8 -442h-289z" />
<glyph unicode="#" horiz-adv-x="1499" d="M55 340l62 254h217l51 237h-225l57 254h221l72 349h274l-71 -349h225l72 349h276l-72 -349h228l-56 -254h-225l-51 -237h233l-61 -254h-223l-72 -340h-276l71 340h-225l-70 -340h-276l72 340h-228zM610 594h224l51 237h-226z" />
<glyph unicode="$" horiz-adv-x="1261" d="M74 1038q0 176 97 301t265 172v185h395v-187q164 -43 299 -147l-174 -281q-82 61 -156.5 91t-154.5 30q-72 0 -111.5 -26.5t-39.5 -71.5q0 -47 49 -79t151 -64l60 -21q442 -145 442 -481q0 -168 -97.5 -288t-267.5 -167v-188h-395v188q-188 45 -338 176l148 273 q172 -139 356 -140q176 0 176 105q0 51 -50 87t-153 68l-61 19q-217 70 -328.5 170t-111.5 276z" />
<glyph unicode="%" horiz-adv-x="1798" d="M53 1178q0 162 109.5 260t286.5 98q176 0 283.5 -98.5t107.5 -259.5q0 -162 -107.5 -261.5t-283.5 -99.5q-177 0 -286.5 99.5t-109.5 261.5zM365 1178q0 -51 23.5 -82t62.5 -31q34 0 57.5 30.5t23.5 82.5q0 49 -22.5 79.5t-58.5 30.5q-39 0 -62.5 -29.5t-23.5 -80.5z M457 74l684 1462l192 -92l-684 -1464zM958 338q0 162 109 261t285 99t284.5 -99t108.5 -261t-108.5 -260t-284.5 -98t-285 98t-109 260zM1268 338q0 -49 23.5 -80t60.5 -31t59.5 31t22.5 80q0 51 -22.5 82t-59.5 31t-60.5 -31t-23.5 -82z" />
<glyph unicode="&#x26;" horiz-adv-x="1427" d="M66 426q0 131 62 232.5t175 162.5q-80 53 -123 133t-43 176q0 119 62.5 211.5t175 143.5t260.5 51q143 0 253.5 -52t171 -147.5t60.5 -218.5v-151h221v-308h-223v-241q0 -45 26.5 -74t67.5 -29q72 0 144 35v-313q-61 -29 -134 -43t-141 -14q-88 0 -160.5 31.5 t-119.5 90.5q-133 -123 -307 -122q-125 0 -222.5 56t-151.5 157.5t-54 232.5zM471 485q0 -78 34 -124t91 -46q61 0 95 46.5t34 152.5v145h-92q-74 0 -118 -48t-44 -126zM545 1087q0 -53 24.5 -86.5t65.5 -33.5h92v139q0 43 -24.5 68.5t-65.5 25.5q-43 0 -67.5 -30.5 t-24.5 -82.5z" />
<glyph unicode="'" horiz-adv-x="475" d="M86 1597h305l-8 -442h-291z" />
<glyph unicode="(" horiz-adv-x="718" d="M59 614q0 299 82 547t191 436h366q-236 -459 -235 -983q0 -524 235 -983h-366q-109 189 -191 436.5t-82 546.5z" />
<glyph unicode=")" horiz-adv-x="718" d="M23 -369q235 459 235 983t-235 983h364q109 -184 192 -434t83 -549t-83 -548.5t-192 -434.5h-364z" />
<glyph unicode="*" horiz-adv-x="735" d="M66 1192l71 223l117 -45l-4 146h233l-4 -146l117 45l72 -223l-127 -39l86 -121l-191 -137l-69 113l-70 -113l-188 137l84 121z" />
<glyph unicode="+" horiz-adv-x="1091" d="M61 563v322h289v346h391v-346h289v-322h-289v-346h-391v346h-289z" />
<glyph unicode="," horiz-adv-x="659" d="M6 -297l131 647h447l-183 -647h-395z" />
<glyph unicode="-" horiz-adv-x="980" d="M96 459v278h789v-278h-789z" />
<glyph unicode="." horiz-adv-x="602" d="M59 225q0 100 72 171t170 71q100 0 171 -70.5t71 -171.5q0 -102 -71 -173.5t-171 -71.5q-65 0 -120.5 32.5t-88.5 90t-33 122.5z" />
<glyph unicode="/" horiz-adv-x="944" d="M55 -205l441 1802h395l-440 -1802h-396z" />
<glyph unicode="0" horiz-adv-x="1241" d="M55 758q0 231 71 407t199 273.5t296 97.5t294.5 -97.5t197.5 -273.5t71 -407t-71 -407.5t-198 -273.5t-294 -97q-168 0 -296 97t-199 273t-71 408zM473 758q0 -199 41 -322t107 -123q65 0 105 122t40 323t-40 322.5t-105 121.5q-66 0 -107 -123t-41 -321z" />
<glyph unicode="1" horiz-adv-x="901" d="M-4 1133l469 383h309v-1516h-405v975l-176 -127z" />
<glyph unicode="2" horiz-adv-x="1155" d="M68 0v254l430 524q162 203 161 318q0 45 -22.5 75.5t-56.5 30.5q-43 0 -69 -43t-26 -110l-401 34q0 135 61.5 237.5t172 159t255.5 56.5t256 -52t171.5 -146.5t60.5 -217.5q0 -133 -68.5 -259t-226.5 -310l-193 -223l500 6v-334h-1005z" />
<glyph unicode="3" horiz-adv-x="1112" d="M35 113l149 282q43 -37 110.5 -59.5t135.5 -22.5q98 0 153.5 48.5t55.5 125.5q0 78 -49 122t-135 44q-80 0 -150 -47l-108 203l268 373h-354v334h839v-250l-258 -314q164 -26 259.5 -151t95.5 -312q0 -154 -69 -268.5t-198 -177.5t-305 -63q-125 0 -245.5 36.5 t-194.5 96.5z" />
<glyph unicode="4" horiz-adv-x="1257" d="M37 262v275l674 979h309v-918h168v-336h-168v-262h-406v262h-577zM401 586h226l6 332z" />
<glyph unicode="5" horiz-adv-x="1140" d="M23 106l120 293q55 -43 127 -64.5t148 -21.5q109 0 175 56.5t66 150.5q0 66 -35.5 106t-95.5 40q-51 0 -89 -18.5t-48 -47.5l-250 37l90 879h768v-334h-434l-26 -191q29 8 77 8q131 0 235.5 -56t164 -158.5t59.5 -235.5q0 -168 -78.5 -298t-220 -200.5t-321.5 -70.5 q-129 0 -242 32.5t-190 93.5z" />
<glyph unicode="6" horiz-adv-x="1146" d="M63 469q0 147 43.5 267t137.5 265l346 515h452l-415 -580h43q112 0 210.5 -58.5t159 -163t60.5 -239.5q0 -145 -64.5 -258t-182.5 -175t-271 -62q-154 0 -271.5 61t-182.5 172t-65 256zM467 471q0 -72 30.5 -115t82.5 -43q51 0 82.5 43t31.5 115t-31.5 116t-82.5 44 t-82 -44t-31 -116z" />
<glyph unicode="7" horiz-adv-x="1064" d="M45 1182v334h995l-428 -1516h-426l349 1182h-490z" />
<glyph unicode="8" horiz-adv-x="1177" d="M70 434q0 115 53 207t151 147q-80 53 -124 133t-44 181q0 129 60.5 227t170 152.5t253.5 54.5q143 0 251.5 -53t169 -151.5t60.5 -225.5q0 -100 -43 -181t-123 -134q96 -56 149.5 -146t53.5 -205q0 -135 -64.5 -240.5t-182.5 -162.5t-271 -57q-154 0 -271.5 56 t-183 159.5t-65.5 238.5zM475 465q0 -70 31 -111t82 -41q53 0 83.5 41t30.5 111q0 68 -31.5 109.5t-82.5 41.5t-82 -42t-31 -109zM504 1077q0 -57 23.5 -91t60.5 -34q39 0 62.5 34t23.5 91q0 55 -23.5 90t-62.5 35q-37 0 -60.5 -34.5t-23.5 -90.5z" />
<glyph unicode="9" horiz-adv-x="1146" d="M45 1040q0 145 64.5 258t182.5 175.5t271 62.5q154 0 271.5 -61.5t182 -172t64.5 -255.5q0 -147 -43 -267.5t-137 -265.5l-346 -514h-453l416 580h-43q-113 0 -211 58t-158.5 162.5t-60.5 239.5zM451 1044q0 -71 31.5 -115t82.5 -44t82 44t31 115q0 72 -31 115t-82 43 t-82.5 -43t-31.5 -115z" />
<glyph unicode=":" horiz-adv-x="634" d="M76 225q0 100 70.5 171t170.5 71t171 -70.5t71 -171.5q0 -102 -70.5 -173.5t-171.5 -71.5q-100 0 -170.5 71.5t-70.5 173.5zM76 901q0 100 70.5 172t170.5 72t171 -72t71 -172q0 -102 -70.5 -174t-171.5 -72q-100 0 -170.5 72t-70.5 174z" />
<glyph unicode=";" horiz-adv-x="655" d="M-6 -297l131 647h448l-184 -647h-395zM102 901q0 100 71 172t171 72t170 -72t70 -172q0 -102 -70 -174t-170 -72t-171 72t-71 174z" />
<glyph unicode="&#x3c;" horiz-adv-x="1167" d="M61 590v254l983 450v-366l-497 -211l497 -211v-367z" />
<glyph unicode="=" horiz-adv-x="1171" d="M102 346v324h967v-324h-967zM102 780v322h967v-322h-967z" />
<glyph unicode="&#x3e;" horiz-adv-x="1167" d="M123 139v367l495 211l-495 211v366l981 -450v-254z" />
<glyph unicode="?" horiz-adv-x="1079" d="M55 1126q6 123 66.5 215.5t164 143.5t234.5 51q150 0 262.5 -51t175 -145.5t62.5 -217.5q0 -104 -43 -172.5t-127 -148.5q-72 -66 -110 -125.5t-38 -136.5h-335q0 155 44 247.5t119 171.5q39 43 59.5 79t20.5 73q0 41 -24.5 66.5t-65.5 25.5q-37 0 -64.5 -25.5 t-35.5 -66.5zM311 205q0 98 63.5 160.5t160.5 62.5q96 0 158.5 -62.5t62.5 -160.5t-62.5 -161.5t-158.5 -63.5q-97 0 -160.5 63t-63.5 162z" />
<glyph unicode="@" horiz-adv-x="2197" d="M63 535q0 301 134.5 527t380 349t571.5 123q293 0 515 -101.5t343 -290t121 -442.5q0 -182 -61.5 -326.5t-174 -226t-260.5 -81.5q-109 0 -196.5 46t-141.5 128q-47 -82 -119.5 -127t-164.5 -45q-111 0 -203 59t-146.5 166.5t-54.5 245.5q0 137 54.5 245.5t144.5 169 t192 60.5q111 0 183 -76l2 59h379v-508q0 -39 17 -62.5t46 -23.5q53 0 83 78t30 191q0 164 -73 282.5t-206 181t-309 62.5q-205 0 -359.5 -83t-237.5 -234.5t-83 -350.5t82 -349t234.5 -233t361.5 -83q109 0 256 18.5t254 46.5l110 -307q-131 -43 -311 -68.5t-330 -25.5 q-319 0 -559.5 126t-372 354.5t-131.5 525.5zM1008 541q0 -59 21.5 -97t55.5 -38q39 0 60.5 36.5t21.5 98.5q0 61 -21.5 99t-60.5 38q-35 0 -56 -38t-21 -99z" />
<glyph unicode="A" d="M-16 0l561 1516h375l561 -1516h-432l-68 219h-496l-69 -219h-432zM590 553h287l-144 457z" />
<glyph unicode="B" horiz-adv-x="1361" d="M133 0v1516h666q125 0 221 -51.5t149.5 -144.5t53.5 -214q0 -88 -43 -164t-123 -129q119 -51 184.5 -143t65.5 -213q0 -135 -65.5 -238.5t-184.5 -161t-277 -57.5h-647zM539 334h206q66 0 106 38t40 101q0 61 -40 99t-101 38h-211v-276zM539 946h145q55 0 88 33t33 86 q0 51 -31 84t-80 33h-155v-236z" />
<glyph unicode="C" horiz-adv-x="1439" d="M59 764q0 229 95.5 404t268.5 271.5t398 96.5q360 0 565 -242l-253 -260q-41 78 -125 123t-185 45q-102 0 -181 -55t-122 -155.5t-43 -231.5q0 -133 45 -234.5t126 -157t188 -55.5q117 0 193.5 55.5t135.5 168.5l271 -244q-211 -313 -611 -313q-225 0 -399 98t-270.5 276 t-96.5 410z" />
<glyph unicode="D" horiz-adv-x="1503" d="M133 0v1516h600q211 0 372 -94.5t249 -265.5t88 -394q0 -225 -88 -398.5t-249 -268.5t-372 -95h-600zM539 334h206q125 0 202 117.5t77 310.5q0 188 -77 304t-202 116h-206v-848z" />
<glyph unicode="E" horiz-adv-x="1255" d="M133 0v1516h1030v-334h-624v-250h551v-334h-551v-264h637v-334h-1043z" />
<glyph unicode="F" horiz-adv-x="1161" d="M133 0v1516h971v-334h-565v-291h460v-334h-460v-557h-406z" />
<glyph unicode="G" horiz-adv-x="1544" d="M59 758q0 231 91.5 407t260.5 273.5t392 97.5q158 0 293 -46t225 -130l-266 -252q-31 45 -94.5 69.5t-151.5 24.5q-98 0 -174 -55t-117 -156.5t-41 -232.5t41 -232.5t115 -157t172 -55.5q113 0 186.5 68t95.5 182h-253v334h671q6 -69 6 -139q0 -229 -87 -405.5 t-247.5 -274.5t-373.5 -98q-221 0 -390 97t-261.5 273t-92.5 408z" />
<glyph unicode="H" horiz-adv-x="1667" d="M133 0v1516h406v-576h591v576h404v-1516h-404v606h-591v-606h-406z" />
<glyph unicode="I" horiz-adv-x="671" d="M133 0v1516h406v-1516h-406z" />
<glyph unicode="J" horiz-adv-x="829" d="M-4 94l106 271q49 -51 107 -52q41 0 65.5 24.5t24.5 65.5v1113h403v-1176q0 -106 -53 -188t-146 -127t-210 -45q-96 0 -169 28.5t-128 85.5z" />
<glyph unicode="K" horiz-adv-x="1366" d="M133 0v1516h406v-537l356 537h473l-504 -738l537 -778h-475l-387 580v-580h-406z" />
<glyph unicode="L" horiz-adv-x="1118" d="M133 0v1516h406v-1182h551v-334h-957z" />
<glyph unicode="M" horiz-adv-x="1869" d="M86 0l104 1516h455l289 -844l291 844h454l105 -1516h-406l-41 793l-297 -793h-211l-297 788l-40 -788h-406z" />
<glyph unicode="N" horiz-adv-x="1662" d="M133 0v1516h250l752 -777l-11 777h406v-1516h-248l-752 776l9 -776h-406z" />
<glyph unicode="O" horiz-adv-x="1632" d="M59 758q0 231 94.5 407t267.5 273.5t398 97.5q223 0 394 -97.5t265.5 -273.5t94.5 -407t-94.5 -407.5t-265.5 -273.5t-394 -97q-225 0 -398 97t-267.5 273t-94.5 408zM477 758q0 -131 43 -232.5t121 -157t178 -55.5q101 0 176.5 55.5t118.5 157t43 232.5t-43 232.5 t-118.5 156.5t-176.5 55q-100 0 -178 -55t-121 -156.5t-43 -232.5z" />
<glyph unicode="P" horiz-adv-x="1308" d="M133 0v1516h598q160 0 282 -63.5t189.5 -180.5t67.5 -271q0 -162 -70 -284.5t-196.5 -190t-294.5 -67.5h-170v-459h-406zM539 793h151q80 0 122 52t42 142q0 88 -44 141.5t-120 53.5h-151v-389z" />
<glyph unicode="Q" horiz-adv-x="1632" d="M59 758q0 231 94.5 407t267.5 273.5t398 97.5q223 0 394 -97.5t265.5 -273.5t94.5 -407q0 -143 -37 -267t-109 -221l195 -270h-461l-26 39q-141 -59 -316 -59q-225 0 -398 97t-267.5 273t-94.5 408zM477 758q0 -131 43 -232.5t121 -157t178 -55.5q62 0 117 23l-180 268 h385q16 76 16 154q0 131 -43 232.5t-118.5 156.5t-176.5 55q-100 0 -178 -55t-121 -156.5t-43 -232.5z" />
<glyph unicode="R" horiz-adv-x="1419" d="M133 0v1516h629q156 0 275.5 -63.5t185 -178.5t65.5 -264q0 -133 -58.5 -239.5t-164.5 -174.5l344 -596h-473l-268 504h-129v-504h-406zM539 838h141q86 0 139 47t53 125t-42 125t-111 47h-180v-344z" />
<glyph unicode="S" horiz-adv-x="1261" d="M74 1038q0 147 68.5 260t194.5 175.5t292 62.5q127 0 256 -43t245 -131l-174 -281q-82 61 -156.5 91t-154.5 30q-72 0 -111.5 -26.5t-39.5 -71.5q0 -47 49 -79t151 -64l60 -21q442 -145 442 -481q0 -143 -70.5 -252t-198.5 -168t-294 -59q-152 0 -288 52t-247 148 l148 273q172 -139 356 -140q176 0 176 105q0 51 -50 87t-153 68l-61 19q-217 70 -328.5 170t-111.5 276z" />
<glyph unicode="T" horiz-adv-x="1241" d="M31 1182v334h1179v-334h-387v-1182h-405v1182h-387z" />
<glyph unicode="U" horiz-adv-x="1517" d="M119 545v971h403v-953q0 -113 65.5 -181.5t174.5 -68.5q104 0 168.5 69t64.5 181v953h406v-971q0 -168 -80 -296t-225.5 -198.5t-335.5 -70.5q-191 0 -336 70.5t-225 198.5t-80 296z" />
<glyph unicode="V" d="M-16 1516h432l317 -1006l316 1006h432l-561 -1516h-375z" />
<glyph unicode="W" horiz-adv-x="2172" d="M-8 1516h432l227 -973l248 973h373l250 -973l227 973h432l-450 -1516h-375l-271 895l-266 -895h-375z" />
<glyph unicode="X" horiz-adv-x="1363" d="M-20 0l479 784l-455 732h467l211 -369l211 369h465l-455 -730l486 -786h-467l-240 418l-238 -418h-464z" />
<glyph unicode="Y" horiz-adv-x="1355" d="M8 1516h430l242 -648l238 648h430l-467 -1006v-510h-406v510z" />
<glyph unicode="Z" horiz-adv-x="1316" d="M68 0v250l626 932h-614v334h1153v-248l-629 -934h647v-334h-1183z" />
<glyph unicode="[" horiz-adv-x="804" d="M119 -369v1966h626v-335h-219v-1295h219v-336h-626z" />
<glyph unicode="\" horiz-adv-x="944" d="M55 1597h396l440 -1802h-395z" />
<glyph unicode="]" horiz-adv-x="804" d="M59 -33h220v1295h-220v335h627v-1966h-627v336z" />
<glyph unicode="^" horiz-adv-x="1157" d="M61 618l330 711h377l328 -711h-377l-139 304l-142 -304h-377z" />
<glyph unicode="_" horiz-adv-x="1234" d="M47 0h1141v-276h-1141v276z" />
<glyph unicode="`" horiz-adv-x="1228" d="M-69 1616h450l262 -352h-329z" />
<glyph unicode="a" horiz-adv-x="1112" d="M37 346q0 111 56.5 196t159.5 131t236 46q63 0 142 -12q-8 63 -52 97t-124 34q-102 0 -189 -62l-166 230q98 72 207 105.5t252 33.5q137 0 243.5 -54.5t165 -154.5t58.5 -231v-705h-381l-4 94q-43 -55 -104.5 -84.5t-126.5 -29.5q-168 0 -270.5 100t-102.5 266zM428 354 q0 -98 90 -98q55 0 85 50t30 138q-43 8 -88 9q-53 0 -85 -28t-32 -71z" />
<glyph unicode="b" horiz-adv-x="1286" d="M98 0v1597h394v-569q100 117 258 117q131 0 242.5 -75t177 -209t65.5 -304t-65.5 -301t-177 -203.5t-242.5 -72.5q-168 0 -269 129l-4 -109h-379zM492 561q0 -111 47 -178.5t123 -67.5q75 0 121 68t46 176q0 113 -46 181.5t-121 68.5q-76 0 -123 -68.5t-47 -179.5z" />
<glyph unicode="c" horiz-adv-x="1036" d="M49 561q0 174 72 306t203 205t303 73q102 0 197.5 -37t168.5 -100l-219 -267q-49 68 -137 68q-82 0 -131 -67.5t-49 -180.5q0 -111 49 -178.5t131 -67.5q115 0 172 84l221 -258q-76 -82 -181.5 -121.5t-227.5 -39.5q-170 0 -300.5 72.5t-201 204.5t-70.5 304z" />
<glyph unicode="d" horiz-adv-x="1284" d="M49 557q0 170 65.5 304t177 209t243.5 75q158 0 258 -117v569h393v-1597h-377l-6 109q-100 -129 -268 -129q-133 0 -244 72.5t-176.5 203.5t-65.5 301zM455 559q0 -109 46 -176.5t122 -67.5q75 0 122.5 68t47.5 178q0 111 -47.5 179.5t-122.5 68.5q-76 0 -122 -68.5 t-46 -181.5z" />
<glyph unicode="e" horiz-adv-x="1173" d="M49 547q0 176 67.5 312t189.5 211t282 75t281.5 -70.5t189 -198.5t67.5 -296q0 -80 -10 -156h-653q10 -68 42 -102.5t97 -34.5q96 0 154 84l305 -148q-63 -109 -183 -176t-270 -67q-166 0 -293 70.5t-196.5 198.5t-69.5 298zM465 686h252q-10 76 -41 114t-88 38 q-53 0 -83 -38t-40 -114z" />
<glyph unicode="f" horiz-adv-x="817" d="M57 803v321h152v125q0 166 100.5 267.5t263.5 101.5q70 0 135.5 -11.5t110.5 -33.5l-24 -303q-37 12 -86 12q-47 0 -77 -25.5t-30 -68.5v-64h180v-321h-180v-803h-393v803h-152z" />
<glyph unicode="g" horiz-adv-x="1284" d="M51 567q0 170 65.5 301t176 204t244.5 73q170 0 268 -131l6 110h377v-1024q0 -170 -81 -300t-228.5 -200.5t-343.5 -70.5q-137 0 -255 35t-202 102l84 307q149 -108 360 -108h4q119 0 193 63.5t76 167.5q-99 -116 -255 -116h-3q-131 0 -243 74.5t-177.5 208.5t-65.5 304z M457 563q0 -111 46 -179.5t122 -68.5q75 0 122.5 69t47.5 177q0 113 -46.5 180.5t-123.5 67.5q-76 0 -122 -68.5t-46 -177.5z" />
<glyph unicode="h" horiz-adv-x="1249" d="M98 0v1597h394v-571q57 57 131.5 88t148.5 31q115 0 204 -51.5t138 -144.5t49 -214v-735h-393v678q0 59 -38 95t-101 36t-101 -36t-38 -95v-678h-394z" />
<glyph unicode="i" horiz-adv-x="589" d="M74 1442q0 98 63.5 161.5t159.5 63.5t158.5 -63.5t62.5 -161.5q0 -96 -62.5 -159.5t-158.5 -63.5t-159.5 63.5t-63.5 159.5zM98 0v1124h394v-1124h-394z" />
<glyph unicode="j" horiz-adv-x="595" d="M-92 -434l24 309q33 -10 76 -10t69.5 29.5t26.5 78.5v1151h394v-1243q0 -160 -100.5 -256t-264.5 -96q-139 0 -225 37zM76 1442q0 98 62.5 161.5t158.5 63.5t158.5 -63.5t62.5 -161.5q0 -96 -62.5 -159.5t-158.5 -63.5t-158.5 63.5t-62.5 159.5z" />
<glyph unicode="k" horiz-adv-x="1200" d="M98 0v1597h394v-815l243 342h479l-411 -532l436 -592h-481l-266 395v-395h-394z" />
<glyph unicode="l" horiz-adv-x="587" d="M98 0v1597h394v-1597h-394z" />
<glyph unicode="m" horiz-adv-x="1830" d="M98 0v1124h379l4 -98q55 59 126 89t143 30q86 0 155.5 -31t116.5 -90q59 61 136 91t159 30q125 0 221 -51.5t149.5 -144.5t53.5 -214v-735h-393v678q0 59 -32 95t-85 36t-84 -36t-31 -95v-678h-393v678q0 59 -30.5 95t-84.5 36q-53 0 -84.5 -36t-31.5 -95v-678h-394z" />
<glyph unicode="n" horiz-adv-x="1249" d="M98 0v1124h379l4 -108q59 63 136 96t155 33q115 0 204 -51.5t138 -144.5t49 -214v-735h-393v678q0 59 -38 95t-101 36t-101 -36t-38 -95v-678h-394z" />
<glyph unicode="o" horiz-adv-x="1245" d="M49 561q0 174 72 306t202 205t302 73q170 0 299 -73t200.5 -205t71.5 -306q0 -172 -71.5 -304t-200.5 -204.5t-299 -72.5q-172 0 -302 72.5t-202 204.5t-72 304zM455 561q0 -109 46 -177.5t122 -68.5q75 0 120 68t45 178q0 113 -45 180.5t-120 67.5q-76 0 -122 -67.5 t-46 -180.5z" />
<glyph unicode="p" horiz-adv-x="1286" d="M98 -451v1575h379l4 -108q100 129 269 129q131 0 242.5 -73t177 -204t65.5 -301t-65.5 -304t-177 -208.5t-242.5 -74.5q-158 0 -258 116v-547h-394zM492 561q0 -109 47 -177.5t123 -68.5q75 0 121 69t46 179q0 109 -46 177.5t-121 68.5q-78 0 -124 -67.5t-46 -180.5z" />
<glyph unicode="q" horiz-adv-x="1284" d="M49 567q0 170 65.5 301t176 204t244.5 73q170 0 268 -131l6 110h377v-1575h-393v547q-99 -116 -255 -116h-3q-131 0 -243 74.5t-177.5 208.5t-65.5 304zM455 563q0 -111 46 -179.5t122 -68.5q75 0 122.5 69t47.5 177q0 113 -46.5 180.5t-123.5 67.5q-76 0 -122 -68.5 t-46 -177.5z" />
<glyph unicode="r" horiz-adv-x="835" d="M98 0v1124h379l6 -118q62 67 149 103t189 36l-24 -363q-131 0 -218 -62.5t-87 -158.5v-561h-394z" />
<glyph unicode="s" horiz-adv-x="1021" d="M61 125l146 235q72 -41 137.5 -58t134.5 -17q37 0 58.5 11t21.5 34q0 27 -29.5 43t-97.5 35l-55 16q-156 45 -233.5 113.5t-77.5 197.5q0 123 55 215t156.5 143.5t236.5 51.5q129 0 239.5 -31t188.5 -90l-164 -256q-109 70 -221 70q-92 0 -92 -41q0 -23 26.5 -38.5 t81.5 -29.5l56 -16q162 -49 245.5 -129t83.5 -226q0 -113 -59 -198.5t-165.5 -132.5t-244.5 -47q-262 0 -428 145z" />
<glyph unicode="t" horiz-adv-x="886" d="M35 803v321h158v328h393v-328h221v-321h-221v-385q0 -45 25.5 -74t66.5 -29q71 0 145 33v-315q-135 -53 -274 -53q-160 0 -258 97t-98 259v467h-158z" />
<glyph unicode="u" horiz-adv-x="1198" d="M88 387v737h393v-680q0 -57 31 -93t82 -36t82 36t31 93v680h393v-1124h-377l-6 100q-55 -59 -125 -89.5t-139 -30.5q-164 0 -264.5 111.5t-100.5 295.5z" />
<glyph unicode="v" horiz-adv-x="1187" d="M-2 1124h428l168 -680l168 680h430l-401 -1124h-392z" />
<glyph unicode="w" horiz-adv-x="1712" d="M2 1124h428l143 -680l125 680h316l125 -680l143 680h428l-348 -1124h-389l-117 494l-117 -494h-391z" />
<glyph unicode="x" horiz-adv-x="1161" d="M-10 0l364 575l-342 549h459l111 -196l110 196h459l-344 -546l367 -578h-457l-135 233l-136 -233h-456z" />
<glyph unicode="y" horiz-adv-x="1187" d="M0 1124h428l182 -667l156 667h428l-410 -1175q-74 -213 -178 -316.5t-282 -103.5q-109 0 -183 37l37 315q37 -16 80 -16q53 0 86 32.5t55 98.5l13 37z" />
<glyph unicode="z" horiz-adv-x="1083" d="M72 0v252l397 551h-387v321h917l2 -250l-397 -550h412v-324h-944z" />
<glyph unicode="{" horiz-adv-x="835" d="M53 446v336h6q53 0 87 28t34 73v379q0 162 98.5 259t262.5 97q125 0 237 -27v-315q-37 8 -76 8q-53 0 -84.5 -39t-31.5 -104v-305q0 -80 -48.5 -140.5t-125.5 -81.5q78 -20 126 -79.5t48 -139.5v-307q0 -66 31.5 -104.5t84.5 -38.5q39 0 76 8v-315q-113 -27 -237 -27 q-164 0 -262.5 97t-98.5 259v379q0 47 -32.5 73.5t-88.5 26.5h-6z" />
<glyph unicode="|" horiz-adv-x="641" d="M119 -451v2048h403v-2048h-403z" />
<glyph unicode="}" horiz-adv-x="835" d="M57 -47q37 -8 76 -8q53 0 85 40t32 103v307q0 80 47 139.5t125 79.5q-78 20 -125 81t-47 141v305q0 63 -32 103t-85 40q-39 0 -76 -8v315q113 27 238 27q164 0 262 -97.5t98 -258.5v-379q0 -45 34 -73t87 -28h6v-336h-6q-55 0 -88 -26.5t-33 -73.5v-379q0 -162 -98 -259 t-262 -97q-125 0 -238 27v315z" />
<glyph unicode="~" horiz-adv-x="1159" d="M102 444q0 156 76 249t203 93q59 0 117.5 -13t140.5 -40q94 -33 135 -33q43 0 63.5 15.5t20.5 50.5h203q0 -162 -75 -252t-204 -90q-55 0 -112.5 14.5t-143.5 40.5q-41 14 -77.5 24.5t-59.5 10.5q-41 0 -61.5 -18.5t-20.5 -51.5h-205z" />
<glyph unicode="&#xa1;" horiz-adv-x="581" d="M70 922q0 96 62.5 159.5t160.5 63.5q94 0 156.5 -63.5t62.5 -159.5q0 -98 -61.5 -162t-157.5 -64q-98 0 -160.5 63.5t-62.5 162.5zM88 -451l37 1037h334l35 -1037h-406z" />
<glyph unicode="&#xa2;" horiz-adv-x="1110" d="M49 664q0 215 108.5 364.5t297.5 198.5v182h354v-192q100 -35 184 -107l-219 -266q-49 68 -137 67q-82 0 -131 -67.5t-49 -179.5q0 -111 49 -178.5t131 -67.5q115 0 172 84l221 -258q-86 -96 -221 -135v-191h-354v184q-188 47 -297 197t-109 365z" />
<glyph unicode="&#xa3;" horiz-adv-x="1220" d="M82 0v315h133v260h-115v322h115v252q0 115 57.5 203t162 136t241.5 48q135 0 239.5 -49t162 -138t57.5 -206l-390 -25q0 37 -18 60.5t-49 23.5q-29 0 -45.5 -17.5t-16.5 -47.5v-240h441v-322h-441v-253h529v-322h-1063z" />
<glyph unicode="&#xa4;" horiz-adv-x="1253" d="M70 342l149 162q-39 98 -39 201q0 104 39 200l-149 160l235 238l146 -154q88 37 174 37q90 0 178 -39l143 151l238 -235l-152 -162q37 -96 37 -196q0 -107 -37 -197l152 -164l-238 -235l-143 151q-82 -41 -178 -41q-90 0 -174 39l-146 -152zM487 705q0 -82 41 -139.5 t97 -57.5q57 0 97 57.5t40 139.5q0 80 -40 138t-97 58q-55 0 -96.5 -58.5t-41.5 -137.5z" />
<glyph unicode="&#xa5;" horiz-adv-x="1433" d="M47 1516h430l242 -648l237 648h430l-352 -758h131v-246h-245v-78h245v-246h-245v-188h-406v188h-246v246h246v78h-246v246h131z" />
<glyph unicode="&#xa6;" horiz-adv-x="636" d="M117 369h403v-820h-403v820zM117 778v819h403v-819h-403z" />
<glyph unicode="&#xa7;" horiz-adv-x="1198" d="M80 588q0 166 84 291q-84 94 -84 241t64.5 260t181 175.5t268.5 62.5q117 0 236.5 -43t230.5 -131l-172 -281q-74 61 -139.5 91t-133.5 30q-55 0 -86.5 -26.5t-31.5 -71.5q0 -53 37.5 -80t136.5 -64l49 -18q182 -70 292.5 -182.5t110.5 -300.5q0 -162 -86 -281 q86 -106 86 -252q0 -143 -65.5 -251.5t-184 -168t-274.5 -59.5q-139 0 -265 52t-231 149l142 264q156 -131 321 -131q139 0 140 104q0 53 -38 84t-124 64l-53 18q-137 51 -224.5 106.5t-137.5 139.5t-50 209zM469 653q0 -45 23.5 -73.5t62.5 -49t117 -49.5l49 -18l8 -4 q6 18 6 43q0 66 -46 104.5t-144 71.5l-53 16q-8 4 -15 4q-8 -16 -8 -45z" />
<glyph unicode="&#xa8;" horiz-adv-x="1228" d="M63 1442q0 98 62.5 161.5t159.5 63.5q96 0 158.5 -63.5t62.5 -161.5q0 -96 -62.5 -159.5t-158.5 -63.5q-97 0 -159.5 63.5t-62.5 159.5zM608 1442q0 98 62.5 161.5t160.5 63.5q96 0 157.5 -63.5t61.5 -161.5q0 -96 -62 -159.5t-157 -63.5q-98 0 -160.5 63.5t-62.5 159.5z " />
<glyph unicode="&#xa9;" horiz-adv-x="1626" d="M68 758q0 231 93 407t262 273.5t390 97.5t390 -97.5t262.5 -273.5t93.5 -407t-93.5 -407.5t-262.5 -273.5t-390 -97t-390 97t-262 273t-93 408zM274 758q0 -180 68 -319.5t190.5 -215.5t280.5 -76t281 76t190.5 215.5t67.5 319.5t-67.5 319.5t-190.5 216t-281 76.5 t-280.5 -76.5t-190.5 -216t-68 -319.5zM401 756q0 193 117 308.5t311 115.5q209 0 318 -133l-162 -158q-18 37 -59 57.5t-92 20.5q-76 0 -122 -59.5t-46 -155.5t49 -155.5t129 -59.5q57 0 94 25.5t68 82.5l172 -149q-117 -172 -344 -172q-127 0 -225.5 54t-153 152.5 t-54.5 225.5z" />
<glyph unicode="&#xaa;" horiz-adv-x="745" d="M59 1059q0 102 75 163.5t198 61.5q43 0 82 -8q-8 76 -103 76q-72 0 -114 -37l-101 141q59 41 125 60.5t152 19.5q125 0 201.5 -71.5t76.5 -190.5v-422h-227l-2 55q-55 -68 -139 -67q-102 0 -163 59t-61 160zM301 1065q0 -29 11.5 -43t39.5 -14q31 0 47.5 28.5t16.5 81.5 q-37 4 -49 4q-29 0 -47.5 -15t-18.5 -42z" />
<glyph unicode="&#xab;" horiz-adv-x="1431" d="M45 553l340 479h418l-328 -479l328 -479h-418zM623 553l340 479h417l-327 -479l327 -479h-417z" />
<glyph unicode="&#xac;" horiz-adv-x="1157" d="M78 674v321h966v-680h-393v359h-573z" />
<glyph unicode="&#xad;" horiz-adv-x="980" d="M96 459v278h789v-278h-789z" />
<glyph unicode="&#xae;" horiz-adv-x="739" d="M68 1298q0 143 82.5 231.5t220.5 88.5q135 0 218 -88t83 -232q0 -143 -83 -232t-218 -89q-137 0 -220 88t-83 233zM139 1298q0 -119 63.5 -189.5t168.5 -70.5q102 0 165.5 71t63.5 189q0 119 -63.5 191t-165.5 72q-104 0 -168 -72t-64 -191zM240 1130v334h137 q53 0 85 -30.5t32 -81.5q-1 -59 -54 -90l74 -132h-96l-60 113h-32v-113h-86zM326 1315h32q23 0 35.5 10t12.5 27q0 16 -11.5 26.5t-27.5 10.5h-41v-74z" />
<glyph unicode="&#xaf;" horiz-adv-x="1228" d="M29 1237v307h753v-307h-753z" />
<glyph unicode="&#xb0;" horiz-adv-x="677" d="M51 1343q0 123 80 199t209 76t208 -76t79 -199q0 -125 -79 -200.5t-208 -75.5t-209 76t-80 200zM281 1343q0 -37 16 -60t43 -23t43 23.5t16 59.5q0 35 -16 59.5t-43 24.5t-43 -23.5t-16 -60.5z" />
<glyph unicode="&#xb1;" horiz-adv-x="1181" d="M94 -8v323h993v-323h-993zM94 762v319h299v346h395v-346h299v-319h-299v-348h-395v348h-299z" />
<glyph unicode="&#xb2;" horiz-adv-x="706" d="M47 811v154l258 323q37 47 65.5 94.5t28.5 92.5q0 25 -12 42t-33 17q-25 0 -39 -22.5t-14 -61.5l-244 23q0 117 81 188.5t212 71.5t211 -67.5t80 -176.5q0 -78 -42 -156.5t-138 -191.5l-115 -133l305 2v-199h-604z" />
<glyph unicode="&#xb3;" horiz-adv-x="679" d="M25 879l90 170q27 -20 65.5 -35.5t75.5 -15.5q59 0 92 29.5t33 76.5t-28.5 73.5t-78.5 26.5q-45 0 -88 -26l-65 121l166 223h-215v199h503v-150l-155 -188q98 -17 155.5 -91.5t57.5 -187.5q0 -137 -93.5 -221t-250.5 -84q-76 0 -148.5 21.5t-115.5 58.5z" />
<glyph unicode="&#xb4;" horiz-adv-x="1228" d="M156 1264l260 352h450l-383 -352h-327z" />
<glyph unicode="&#xb6;" horiz-adv-x="1275" d="M53 1143q0 168 94.5 270.5t247.5 102.5h731v-1967h-284v1688h-113v-1688h-285v1215h-106q-127 0 -206 104.5t-79 274.5z" />
<glyph unicode="&#xb7;" horiz-adv-x="614" d="M66 602q0 100 70.5 171t170.5 71q98 0 169 -71t71 -171t-70.5 -173t-169.5 -73q-100 0 -170.5 72t-70.5 174z" />
<glyph unicode="&#xb8;" horiz-adv-x="1228" d="M27 -426l63 135q41 -27 88 -26q33 0 49.5 12t16.5 31q0 37 -51 36q-25 0 -49 -14l-47 84l71 168h209l-51 -94q74 -12 117 -60.5t43 -117.5q0 -88 -72 -143.5t-195 -55.5q-53 0 -106 13.5t-86 31.5z" />
<glyph unicode="&#xb9;" horiz-adv-x="548" d="M-2 1491l281 230h186v-910h-242v590l-106 -82z" />
<glyph unicode="&#xba;" horiz-adv-x="794" d="M53 1188q0 158 94.5 253t251.5 95q154 0 247 -95t93 -253t-93 -253t-247 -95q-157 0 -251.5 95t-94.5 253zM297 1188q0 -66 27.5 -105t74.5 -39q43 0 72 39t29 105t-29 107.5t-72 41.5q-47 0 -74.5 -41t-27.5 -108z" />
<glyph unicode="&#xbb;" horiz-adv-x="1431" d="M51 74l328 479l-328 479h418l340 -479l-340 -479h-418zM631 74l325 479l-325 479h416l342 -479l-342 -479h-416z" />
<glyph unicode="&#xbc;" horiz-adv-x="1697" d="M-2 1286l281 230h186v-910h-242v590l-106 -82zM309 102l750 1434l199 -121l-750 -1435zM958 156v166l408 587h184v-549h101v-204h-101v-156h-241v156h-351zM1174 352h141l2 203z" />
<glyph unicode="&#xbd;" horiz-adv-x="1726" d="M-2 1286l281 230h186v-910h-242v590l-106 -82zM309 102l750 1434l199 -121l-750 -1435zM1067 0v154l258 323q37 47 65.5 94t28.5 93q0 25 -12 42t-33 17q-25 0 -39 -22.5t-14 -61.5l-244 23q0 117 81 188.5t212 71.5t211 -68t80 -176q0 -78 -42 -157t-138 -191l-115 -133 l305 2v-199h-604z" />
<glyph unicode="&#xbe;" horiz-adv-x="1828" d="M25 674l90 170q27 -20 65.5 -35.5t75.5 -15.5q59 0 92 29.5t33 76.5t-28.5 73.5t-78.5 26.5q-45 0 -88 -26l-65 121l166 223h-215v199h503v-150l-155 -188q98 -17 155.5 -91.5t57.5 -187.5q0 -137 -93.5 -221t-250.5 -84q-76 0 -148.5 21.5t-115.5 58.5zM440 102 l750 1434l199 -121l-750 -1435zM1089 156v166l408 587h184v-549h101v-204h-101v-156h-241v156h-351zM1305 352h141l2 203z" />
<glyph unicode="&#xbf;" horiz-adv-x="1067" d="M55 -57q0 74 22.5 129t53.5 92t92 102q76 80 114 150.5t38 169.5h334q0 -178 -44 -284.5t-118 -192.5q-41 -47 -61.5 -82t-20.5 -72q0 -41 24.5 -66.5t63.5 -25.5q37 0 66.5 25.5t37.5 66.5l363 -16q-10 -186 -137 -298t-328 -112q-147 0 -261 51t-176.5 145.5 t-62.5 217.5zM319 922q0 96 62.5 159.5t161.5 63.5q94 0 156.5 -63.5t62.5 -159.5q0 -98 -61.5 -162t-157.5 -64q-99 0 -161.5 63.5t-62.5 162.5z" />
<glyph unicode="&#xc0;" d="M-16 0l561 1516h375l561 -1516h-432l-68 219h-496l-69 -219h-432zM265 2007h450l262 -352h-329zM590 553h287l-144 457z" />
<glyph unicode="&#xc1;" d="M-16 0l561 1516h375l561 -1516h-432l-68 219h-496l-69 -219h-432zM492 1655l260 352h451l-383 -352h-328zM590 553h287l-144 457z" />
<glyph unicode="&#xc2;" d="M-16 0l561 1516h375l561 -1516h-432l-68 219h-496l-69 -219h-432zM305 1655l246 352h362l246 -352h-340l-86 120l-88 -120h-340zM590 553h287l-144 457z" />
<glyph unicode="&#xc3;" d="M-16 0l561 1516h375l561 -1516h-432l-68 219h-496l-69 -219h-432zM338 1663q0 156 65.5 250t176.5 94q41 0 81 -11.5t73.5 -24.5t43.5 -17q70 -33 99 -33q25 0 36 15.5t11 49.5h203q0 -164 -65 -254t-177 -90q-41 0 -85 14.5t-110 41.5q-31 14 -59.5 24t-42.5 10 q-47 0 -47 -69h-203zM590 553h287l-144 457z" />
<glyph unicode="&#xc4;" d="M-16 0l561 1516h375l561 -1516h-432l-68 219h-496l-69 -219h-432zM239 1833q0 98 62.5 161.5t159.5 63.5q96 0 158.5 -63.5t62.5 -161.5q0 -96 -62.5 -159.5t-158.5 -63.5q-97 0 -159.5 63.5t-62.5 159.5zM590 553h287l-144 457zM784 1833q0 98 62.5 161.5t160.5 63.5 q96 0 157.5 -63.5t61.5 -161.5q0 -96 -62 -159.5t-157 -63.5q-98 0 -160.5 63.5t-62.5 159.5z" />
<glyph unicode="&#xc5;" d="M-16 0l561 1516h375l561 -1516h-432l-68 219h-496l-69 -219h-432zM495 1814q0 100 64.5 162t173.5 62q106 0 170.5 -61.5t64.5 -162.5q0 -102 -64.5 -164.5t-170.5 -62.5q-109 0 -173.5 62.5t-64.5 164.5zM590 553h287l-144 457zM688 1814q0 -25 13 -41t32 -16 q18 0 30.5 15.5t12.5 41.5q0 23 -12.5 38.5t-30.5 15.5t-31.5 -15.5t-13.5 -38.5z" />
<glyph unicode="&#xc6;" horiz-adv-x="2082" d="M-41 0l891 1516h1141v-334h-766l51 -250h641v-334h-569l55 -264h602v-334h-956l-37 219h-488l-110 -219h-455zM692 553h264l-65 391z" />
<glyph unicode="&#xc7;" horiz-adv-x="1439" d="M59 764q0 229 95.5 404t268.5 271.5t398 96.5q360 0 565 -242l-253 -260q-41 78 -125 123t-185 45q-102 0 -181 -55t-122 -155.5t-43 -231.5q0 -133 45 -234.5t126 -157t188 -55.5q117 0 193.5 55.5t135.5 168.5l271 -244q-191 -280 -531 -309l-41 -78q74 -12 117 -60.5 t43 -117.5q0 -88 -71.5 -143.5t-194.5 -55.5q-53 0 -106.5 13.5t-86.5 31.5l64 135q41 -27 88 -26q33 0 49 12t16 31q0 37 -51 36q-25 0 -49 -14l-47 84l65 156q-193 25 -338 128t-224 270t-79 378z" />
<glyph unicode="&#xc8;" horiz-adv-x="1255" d="M133 0v1516h1030v-334h-624v-250h551v-334h-551v-264h637v-334h-1043zM179 2007h450l262 -352h-329z" />
<glyph unicode="&#xc9;" horiz-adv-x="1255" d="M133 0v1516h1030v-334h-624v-250h551v-334h-551v-264h637v-334h-1043zM406 1655l260 352h451l-383 -352h-328z" />
<glyph unicode="&#xca;" horiz-adv-x="1255" d="M133 0v1516h1030v-334h-624v-250h551v-334h-551v-264h637v-334h-1043zM219 1655l246 352h362l246 -352h-340l-86 120l-88 -120h-340z" />
<glyph unicode="&#xcb;" horiz-adv-x="1255" d="M133 0v1516h1030v-334h-624v-250h551v-334h-551v-264h637v-334h-1043zM153 1833q0 98 62.5 161.5t159.5 63.5q96 0 158.5 -63.5t62.5 -161.5q0 -96 -62.5 -159.5t-158.5 -63.5q-97 0 -159.5 63.5t-62.5 159.5zM698 1833q0 98 62.5 161.5t160.5 63.5q96 0 157.5 -63.5 t61.5 -161.5q0 -96 -62 -159.5t-157 -63.5q-98 0 -160.5 63.5t-62.5 159.5z" />
<glyph unicode="&#xcc;" horiz-adv-x="671" d="M-135 2007h450l262 -352h-329zM133 0v1516h406v-1516h-406z" />
<glyph unicode="&#xcd;" horiz-adv-x="671" d="M92 1655l260 352h451l-383 -352h-328zM133 0v1516h406v-1516h-406z" />
<glyph unicode="&#xce;" horiz-adv-x="671" d="M-94 1655l246 352h362l246 -352h-340l-86 120l-88 -120h-340zM133 0v1516h406v-1516h-406z" />
<glyph unicode="&#xcf;" horiz-adv-x="671" d="M-160 1833q0 98 62.5 161.5t159.5 63.5q96 0 158.5 -63.5t62.5 -161.5q0 -96 -62.5 -159.5t-158.5 -63.5q-97 0 -159.5 63.5t-62.5 159.5zM133 0v1516h406v-1516h-406zM385 1833q0 98 62.5 161.5t160.5 63.5q96 0 157.5 -63.5t61.5 -161.5q0 -96 -62 -159.5t-157 -63.5 q-98 0 -160.5 63.5t-62.5 159.5z" />
<glyph unicode="&#xd0;" horiz-adv-x="1503" d="M8 621v278h125v617h600q211 0 372 -94.5t249 -265.5t88 -394q0 -225 -88 -398.5t-249 -268.5t-372 -95h-600v621h-125zM539 334h206q125 0 202 117.5t77 310.5q0 188 -77 304t-202 116h-206v-283h227v-278h-227v-287z" />
<glyph unicode="&#xd1;" horiz-adv-x="1662" d="M133 0v1516h250l752 -777l-11 777h406v-1516h-248l-752 776l9 -776h-406zM436 1663q0 156 65.5 250t176.5 94q41 0 81 -11.5t73.5 -24.5t43.5 -17q70 -33 99 -33q25 0 36 15.5t11 49.5h203q0 -164 -65 -254t-177 -90q-41 0 -85 14.5t-110 41.5q-31 14 -59.5 24t-42.5 10 q-47 0 -47 -69h-203z" />
<glyph unicode="&#xd2;" horiz-adv-x="1632" d="M59 758q0 231 94.5 407t267.5 273.5t398 97.5q223 0 394 -97.5t265.5 -273.5t94.5 -407t-94.5 -407.5t-265.5 -273.5t-394 -97q-225 0 -398 97t-267.5 273t-94.5 408zM351 2007h450l262 -352h-329zM477 758q0 -131 43 -232.5t121 -157t178 -55.5q101 0 176.5 55.5 t118.5 157t43 232.5t-43 232.5t-118.5 156.5t-176.5 55q-100 0 -178 -55t-121 -156.5t-43 -232.5z" />
<glyph unicode="&#xd3;" horiz-adv-x="1632" d="M59 758q0 231 94.5 407t267.5 273.5t398 97.5q223 0 394 -97.5t265.5 -273.5t94.5 -407t-94.5 -407.5t-265.5 -273.5t-394 -97q-225 0 -398 97t-267.5 273t-94.5 408zM477 758q0 -131 43 -232.5t121 -157t178 -55.5q101 0 176.5 55.5t118.5 157t43 232.5t-43 232.5 t-118.5 156.5t-176.5 55q-100 0 -178 -55t-121 -156.5t-43 -232.5zM578 1655l260 352h451l-383 -352h-328z" />
<glyph unicode="&#xd4;" horiz-adv-x="1632" d="M59 758q0 231 94.5 407t267.5 273.5t398 97.5q223 0 394 -97.5t265.5 -273.5t94.5 -407t-94.5 -407.5t-265.5 -273.5t-394 -97q-225 0 -398 97t-267.5 273t-94.5 408zM391 1655l246 352h362l246 -352h-340l-86 120l-88 -120h-340zM477 758q0 -131 43 -232.5t121 -157 t178 -55.5q101 0 176.5 55.5t118.5 157t43 232.5t-43 232.5t-118.5 156.5t-176.5 55q-100 0 -178 -55t-121 -156.5t-43 -232.5z" />
<glyph unicode="&#xd5;" horiz-adv-x="1632" d="M59 758q0 231 94.5 407t267.5 273.5t398 97.5q223 0 394 -97.5t265.5 -273.5t94.5 -407t-94.5 -407.5t-265.5 -273.5t-394 -97q-225 0 -398 97t-267.5 273t-94.5 408zM424 1663q0 156 65.5 250t176.5 94q41 0 81 -11.5t73.5 -24.5t43.5 -17q70 -33 99 -33q25 0 36 15.5 t11 49.5h203q0 -164 -65 -254t-177 -90q-41 0 -85 14.5t-110 41.5q-31 14 -59.5 24t-42.5 10q-47 0 -47 -69h-203zM477 758q0 -131 43 -232.5t121 -157t178 -55.5q101 0 176.5 55.5t118.5 157t43 232.5t-43 232.5t-118.5 156.5t-176.5 55q-100 0 -178 -55t-121 -156.5 t-43 -232.5z" />
<glyph unicode="&#xd6;" horiz-adv-x="1632" d="M59 758q0 231 94.5 407t267.5 273.5t398 97.5q223 0 394 -97.5t265.5 -273.5t94.5 -407t-94.5 -407.5t-265.5 -273.5t-394 -97q-225 0 -398 97t-267.5 273t-94.5 408zM325 1833q0 98 62.5 161.5t159.5 63.5q96 0 158.5 -63.5t62.5 -161.5q0 -96 -62.5 -159.5 t-158.5 -63.5q-97 0 -159.5 63.5t-62.5 159.5zM477 758q0 -131 43 -232.5t121 -157t178 -55.5q101 0 176.5 55.5t118.5 157t43 232.5t-43 232.5t-118.5 156.5t-176.5 55q-100 0 -178 -55t-121 -156.5t-43 -232.5zM870 1833q0 98 62.5 161.5t160.5 63.5q96 0 157.5 -63.5 t61.5 -161.5q0 -96 -62 -159.5t-157 -63.5q-98 0 -160.5 63.5t-62.5 159.5z" />
<glyph unicode="&#xd7;" horiz-adv-x="1013" d="M68 954l241 240l199 -219l199 219l241 -240l-211 -233l207 -227l-242 -242l-194 215l-197 -215l-239 242l207 227z" />
<glyph unicode="&#xd8;" horiz-adv-x="1632" d="M59 758q0 231 94.5 407t267.5 273.5t398 97.5q233 0 416 -109l90 109l166 -139l-92 -111q84 -102 129 -236.5t45 -291.5q0 -231 -94.5 -407.5t-265.5 -273.5t-394 -97q-236 0 -418 108l-90 -108l-168 139l93 110q-86 100 -131.5 235.5t-45.5 293.5zM477 758 q0 -115 31 -201l491 588q-80 57 -180 57t-178 -55t-121 -156.5t-43 -232.5zM637 371q80 -57 182 -58q101 0 176.5 55.5t118.5 157t43 232.5q0 113 -31 200z" />
<glyph unicode="&#xd9;" horiz-adv-x="1517" d="M119 545v971h403v-953q0 -113 65.5 -181.5t174.5 -68.5q104 0 168.5 69t64.5 181v953h406v-971q0 -168 -80 -296t-225.5 -198.5t-335.5 -70.5q-191 0 -336 70.5t-225 198.5t-80 296zM291 2007h450l262 -352h-329z" />
<glyph unicode="&#xda;" horiz-adv-x="1517" d="M119 545v971h403v-953q0 -113 65.5 -181.5t174.5 -68.5q104 0 168.5 69t64.5 181v953h406v-971q0 -168 -80 -296t-225.5 -198.5t-335.5 -70.5q-191 0 -336 70.5t-225 198.5t-80 296zM518 1655l260 352h451l-383 -352h-328z" />
<glyph unicode="&#xdb;" horiz-adv-x="1517" d="M119 545v971h403v-953q0 -113 65.5 -181.5t174.5 -68.5q104 0 168.5 69t64.5 181v953h406v-971q0 -168 -80 -296t-225.5 -198.5t-335.5 -70.5q-191 0 -336 70.5t-225 198.5t-80 296zM332 1655l246 352h362l246 -352h-340l-86 120l-88 -120h-340z" />
<glyph unicode="&#xdc;" horiz-adv-x="1517" d="M119 545v971h403v-953q0 -113 65.5 -181.5t174.5 -68.5q104 0 168.5 69t64.5 181v953h406v-971q0 -168 -80 -296t-225.5 -198.5t-335.5 -70.5q-191 0 -336 70.5t-225 198.5t-80 296zM266 1833q0 98 62.5 161.5t159.5 63.5q96 0 158.5 -63.5t62.5 -161.5 q0 -96 -62.5 -159.5t-158.5 -63.5q-97 0 -159.5 63.5t-62.5 159.5zM811 1833q0 98 62.5 161.5t160.5 63.5q96 0 157.5 -63.5t61.5 -161.5q0 -96 -62 -159.5t-157 -63.5q-98 0 -160.5 63.5t-62.5 159.5z" />
<glyph unicode="&#xdd;" horiz-adv-x="1355" d="M8 1516h430l242 -648l238 648h430l-467 -1006v-510h-406v510zM438 1655l260 352h451l-383 -352h-328z" />
<glyph unicode="&#xde;" horiz-adv-x="1304" d="M133 0v1516h406v-216h192q160 0 282 -64.5t189.5 -181t67.5 -268.5q0 -162 -70 -284.5t-196.5 -190t-294.5 -67.5h-170v-244h-406zM539 578h151q80 0 122 52t42 142q0 88 -44 140.5t-120 52.5h-151v-387z" />
<glyph unicode="&#xdf;" horiz-adv-x="1204" d="M98 0v1225q0 117 60.5 206t171 138t254.5 49q147 0 260.5 -53.5t176 -150.5t62.5 -222q0 -104 -44 -188t-124 -140q113 -59 176.5 -159.5t63.5 -227.5q0 -147 -57.5 -260t-160.5 -175t-241 -62q-45 0 -92 6t-74 16l35 320q20 -6 51 -7q59 0 97.5 52.5t38.5 138.5 q0 88 -44 141t-118 53v308q45 0 71.5 38.5t26.5 102.5q0 59 -27.5 96t-74.5 37q-41 0 -67.5 -25.5t-26.5 -68.5v-1188h-394z" />
<glyph unicode="&#xe0;" horiz-adv-x="1112" d="M37 346q0 111 56.5 196t159.5 131t236 46q63 0 142 -12q-8 63 -52 97t-124 34q-102 0 -189 -62l-166 230q98 72 207 105.5t252 33.5q137 0 243.5 -54.5t165 -154.5t58.5 -231v-705h-381l-4 94q-43 -55 -104.5 -84.5t-126.5 -29.5q-168 0 -270.5 100t-102.5 266zM107 1616 h450l262 -352h-329zM428 354q0 -98 90 -98q55 0 85 50t30 138q-43 8 -88 9q-53 0 -85 -28t-32 -71z" />
<glyph unicode="&#xe1;" horiz-adv-x="1112" d="M37 346q0 111 56.5 196t159.5 131t236 46q63 0 142 -12q-8 63 -52 97t-124 34q-102 0 -189 -62l-166 230q98 72 207 105.5t252 33.5q137 0 243.5 -54.5t165 -154.5t58.5 -231v-705h-381l-4 94q-43 -55 -104.5 -84.5t-126.5 -29.5q-168 0 -270.5 100t-102.5 266zM334 1264 l260 352h451l-383 -352h-328zM428 354q0 -98 90 -98q55 0 85 50t30 138q-43 8 -88 9q-53 0 -85 -28t-32 -71z" />
<glyph unicode="&#xe2;" horiz-adv-x="1112" d="M37 346q0 111 56.5 196t159.5 131t236 46q63 0 142 -12q-8 63 -52 97t-124 34q-102 0 -189 -62l-166 230q98 72 207 105.5t252 33.5q137 0 243.5 -54.5t165 -154.5t58.5 -231v-705h-381l-4 94q-43 -55 -104.5 -84.5t-126.5 -29.5q-168 0 -270.5 100t-102.5 266zM148 1264 l246 352h362l246 -352h-340l-86 120l-88 -120h-340zM428 354q0 -98 90 -98q55 0 85 50t30 138q-43 8 -88 9q-53 0 -85 -28t-32 -71z" />
<glyph unicode="&#xe3;" horiz-adv-x="1112" d="M37 346q0 111 56.5 196t159.5 131t236 46q63 0 142 -12q-8 63 -52 97t-124 34q-102 0 -189 -62l-166 230q98 72 207 105.5t252 33.5q137 0 243.5 -54.5t165 -154.5t58.5 -231v-705h-381l-4 94q-43 -55 -104.5 -84.5t-126.5 -29.5q-168 0 -270.5 100t-102.5 266zM180 1272 q0 156 65.5 250t176.5 94q41 0 81 -11.5t73.5 -24.5t43.5 -17q70 -33 99 -33q25 0 36 15.5t11 49.5h203q0 -164 -65 -254t-177 -90q-41 0 -85 14.5t-110 41.5q-31 14 -59.5 24t-42.5 10q-47 0 -47 -69h-203zM428 354q0 -98 90 -98q55 0 85 50t30 138q-43 8 -88 9 q-53 0 -85 -28t-32 -71z" />
<glyph unicode="&#xe4;" horiz-adv-x="1112" d="M37 346q0 111 56.5 196t159.5 131t236 46q63 0 142 -12q-8 63 -52 97t-124 34q-102 0 -189 -62l-166 230q98 72 207 105.5t252 33.5q137 0 243.5 -54.5t165 -154.5t58.5 -231v-705h-381l-4 94q-43 -55 -104.5 -84.5t-126.5 -29.5q-168 0 -270.5 100t-102.5 266zM82 1442 q0 98 62.5 161.5t159.5 63.5q96 0 158.5 -63.5t62.5 -161.5q0 -96 -62.5 -159.5t-158.5 -63.5q-97 0 -159.5 63.5t-62.5 159.5zM428 354q0 -98 90 -98q55 0 85 50t30 138q-43 8 -88 9q-53 0 -85 -28t-32 -71zM627 1442q0 98 62.5 161.5t160.5 63.5q96 0 157.5 -63.5 t61.5 -161.5q0 -96 -62 -159.5t-157 -63.5q-98 0 -160.5 63.5t-62.5 159.5z" />
<glyph unicode="&#xe5;" horiz-adv-x="1112" d="M37 346q0 111 56.5 196t159.5 131t236 46q63 0 142 -12q-8 63 -52 97t-124 34q-102 0 -189 -62l-166 230q98 72 207 105.5t252 33.5q137 0 243.5 -54.5t165 -154.5t58.5 -231v-705h-381l-4 94q-43 -55 -104.5 -84.5t-126.5 -29.5q-168 0 -270.5 100t-102.5 266zM338 1423 q0 100 64.5 162t173.5 62q106 0 170.5 -61.5t64.5 -162.5q0 -102 -64.5 -164.5t-170.5 -62.5q-109 0 -173.5 62.5t-64.5 164.5zM428 354q0 -98 90 -98q55 0 85 50t30 138q-43 8 -88 9q-53 0 -85 -28t-32 -71zM531 1423q0 -25 13 -41t32 -16q18 0 30.5 15.5t12.5 41.5 q0 23 -12.5 38.5t-30.5 15.5t-31.5 -15.5t-13.5 -38.5z" />
<glyph unicode="&#xe6;" horiz-adv-x="1728" d="M37 346q0 111 56.5 196t159.5 131t236 46q63 0 142 -12q-8 63 -52 97t-124 34q-102 0 -189 -62l-166 230q92 72 193.5 105.5t236.5 33.5q188 0 314 -129q139 129 325 129q152 0 267.5 -70.5t179 -198.5t63.5 -296q0 -80 -10 -156h-653q10 -68 42 -102.5t97 -34.5 q96 0 154 84l305 -148q-59 -111 -171 -177t-253 -66q-113 0 -208 38.5t-165 110.5q-59 -72 -151.5 -110.5t-196.5 -38.5q-127 0 -225.5 45t-152.5 129t-54 192zM428 354q0 -94 90 -94q55 0 85 49t30 135q-43 8 -88 9q-53 0 -85 -28t-32 -71zM1018 686h252q-23 152 -129 152 q-54 0 -83.5 -38t-39.5 -114z" />
<glyph unicode="&#xe7;" horiz-adv-x="1036" d="M49 561q0 174 72 306t203 205t303 73q102 0 197.5 -37t168.5 -100l-219 -267q-49 68 -137 68q-82 0 -131 -67.5t-49 -180.5q0 -111 49 -178.5t131 -67.5q115 0 172 84l221 -258q-125 -134 -334 -157l-43 -78q74 -12 117 -60.5t43 -117.5q0 -88 -71.5 -143.5t-194.5 -55.5 q-53 0 -106.5 13.5t-86.5 31.5l64 135q41 -27 88 -26q33 0 49 12t16 31q0 37 -51 36q-25 0 -49 -14l-47 84l68 160q-205 39 -324 191.5t-119 377.5z" />
<glyph unicode="&#xe8;" horiz-adv-x="1173" d="M49 547q0 176 67.5 312t189.5 211t282 75t281.5 -70.5t189 -198.5t67.5 -296q0 -80 -10 -156h-653q10 -68 42 -102.5t97 -34.5q96 0 154 84l305 -148q-63 -109 -183 -176t-270 -67q-166 0 -293 70.5t-196.5 198.5t-69.5 298zM119 1616h450l262 -352h-329zM465 686h252 q-10 76 -41 114t-88 38q-53 0 -83 -38t-40 -114z" />
<glyph unicode="&#xe9;" horiz-adv-x="1173" d="M49 547q0 176 67.5 312t189.5 211t282 75t281.5 -70.5t189 -198.5t67.5 -296q0 -80 -10 -156h-653q10 -68 42 -102.5t97 -34.5q96 0 154 84l305 -148q-63 -109 -183 -176t-270 -67q-166 0 -293 70.5t-196.5 198.5t-69.5 298zM346 1264l260 352h451l-383 -352h-328z M465 686h252q-10 76 -41 114t-88 38q-53 0 -83 -38t-40 -114z" />
<glyph unicode="&#xea;" horiz-adv-x="1173" d="M49 547q0 176 67.5 312t189.5 211t282 75t281.5 -70.5t189 -198.5t67.5 -296q0 -80 -10 -156h-653q10 -68 42 -102.5t97 -34.5q96 0 154 84l305 -148q-63 -109 -183 -176t-270 -67q-166 0 -293 70.5t-196.5 198.5t-69.5 298zM160 1264l246 352h362l246 -352h-340l-86 120 l-88 -120h-340zM465 686h252q-10 76 -41 114t-88 38q-53 0 -83 -38t-40 -114z" />
<glyph unicode="&#xeb;" horiz-adv-x="1173" d="M49 547q0 176 67.5 312t189.5 211t282 75t281.5 -70.5t189 -198.5t67.5 -296q0 -80 -10 -156h-653q10 -68 42 -102.5t97 -34.5q96 0 154 84l305 -148q-63 -109 -183 -176t-270 -67q-166 0 -293 70.5t-196.5 198.5t-69.5 298zM94 1442q0 98 62.5 161.5t159.5 63.5 q96 0 158.5 -63.5t62.5 -161.5q0 -96 -62.5 -159.5t-158.5 -63.5q-97 0 -159.5 63.5t-62.5 159.5zM465 686h252q-10 76 -41 114t-88 38q-53 0 -83 -38t-40 -114zM639 1442q0 98 62.5 161.5t160.5 63.5q96 0 157.5 -63.5t61.5 -161.5q0 -96 -62 -159.5t-157 -63.5 q-98 0 -160.5 63.5t-62.5 159.5z" />
<glyph unicode="&#xec;" horiz-adv-x="587" d="M-172 1614h450l262 -352h-329zM98 0v1122h391v-1122h-391z" />
<glyph unicode="&#xed;" horiz-adv-x="587" d="M55 1262l260 352h451l-383 -352h-328zM98 0v1122h391v-1122h-391z" />
<glyph unicode="&#xee;" horiz-adv-x="587" d="M-131 1262l246 352h362l246 -352h-340l-86 120l-88 -120h-340zM98 0v1122h391v-1122h-391z" />
<glyph unicode="&#xef;" horiz-adv-x="587" d="M-197 1440q0 98 62.5 161.5t159.5 63.5q96 0 158.5 -63.5t62.5 -161.5q0 -96 -62.5 -159.5t-158.5 -63.5q-97 0 -159.5 63.5t-62.5 159.5zM98 0v1122h391v-1122h-391zM348 1440q0 98 62.5 161.5t160.5 63.5q96 0 157.5 -63.5t61.5 -161.5q0 -96 -62 -159.5t-157 -63.5 q-98 0 -160.5 63.5t-62.5 159.5z" />
<glyph unicode="&#xf0;" horiz-adv-x="1253" d="M51 565q0 162 65.5 287t177.5 193.5t243 68.5q45 0 92 -10q-41 45 -105 102l-80 -51l-198 154l71 47l-81 49l325 213l82 -49l76 49l199 -156l-74 -47q174 -155 264 -344.5t90 -404.5q0 -201 -71.5 -356.5t-201.5 -242.5t-298 -87q-172 0 -302 72.5t-202 204.5t-72 308z M459 561q0 -111 46 -178.5t122 -67.5q73 0 119.5 69t46.5 177q0 113 -45.5 180.5t-120.5 67.5q-76 0 -122 -67.5t-46 -180.5z" />
<glyph unicode="&#xf1;" horiz-adv-x="1249" d="M98 0v1124h379l4 -108q59 63 136 96t155 33q115 0 204 -51.5t138 -144.5t49 -214v-735h-393v678q0 59 -38 95t-101 36t-101 -36t-38 -95v-678h-394zM242 1272q0 156 65.5 250t176.5 94q41 0 81 -11.5t73.5 -24.5t43.5 -17q70 -33 99 -33q25 0 36 15.5t11 49.5h203 q0 -164 -65 -254t-177 -90q-41 0 -85 14.5t-110 41.5q-31 14 -59.5 24t-42.5 10q-47 0 -47 -69h-203z" />
<glyph unicode="&#xf2;" horiz-adv-x="1245" d="M49 561q0 174 72 306t202 205t302 73q170 0 299 -73t200.5 -205t71.5 -306q0 -172 -71.5 -304t-200.5 -204.5t-299 -72.5q-172 0 -302 72.5t-202 204.5t-72 304zM156 1616h450l262 -352h-329zM455 561q0 -109 46 -177.5t122 -68.5q75 0 120 68t45 178q0 113 -45 180.5 t-120 67.5q-76 0 -122 -67.5t-46 -180.5z" />
<glyph unicode="&#xf3;" horiz-adv-x="1245" d="M49 561q0 174 72 306t202 205t302 73q170 0 299 -73t200.5 -205t71.5 -306q0 -172 -71.5 -304t-200.5 -204.5t-299 -72.5q-172 0 -302 72.5t-202 204.5t-72 304zM383 1264l260 352h451l-383 -352h-328zM455 561q0 -109 46 -177.5t122 -68.5q75 0 120 68t45 178 q0 113 -45 180.5t-120 67.5q-76 0 -122 -67.5t-46 -180.5z" />
<glyph unicode="&#xf4;" horiz-adv-x="1245" d="M49 561q0 174 72 306t202 205t302 73q170 0 299 -73t200.5 -205t71.5 -306q0 -172 -71.5 -304t-200.5 -204.5t-299 -72.5q-172 0 -302 72.5t-202 204.5t-72 304zM197 1264l246 352h362l246 -352h-340l-86 120l-88 -120h-340zM455 561q0 -109 46 -177.5t122 -68.5 q75 0 120 68t45 178q0 113 -45 180.5t-120 67.5q-76 0 -122 -67.5t-46 -180.5z" />
<glyph unicode="&#xf5;" horiz-adv-x="1245" d="M49 561q0 174 72 306t202 205t302 73q170 0 299 -73t200.5 -205t71.5 -306q0 -172 -71.5 -304t-200.5 -204.5t-299 -72.5q-172 0 -302 72.5t-202 204.5t-72 304zM229 1272q0 156 65.5 250t176.5 94q41 0 81 -11.5t73.5 -24.5t43.5 -17q70 -33 99 -33q25 0 36 15.5 t11 49.5h203q0 -164 -65 -254t-177 -90q-41 0 -85 14.5t-110 41.5q-31 14 -59.5 24t-42.5 10q-47 0 -47 -69h-203zM455 561q0 -109 46 -177.5t122 -68.5q75 0 120 68t45 178q0 113 -45 180.5t-120 67.5q-76 0 -122 -67.5t-46 -180.5z" />
<glyph unicode="&#xf6;" horiz-adv-x="1245" d="M49 561q0 174 72 306t202 205t302 73q170 0 299 -73t200.5 -205t71.5 -306q0 -172 -71.5 -304t-200.5 -204.5t-299 -72.5q-172 0 -302 72.5t-202 204.5t-72 304zM131 1442q0 98 62.5 161.5t159.5 63.5q96 0 158.5 -63.5t62.5 -161.5q0 -96 -62.5 -159.5t-158.5 -63.5 q-97 0 -159.5 63.5t-62.5 159.5zM455 561q0 -109 46 -177.5t122 -68.5q75 0 120 68t45 178q0 113 -45 180.5t-120 67.5q-76 0 -122 -67.5t-46 -180.5zM676 1442q0 98 62.5 161.5t160.5 63.5q96 0 157.5 -63.5t61.5 -161.5q0 -96 -62 -159.5t-157 -63.5q-98 0 -160.5 63.5 t-62.5 159.5z" />
<glyph unicode="&#xf7;" horiz-adv-x="1085" d="M59 563v322h967v-322h-967zM322 283q0 96 63.5 159.5t159.5 63.5t157.5 -63.5t61.5 -159.5q0 -98 -61.5 -162t-157.5 -64t-159.5 63.5t-63.5 162.5zM322 1171q0 96 63.5 160t159.5 64t157.5 -63.5t61.5 -160.5q0 -98 -61.5 -161.5t-157.5 -63.5t-159.5 63.5t-63.5 161.5z " />
<glyph unicode="&#xf8;" horiz-adv-x="1245" d="M49 561q0 174 72 306t202 205t302 73q170 0 297 -72l55 70l127 -84l-62 -80q74 -76 114 -182.5t40 -235.5q0 -172 -71.5 -304t-200.5 -204.5t-299 -72.5t-301 71l-56 -71l-127 88l60 77q-74 78 -113 183.5t-39 232.5zM455 561q0 -47 8 -80l237 305q-35 23 -77 23 q-76 0 -122 -67.5t-46 -180.5zM547 338q35 -23 76 -23q75 0 120 68t45 178q0 47 -8 82z" />
<glyph unicode="&#xf9;" horiz-adv-x="1198" d="M88 387v737h393v-680q0 -57 31 -93t82 -36t82 36t31 93v680h393v-1124h-377l-6 100q-55 -59 -125 -89.5t-139 -30.5q-164 0 -264.5 111.5t-100.5 295.5zM125 1616h450l262 -352h-329z" />
<glyph unicode="&#xfa;" horiz-adv-x="1198" d="M88 387v737h393v-680q0 -57 31 -93t82 -36t82 36t31 93v680h393v-1124h-377l-6 100q-55 -59 -125 -89.5t-139 -30.5q-164 0 -264.5 111.5t-100.5 295.5zM352 1264l260 352h451l-383 -352h-328z" />
<glyph unicode="&#xfb;" horiz-adv-x="1198" d="M88 387v737h393v-680q0 -57 31 -93t82 -36t82 36t31 93v680h393v-1124h-377l-6 100q-55 -59 -125 -89.5t-139 -30.5q-164 0 -264.5 111.5t-100.5 295.5zM166 1264l246 352h362l246 -352h-340l-86 120l-88 -120h-340z" />
<glyph unicode="&#xfc;" horiz-adv-x="1198" d="M88 387v737h393v-680q0 -57 31 -93t82 -36t82 36t31 93v680h393v-1124h-377l-6 100q-55 -59 -125 -89.5t-139 -30.5q-164 0 -264.5 111.5t-100.5 295.5zM100 1442q0 98 62.5 161.5t159.5 63.5q96 0 158.5 -63.5t62.5 -161.5q0 -96 -62.5 -159.5t-158.5 -63.5 q-97 0 -159.5 63.5t-62.5 159.5zM645 1442q0 98 62.5 161.5t160.5 63.5q96 0 157.5 -63.5t61.5 -161.5q0 -96 -62 -159.5t-157 -63.5q-98 0 -160.5 63.5t-62.5 159.5z" />
<glyph unicode="&#xfd;" horiz-adv-x="1187" d="M0 1124h428l182 -667l156 667h428l-410 -1175q-74 -213 -178 -316.5t-282 -103.5q-109 0 -183 37l37 315q37 -16 80 -16q53 0 86 32.5t55 98.5l13 37zM361 1264l260 352h451l-383 -352h-328z" />
<glyph unicode="&#xfe;" horiz-adv-x="1286" d="M98 -451v2048h394v-569q98 117 258 117q131 0 242.5 -73t177 -204t65.5 -301t-65.5 -304t-177 -208.5t-242.5 -74.5q-158 0 -258 116v-547h-394zM492 561q0 -109 47 -177.5t123 -68.5q75 0 121 69t46 179q0 109 -46 177.5t-121 68.5q-78 0 -124 -67.5t-46 -180.5z" />
<glyph unicode="&#xff;" horiz-adv-x="1187" d="M0 1124h428l182 -667l156 667h428l-410 -1175q-74 -213 -178 -316.5t-282 -103.5q-109 0 -183 37l37 315q37 -16 80 -16q53 0 86 32.5t55 98.5l13 37zM108 1442q0 98 62.5 161.5t159.5 63.5q96 0 158.5 -63.5t62.5 -161.5q0 -96 -62.5 -159.5t-158.5 -63.5 q-97 0 -159.5 63.5t-62.5 159.5zM653 1442q0 98 62.5 161.5t160.5 63.5q96 0 157.5 -63.5t61.5 -161.5q0 -96 -62 -159.5t-157 -63.5q-98 0 -160.5 63.5t-62.5 159.5z" />
<glyph unicode="&#x152;" horiz-adv-x="2293" d="M61 758q0 231 91.5 407t256 273.5t382.5 97.5q217 0 380 -106v86h1031v-334h-627v-250h553v-334h-553v-264h639v-334h-1043v86q-164 -106 -380 -106q-217 0 -382 97t-256.5 273t-91.5 408zM479 758q0 -131 43 -232.5t121 -157t178 -55.5q101 0 176.5 55.5t118.5 157 t43 232.5t-43 232.5t-118.5 156.5t-176.5 55q-100 0 -178 -55t-121 -156.5t-43 -232.5z" />
<glyph unicode="&#x153;" horiz-adv-x="1916" d="M51 561q0 174 67.5 306t191.5 205t286 73q125 0 226.5 -48t170.5 -139q63 90 157.5 138.5t209.5 48.5q152 0 266.5 -70.5t178 -198.5t63.5 -296q0 -97 -8 -156h-656q10 -70 42 -103.5t100 -33.5q94 0 151 84l305 -148q-59 -111 -170.5 -177t-251.5 -66q-121 0 -221 48 t-168 136q-68 -88 -169 -136t-226 -48q-162 0 -286 72.5t-191.5 204.5t-67.5 304zM457 561q0 -109 46 -177.5t122 -68.5q75 0 120.5 68t45.5 178q0 113 -45.5 180.5t-120.5 67.5q-76 0 -122 -67.5t-46 -180.5zM1206 686h254q-10 76 -42 114t-89 38q-53 0 -82.5 -38 t-40.5 -114z" />
<glyph unicode="&#x178;" horiz-adv-x="1355" d="M8 1516h430l242 -648l238 648h430l-467 -1006v-510h-406v510zM186 1833q0 98 62.5 161.5t159.5 63.5q96 0 158.5 -63.5t62.5 -161.5q0 -96 -62.5 -159.5t-158.5 -63.5q-97 0 -159.5 63.5t-62.5 159.5zM731 1833q0 98 62.5 161.5t160.5 63.5q96 0 157.5 -63.5t61.5 -161.5 q0 -96 -62 -159.5t-157 -63.5q-98 0 -160.5 63.5t-62.5 159.5z" />
<glyph unicode="&#x2c6;" horiz-adv-x="1228" d="M47 1264l246 352h362l246 -352h-340l-86 120l-88 -120h-340z" />
<glyph unicode="&#x2dc;" horiz-adv-x="1228" d="M22 1272q0 156 65.5 250t176.5 94q41 0 81 -11.5t73.5 -24.5t43.5 -17q70 -33 99 -33q25 0 36 15.5t11 49.5h203q0 -164 -65 -254t-177 -90q-41 0 -85 14.5t-110 41.5q-31 14 -59.5 24t-42.5 10q-47 0 -47 -69h-203z" />
<glyph unicode="&#x2000;" horiz-adv-x="1029" />
<glyph unicode="&#x2001;" horiz-adv-x="2058" />
<glyph unicode="&#x2002;" horiz-adv-x="1029" />
<glyph unicode="&#x2003;" horiz-adv-x="2058" />
<glyph unicode="&#x2004;" horiz-adv-x="686" />
<glyph unicode="&#x2005;" horiz-adv-x="514" />
<glyph unicode="&#x2006;" horiz-adv-x="343" />
<glyph unicode="&#x2007;" horiz-adv-x="343" />
<glyph unicode="&#x2008;" horiz-adv-x="257" />
<glyph unicode="&#x2009;" horiz-adv-x="411" />
<glyph unicode="&#x200a;" horiz-adv-x="114" />
<glyph unicode="&#x2010;" horiz-adv-x="980" d="M96 459v278h789v-278h-789z" />
<glyph unicode="&#x2011;" horiz-adv-x="980" d="M96 459v278h789v-278h-789z" />
<glyph unicode="&#x2012;" horiz-adv-x="980" d="M96 459v278h789v-278h-789z" />
<glyph unicode="&#x2013;" horiz-adv-x="1239" d="M96 459v278h1045v-278h-1045z" />
<glyph unicode="&#x2014;" horiz-adv-x="1961" d="M96 459v278h1770v-278h-1770z" />
<glyph unicode="&#x2018;" horiz-adv-x="622" d="M53 922l172 594h355l-117 -594h-410z" />
<glyph unicode="&#x2019;" horiz-adv-x="612" d="M63 922l117 594h410l-172 -594h-355z" />
<glyph unicode="&#x201a;" horiz-adv-x="618" d="M18 -246l117 594h410l-172 -594h-355z" />
<glyph unicode="&#x201c;" horiz-adv-x="1155" d="M53 924l172 594h355l-119 -594h-408zM586 924l172 594h354l-119 -594h-407z" />
<glyph unicode="&#x201d;" horiz-adv-x="1148" d="M63 920l117 593h410l-172 -593h-355zM596 920l117 593h409l-172 -593h-354z" />
<glyph unicode="&#x201e;" horiz-adv-x="1153" d="M18 -246l117 594h410l-172 -594h-355zM551 -246l117 594h409l-172 -594h-354z" />
<glyph unicode="&#x2022;" horiz-adv-x="800" d="M111 610q0 137 79.5 220t210.5 83t210 -82.5t79 -220.5q0 -133 -79 -216t-210 -83t-210.5 83t-79.5 216z" />
<glyph unicode="&#x2026;" horiz-adv-x="1785" d="M59 225q0 100 72 171t170 71q100 0 171 -70.5t71 -171.5q0 -102 -71 -173.5t-171 -71.5q-65 0 -120.5 32.5t-88.5 90t-33 122.5zM653 225q0 100 71 171t171 71q98 0 169 -70.5t71 -171.5q0 -100 -71 -172.5t-169 -72.5q-100 0 -171 71.5t-71 173.5zM1243 225 q0 100 71.5 171t170.5 71q100 0 170.5 -70.5t70.5 -171.5q0 -102 -70.5 -173.5t-170.5 -71.5q-66 0 -121 32.5t-88 90t-33 122.5z" />
<glyph unicode="&#x202f;" horiz-adv-x="411" />
<glyph unicode="&#x2039;" horiz-adv-x="851" d="M45 553l340 479h418l-328 -479l328 -479h-418z" />
<glyph unicode="&#x203a;" horiz-adv-x="854" d="M51 74l328 479l-328 479h418l340 -479l-340 -479h-418z" />
<glyph unicode="&#x205f;" horiz-adv-x="514" />
<glyph unicode="&#x20ac;" horiz-adv-x="1622" d="M78 469v244h115q-2 16 -3 51v27h-112v245h151q72 233 263.5 366.5t459.5 133.5q360 0 566 -242l-254 -260q-41 78 -125 123t-185 45q-90 0 -162.5 -43t-117.5 -123h301v-245h-367v-31q0 -31 2 -47h365v-244h-291q47 -74 120 -115t163 -41q117 0 193.5 55.5t135.5 168.5 l271 -244q-211 -313 -611 -313q-262 0 -451.5 131t-266.5 358h-160z" />
<glyph unicode="&#x2122;" horiz-adv-x="1392" d="M68 1432v165h493v-165h-145v-420h-199v420h-149zM592 1012l45 585h213l94 -290l90 290h215l47 -585h-198l-17 274l-102 -274h-68l-106 278l-14 -278h-199z" />
<glyph unicode="&#x25fc;" horiz-adv-x="1126" d="M0 0v1126h1126v-1126h-1126z" />
</font>
</defs>
</svg>
