<?xml version="1.0" standalone="no"?>
<!DOCTYPE svg PUBLIC "-//W3C//DTD SVG 1.1//EN" "http://www.w3.org/Graphics/SVG/1.1/DTD/svg11.dtd" >
<svg xmlns="http://www.w3.org/2000/svg" xmlns:xlink="http://www.w3.org/1999/xlink" version="1.1">
<metadata></metadata>
<defs>
<font id="bwmodelica-mediumuploadedfile" horiz-adv-x="1576" >
<font-face units-per-em="2048" ascent="1587" descent="-461" />
<missing-glyph horiz-adv-x="468" />
<glyph unicode="&#xfb01;" horiz-adv-x="1204" d="M45 926v166h164v221q0 137 84 221t219 84q133 0 211 -43l-14 -158q-55 29 -134 29q-75 0 -120 -45t-45 -119v-190h290v-166h-290v-926h-201v926h-164zM840 1452q0 55 35.5 91t89.5 36q53 0 87.5 -36t34.5 -91q0 -53 -34.5 -89t-87.5 -36q-54 0 -89.5 36t-35.5 89zM864 0 v1092h201v-1092h-201z" />
<glyph unicode="&#xfb02;" horiz-adv-x="1206" d="M45 926v166h164v221q0 137 84 221t219 84q133 0 211 -43l-14 -158q-55 29 -134 29q-75 0 -120 -45t-45 -119v-190h290v-166h-290v-926h-201v926h-164zM866 0v1597h201v-1597h-201z" />
<glyph horiz-adv-x="0" />
<glyph unicode="&#xd;" horiz-adv-x="401" />
<glyph unicode=" "  horiz-adv-x="468" />
<glyph unicode="&#x09;" horiz-adv-x="468" />
<glyph unicode="&#xa0;" horiz-adv-x="468" />
<glyph unicode="!" horiz-adv-x="509" d="M131 106q0 53 36 89t89 36t88 -35.5t35 -89.5q0 -53 -35 -89.5t-88 -36.5t-89 36.5t-36 89.5zM150 1516h210l-18 -1137h-174z" />
<glyph unicode="&#x22;" horiz-adv-x="694" d="M115 1597h164l-7 -442h-153zM418 1597h164l-4 -442h-156z" />
<glyph unicode="#" horiz-adv-x="1325" d="M63 399l33 136h219l76 356h-225l31 135h221l86 408h147l-86 -408h320l86 408h147l-84 -408h228l-31 -135h-225l-74 -356h229l-33 -136h-225l-82 -399h-149l84 399h-320l-84 -399h-147l84 399h-226zM463 535h319l76 356h-319z" />
<glyph unicode="$" horiz-adv-x="1175" d="M98 1102q0 172 104.5 285.5t282.5 140.5v170h205v-170q197 -27 342 -166l-94 -148q-147 147 -346 148q-125 0 -201 -62.5t-76 -164.5q0 -98 67 -152.5t191 -95.5l86 -29q195 -68 313 -168t118 -282q0 -168 -110 -281t-296 -141v-170h-203v170q-233 29 -368 176l80 143 q152 -152 368 -151q143 0 227 63.5t84 169.5q0 104 -79.5 167.5t-235.5 115.5l-84 26q-180 59 -277.5 150.5t-97.5 255.5z" />
<glyph unicode="%" horiz-adv-x="1517" d="M63 1194q0 154 91.5 248t238.5 94t237.5 -94t90.5 -248q0 -156 -90 -250t-238 -94q-147 0 -238.5 94t-91.5 250zM229 1194q0 -94 45 -152.5t119 -58.5q72 0 118 58.5t46 152.5t-45 151.5t-119 57.5t-119 -57.5t-45 -151.5zM346 33l717 1501l106 -51l-716 -1501zM797 322 q0 156 91 250t238 94t237.5 -94.5t90.5 -249.5q0 -154 -90 -248t-238 -94q-147 0 -238 94t-91 248zM961 322q0 -94 45 -151.5t120 -57.5q72 0 117 57t45 152q0 96 -45 153t-117 57q-76 0 -120.5 -57t-44.5 -153z" />
<glyph unicode="&#x26;" horiz-adv-x="1433" d="M90 412q0 143 71.5 248.5t200.5 156.5q-96 47 -149 135t-53 201t53 200t151.5 135t227.5 48q125 0 221 -48t149.5 -134t53.5 -199v-262h317v-160h-317v-420q0 -72 42 -116.5t109 -44.5q95 -1 181 38v-163q-100 -47 -246 -47q-90 0 -156.5 39.5t-99.5 111.5 q-61 -74 -149.5 -112.5t-190.5 -38.5q-123 0 -217 54t-146.5 152.5t-52.5 225.5zM299 442q0 -131 70.5 -210.5t187.5 -79.5q109 0 183.5 66.5t74.5 193.5v321h-223q-131 0 -212 -80t-81 -211zM369 1130q0 -106 61.5 -171.5t161.5 -65.5h223v254q0 98 -61.5 157.5 t-161.5 59.5t-161.5 -64.5t-61.5 -169.5z" />
<glyph unicode="'" horiz-adv-x="391" d="M115 1597h164l-7 -442h-153z" />
<glyph unicode="(" horiz-adv-x="585" d="M86 614q0 299 82 547t190 436h187q-98 -190 -173 -425.5t-75 -557.5t74.5 -557t173.5 -426h-187q-108 189 -190 436.5t-82 546.5z" />
<glyph unicode=")" horiz-adv-x="585" d="M41 -369q100 193 175 427.5t75 555.5q0 322 -75 556.5t-175 426.5h186q109 -188 191 -436t82 -547t-82 -546.5t-191 -436.5h-186z" />
<glyph unicode="*" horiz-adv-x="724" d="M96 1253l39 127l166 -65l-4 201h131l-6 -201l166 65l41 -127l-174 -55l112 -162l-104 -78l-101 160l-100 -160l-106 78l112 162z" />
<glyph unicode="+" horiz-adv-x="1007" d="M84 631v166h319v360h201v-360h320v-166h-320v-363h-201v363h-319z" />
<glyph unicode="," horiz-adv-x="487" d="M18 -297l129 504h234l-160 -504h-203z" />
<glyph unicode="-" horiz-adv-x="849" d="M121 518v146h606v-146h-606z" />
<glyph unicode="." horiz-adv-x="466" d="M96 119q0 57 40 98t97 41t97.5 -41t40.5 -98t-40 -98t-98 -41q-57 0 -97 40.5t-40 98.5z" />
<glyph unicode="/" horiz-adv-x="788" d="M74 -205l440 1802h203l-441 -1802h-202z" />
<glyph unicode="0" horiz-adv-x="1171" d="M82 758q0 231 63.5 407t177 273.5t263.5 97.5t264.5 -97.5t177 -273.5t62.5 -407t-62.5 -407.5t-177.5 -273.5t-264 -97q-150 0 -263.5 97t-177 273t-63.5 408zM299 758q0 -180 36 -316.5t100.5 -212t150.5 -75.5t150.5 75.5t100 212t35.5 316.5t-35.5 316t-100 212 t-150.5 76t-150.5 -76t-100.5 -212t-36 -316z" />
<glyph unicode="1" horiz-adv-x="798" d="M16 1147l451 369h162v-1516h-211v1231l-297 -236z" />
<glyph unicode="2" horiz-adv-x="1069" d="M80 0v133l418 502q12 14 88 106.5t122 193.5t46 189q0 109 -60.5 173.5t-161.5 64.5q-104 0 -166.5 -72.5t-62.5 -191.5l-209 16q0 125 54.5 221.5t152.5 148.5t227 52q197 0 316 -108.5t119 -290.5q0 -109 -43 -212.5t-109 -193.5t-176 -219l-289 -342l633 4v-174h-899z " />
<glyph unicode="3" horiz-adv-x="1058" d="M66 141l79 148q51 -66 129 -100.5t175 -34.5q143 0 228 80.5t85 214.5q0 129 -83 205.5t-218 76.5q-109 0 -193 -51l-55 106l438 555h-528v175h790v-132l-411 -495q12 2 39 2q129 0 227 -55.5t152.5 -155.5t54.5 -229q0 -141 -61.5 -248t-175 -165t-267.5 -58 q-127 0 -235.5 41.5t-169.5 119.5z" />
<glyph unicode="4" horiz-adv-x="1159" d="M41 313v150l692 1053h166v-1029h197v-174h-197v-313h-209v313h-649zM272 483h424l2 650z" />
<glyph unicode="5" horiz-adv-x="1073" d="M57 119l62 153q59 -59 142 -88.5t179 -29.5q150 0 242 87t92 228q0 131 -72.5 210t-191.5 79q-125 0 -225 -56l-131 21l92 793h678v-175h-504l-60 -438q92 29 195 29q127 0 225.5 -56.5t153.5 -158t55 -234.5q0 -150 -66.5 -264.5t-187.5 -176.5t-274 -62 q-261 0 -404 139z" />
<glyph unicode="6" horiz-adv-x="1064" d="M78 453q0 111 29.5 205t91.5 190l413 668h236l-397 -611q55 14 131 15q118 0 213.5 -58.5t150.5 -163t55 -241.5q0 -141 -57 -250t-161.5 -168t-241.5 -59t-242.5 59t-163 166.5t-57.5 247.5zM287 455q0 -135 69.5 -218t182.5 -83q112 0 182 82.5t70 218.5q0 137 -70 221 t-182 84q-113 0 -182.5 -84t-69.5 -221z" />
<glyph unicode="7" horiz-adv-x="970" d="M41 1341v175h899l-473 -1516h-221l426 1341h-631z" />
<glyph unicode="8" horiz-adv-x="1116" d="M96 408q0 133 63.5 231t178.5 147q-98 47 -151.5 136.5t-53.5 205.5q0 184 117 296t309 112q125 0 222.5 -50t150.5 -142.5t53 -210.5q0 -117 -54 -206t-151 -139q113 -49 177.5 -147t64.5 -229q0 -127 -58.5 -225.5t-163 -152.5t-241.5 -54t-242.5 53t-163 150.5 t-57.5 224.5zM305 426q0 -123 69.5 -197.5t184.5 -74.5q113 0 182.5 74.5t69.5 197.5q0 121 -69.5 195.5t-182.5 74.5q-115 0 -184.5 -74.5t-69.5 -195.5zM340 1116q0 -111 59.5 -177.5t159.5 -66.5q98 0 157.5 67t59.5 177q0 111 -59.5 178.5t-157.5 67.5 q-100 0 -159.5 -67.5t-59.5 -178.5z" />
<glyph unicode="9" horiz-adv-x="1064" d="M61 1059q0 141 57.5 249.5t162 168t241.5 59.5t242.5 -59.5t163 -167t57.5 -246.5q0 -111 -29.5 -205t-91.5 -190l-413 -668h-236l397 610q-55 -14 -131 -14q-119 0 -214 58.5t-150.5 163t-55.5 241.5zM272 1061q0 -137 70 -221t182 -84q113 0 182.5 84t69.5 221 q0 135 -69.5 218t-182.5 83t-182.5 -83t-69.5 -218z" />
<glyph unicode=":" horiz-adv-x="499" d="M113 119q0 57 41 98t96 41q57 0 97 -41t40 -98t-40 -98t-97 -41q-55 0 -96 40.5t-41 98.5zM113 973q0 57 41 98t96 41q57 0 97 -41t40 -98q0 -59 -40 -100.5t-97 -41.5q-55 0 -96 42t-41 100z" />
<glyph unicode=";" horiz-adv-x="569" d="M70 -297l127 504h233l-158 -504h-202zM158 973q0 57 41 98t96 41q57 0 97 -41t40 -98q0 -59 -40 -100.5t-97 -41.5q-55 0 -96 42t-41 100z" />
<glyph unicode="&#x3c;" horiz-adv-x="1021" d="M68 653v127l825 434v-190l-578 -307l578 -307v-191z" />
<glyph unicode="=" horiz-adv-x="1093" d="M127 397v166h840v-166h-840zM127 862v166h840v-166h-840z" />
<glyph unicode="&#x3e;" horiz-adv-x="1021" d="M129 219v191l578 307l-578 307v190l825 -434v-127z" />
<glyph unicode="?" horiz-adv-x="991" d="M61 1145q8 176 124 283.5t298 107.5q131 0 230.5 -49t155 -138t55.5 -204q0 -78 -21.5 -135.5t-53.5 -96.5t-89 -94q-61 -57 -100 -107t-66 -132t-27 -201h-174q0 153 29 254.5t71 161t103 116.5q59 57 87 104.5t28 121.5q0 102 -62.5 163.5t-165.5 61.5 q-98 0 -162.5 -62.5t-68.5 -162.5zM356 106q0 53 36 89t89 36t88 -35.5t35 -89.5q0 -53 -34.5 -89.5t-88.5 -36.5q-53 0 -89 36.5t-36 89.5z" />
<glyph unicode="@" horiz-adv-x="2029" d="M86 530q0 301 118 529.5t335 353.5t503 125q264 0 466 -107.5t313.5 -305t111.5 -457.5q0 -172 -49 -305.5t-138 -208t-206 -74.5q-98 0 -172 53t-106 146q-43 -94 -122 -147.5t-186 -53.5q-113 0 -200.5 57.5t-137 160.5t-49.5 236q0 135 50.5 240t137.5 162t195 57 q172 0 264 -151l5 135h192v-553q0 -76 34 -122t91 -46q88 0 142.5 111.5t54.5 287.5q0 215 -87 376t-244 249t-360 88q-225 0 -394 -104.5t-261 -294t-92 -439.5q0 -248 91 -435t260 -289.5t396 -102.5q106 0 251 20.5t251 53.5l60 -156q-119 -41 -277 -65.5t-291 -24.5 q-289 0 -504 125t-330.5 351t-115.5 525zM774 535q0 -129 59.5 -207t159.5 -78q99 0 158 79t59 206t-59 205.5t-158 78.5q-100 0 -159.5 -77.5t-59.5 -206.5z" />
<glyph unicode="A" horiz-adv-x="1372" d="M0 0l588 1516h196l588 -1516h-223l-131 358h-664l-131 -358h-223zM420 532h532l-266 728z" />
<glyph unicode="B" horiz-adv-x="1286" d="M172 0v1516h547q186 0 301 -106.5t115 -283.5q0 -111 -54.5 -194.5t-154.5 -132.5q129 -41 202.5 -139.5t73.5 -231.5q0 -127 -57.5 -224.5t-162.5 -150.5t-245 -53h-565zM381 174h334q123 0 197.5 70.5t74.5 189.5q0 115 -74.5 185.5t-195.5 70.5h-336v-516zM381 866 h283q115 0 184.5 64.5t69.5 173.5q0 106 -71 171.5t-185 65.5h-281v-475z" />
<glyph unicode="C" horiz-adv-x="1406" d="M86 762q0 229 89 405t249 272.5t371 96.5q322 0 528 -246l-131 -133q-68 94 -169 149.5t-224 55.5q-147 0 -260 -75t-174.5 -211t-61.5 -314q0 -180 61.5 -318.5t174 -214t260.5 -75.5q139 0 245.5 66.5t178.5 187.5l141 -129q-98 -143 -242.5 -221t-324.5 -78 q-211 0 -372 97t-250 275t-89 410z" />
<glyph unicode="D" horiz-adv-x="1433" d="M172 0v1516h494q202 0 356 -94.5t239 -267.5t85 -398q0 -223 -85 -395.5t-240 -266.5t-355 -94h-494zM381 174h278q140 0 246.5 72.5t164.5 205t58 304.5q0 174 -58 307t-164.5 205.5t-246.5 72.5h-278v-1167z" />
<glyph unicode="E" horiz-adv-x="1179" d="M172 0v1516h891v-175h-682v-483h629v-174h-629v-510h696v-174h-905z" />
<glyph unicode="F" horiz-adv-x="1058" d="M172 0v1516h823v-175h-614v-524h537v-174h-537v-643h-209z" />
<glyph unicode="G" horiz-adv-x="1488" d="M88 758q0 231 85 407t241.5 273.5t361.5 97.5q285 0 471 -160l-137 -133q-121 119 -332 119q-141 0 -248.5 -76t-166 -212t-58.5 -316t58.5 -316.5t166 -212t248.5 -75.5q190 0 308 135t131 360h-386v174h603q2 -20 2 -65q0 -233 -81 -409.5t-230.5 -272.5t-348.5 -96 q-205 0 -360.5 97t-241.5 273t-86 408z" />
<glyph unicode="H" horiz-adv-x="1540" d="M172 0v1516h209v-658h778v658h209v-1516h-209v684h-778v-684h-209z" />
<glyph unicode="I" horiz-adv-x="555" d="M172 0v1516h209v-1516h-209z" />
<glyph unicode="J" horiz-adv-x="772" d="M10 84l58 141q69 -71 162 -71h3q78 0 122 50t44 132v1180h209v-1215q0 -145 -92 -233t-244 -88q-82 0 -148.5 26.5t-113.5 77.5z" />
<glyph unicode="K" horiz-adv-x="1280" d="M172 0v1516h209v-654h182l449 654h248l-515 -740l535 -776h-246l-467 688h-186v-688h-209z" />
<glyph unicode="L" horiz-adv-x="1030" d="M172 0v1516h209v-1342h620v-174h-829z" />
<glyph unicode="M" horiz-adv-x="1832" d="M133 0l86 1528h227l472 -1190l468 1190h228l88 -1528h-209l-55 1141l-461 -1141h-119l-461 1137l-55 -1137h-209z" />
<glyph unicode="N" d="M172 0v1516h133l895 -1125l-4 1125h209v-1516h-131l-897 1124l4 -1124h-209z" />
<glyph unicode="O" d="M86 758q0 231 88 407t248 273.5t369 97.5q207 0 365.5 -97.5t245.5 -273.5t87 -407t-87 -407.5t-246 -273.5t-365 -97q-209 0 -369 97t-248 273t-88 408zM303 758q0 -180 60.5 -316.5t171 -212t256.5 -75.5q143 0 252.5 75.5t170 212t60.5 316.5t-60.5 316t-170 212 t-252.5 76q-145 0 -256 -76t-171.5 -212t-60.5 -316z" />
<glyph unicode="P" horiz-adv-x="1220" d="M172 0v1516h518q141 0 249 -58.5t167 -166t59 -249.5q0 -145 -60.5 -255.5t-169 -171t-251.5 -60.5h-303v-555h-209zM381 729h285q131 0 207.5 84t76.5 223q0 137 -78.5 221t-205.5 84h-285v-612z" />
<glyph unicode="Q" d="M86 758q0 231 88 407t248 273.5t369 97.5q207 0 365.5 -97.5t245.5 -273.5t87 -407q0 -160 -42 -295t-122 -236l195 -227h-242l-84 102q-169 -122 -399 -122h-4q-209 0 -369 97t-248 273t-88 408zM303 758q0 -180 60.5 -316.5t171 -212t256.5 -75.5q157 0 280 96 l-240 287h228l127 -150q88 154 88 371q0 180 -60.5 316t-170 212t-252.5 76q-145 0 -256 -76t-171.5 -212t-60.5 -316z" />
<glyph unicode="R" horiz-adv-x="1320" d="M172 0v1516h530q143 0 253 -57.5t169.5 -162t59.5 -241.5q0 -147 -73 -257t-202 -163l375 -635h-244l-342 594h-16h-301v-594h-209zM381 768h285q137 0 219 79t82 208t-79 207.5t-210 78.5h-297v-573z" />
<glyph unicode="S" horiz-adv-x="1175" d="M98 1102q0 129 60.5 227t172 152.5t257.5 54.5q260 0 444 -174l-94 -148q-147 147 -346 148q-125 0 -201 -62.5t-76 -164.5q0 -98 67 -152.5t191 -95.5l86 -29q195 -68 313 -168t118 -282q0 -127 -63.5 -224.5t-179.5 -150.5t-267 -53q-142 0 -263.5 46t-203.5 136 l80 143q151 -151 365 -151h3q143 0 227 63.5t84 169.5q0 104 -79.5 167.5t-235.5 115.5l-84 26q-180 59 -277.5 150.5t-97.5 255.5z" />
<glyph unicode="T" horiz-adv-x="1114" d="M27 1341v175h1060v-175h-425v-1341h-209v1341h-426z" />
<glyph unicode="U" horiz-adv-x="1474" d="M156 502v1014h209v-1006q0 -160 103 -258t271 -98q166 0 268.5 98t102.5 258v1006h209v-1014q0 -156 -72.5 -274.5t-204 -183t-305.5 -64.5q-172 0 -304 64.5t-204.5 183t-72.5 274.5z" />
<glyph unicode="V" horiz-adv-x="1374" d="M0 1516h223l465 -1260l461 1260h223l-588 -1516h-194z" />
<glyph unicode="W" horiz-adv-x="2070" d="M10 1516h223l363 -1235l342 1235h197l342 -1235l360 1235h223l-477 -1516h-194l-353 1186l-352 -1186h-195z" />
<glyph unicode="X" horiz-adv-x="1230" d="M2 0l496 782l-459 734h242l335 -555l334 555h240l-457 -732l498 -784h-242l-373 606l-374 -606h-240z" />
<glyph unicode="Y" horiz-adv-x="1247" d="M25 1516h225l375 -738l374 738h226l-496 -924v-592h-209v592z" />
<glyph unicode="Z" horiz-adv-x="1200" d="M66 0v133l780 1208h-770v175h1042v-132l-780 -1210h799v-174h-1071z" />
<glyph unicode="[" horiz-adv-x="694" d="M160 -369v1966h483v-172h-276v-1622h276v-172h-483z" />
<glyph unicode="\" horiz-adv-x="788" d="M74 1597h202l441 -1802h-203z" />
<glyph unicode="]" horiz-adv-x="694" d="M53 -197h275v1622h-275v172h482v-1966h-482v172z" />
<glyph unicode="^" horiz-adv-x="958" d="M86 653l295 643h197l292 -643h-196l-195 428l-194 -428h-199z" />
<glyph unicode="_" horiz-adv-x="1038" d="M47 0h946v-145h-946v145z" />
<glyph unicode="`" horiz-adv-x="1228" d="M-22 1583h239l246 -315h-174z" />
<glyph unicode="a" horiz-adv-x="1046" d="M59 307q0 152 114 245t300 93q109 0 246 -31v52q0 133 -69.5 209.5t-190.5 76.5q-150 0 -248 -108l-88 123q76 72 170 108.5t215 36.5q123 0 216 -53t144.5 -149.5t51.5 -223.5v-686h-195l-4 186q-51 -98 -138 -152t-188 -54q-152 0 -244 89t-92 238zM262 311 q0 -86 49 -136t138 -50q69 0 131.5 42t100.5 122t38 186v2q-119 27 -217 27q-109 0 -174.5 -53.5t-65.5 -139.5z" />
<glyph unicode="b" horiz-adv-x="1243" d="M137 0v1597h201v-698q53 102 142 157.5t212 55.5q135 0 241.5 -71.5t168 -200.5t61.5 -297q0 -166 -61.5 -294t-168 -198.5t-241.5 -70.5q-123 0 -213 56t-143 159l-4 -195h-195zM338 545q0 -176 85 -284.5t224 -108.5t224 108.5t85 282.5q0 180 -85 288.5t-224 108.5 t-224 -108.5t-85 -286.5z" />
<glyph unicode="c" horiz-adv-x="999" d="M78 547q0 168 64.5 296t182 198.5t273.5 70.5q190 0 330 -123l-115 -137q-92 88 -213 88q-141 0 -227 -108.5t-86 -286.5q0 -176 86 -284.5t229 -108.5q152 0 242 110l114 -135q-68 -74 -162 -110.5t-204 -36.5q-154 0 -270.5 70.5t-180 199.5t-63.5 297z" />
<glyph unicode="d" horiz-adv-x="1241" d="M78 543q0 168 61.5 297t168 200.5t241.5 71.5q123 0 213 -55.5t143 -157.5v698h201v-1597h-195l-4 195q-53 -102 -143 -158.5t-215 -56.5q-135 0 -241.5 70.5t-168 198.5t-61.5 294zM287 543q0 -176 85 -283.5t224 -107.5t224 108.5t85 284.5q0 178 -85 286.5t-224 108.5 t-224 -108.5t-85 -288.5z" />
<glyph unicode="e" horiz-adv-x="1112" d="M78 543q0 170 60.5 299t169 199.5t251.5 70.5t252 -68.5t169 -193.5t60 -289q0 -43 -4 -88h-747q14 -158 83.5 -246t192.5 -88q84 0 153.5 43t121.5 119l153 -82q-68 -115 -178 -177t-246 -62q-145 0 -256.5 70.5t-173 197.5t-61.5 295zM289 612h542q-10 160 -80.5 250 t-191.5 90q-117 0 -187.5 -90t-82.5 -250z" />
<glyph unicode="f" horiz-adv-x="724" d="M45 926v166h164v221q0 137 84 221t219 84q133 0 211 -43l-14 -158q-55 29 -134 29q-75 0 -120 -45t-45 -119v-190h290v-166h-290v-926h-201v926h-164z" />
<glyph unicode="g" horiz-adv-x="1241" d="M80 549q0 166 61.5 294t168 198.5t241.5 70.5q125 0 214 -56.5t142 -158.5l6 195h193v-1029q0 -160 -70.5 -280.5t-198.5 -187t-296 -66.5q-270 0 -437 141l46 158q168 -127 387 -127q166 0 267 101.5t101 267.5v120q-53 -100 -142 -155t-212 -55q-135 0 -241.5 71.5 t-168 200.5t-61.5 297zM287 547q0 -178 85 -286.5t224 -108.5t224 108.5t85 284.5q0 178 -85 286.5t-224 108.5t-224 -108.5t-85 -284.5z" />
<glyph unicode="h" horiz-adv-x="1193" d="M137 0v1597h201v-651q53 80 139 123t193 43q180 0 288.5 -107.5t108.5 -285.5v-719h-201v684q0 115 -72.5 185.5t-191.5 70.5t-191.5 -70.5t-72.5 -185.5v-684h-201z" />
<glyph unicode="i" horiz-adv-x="479" d="M115 1452q0 55 35.5 91t89.5 36q53 0 87.5 -36t34.5 -91q0 -53 -34.5 -89t-87.5 -36q-54 0 -89.5 36t-35.5 89zM139 0v1092h201v-1092h-201z" />
<glyph unicode="j" horiz-adv-x="489" d="M-129 -438l14 159q47 -20 111 -20q68 0 111 47t43 127v1217h200v-1264q0 -135 -82 -217t-215 -82q-114 0 -182 33zM123 1452q0 55 36 91t89 36t88 -36t35 -91q0 -53 -35 -89t-88 -36t-89 36t-36 89z" />
<glyph unicode="k" horiz-adv-x="1089" d="M137 0v1597h201v-940h154l335 435h246l-416 -517l439 -575h-246l-358 489h-154v-489h-201z" />
<glyph unicode="l" horiz-adv-x="481" d="M141 0v1597h201v-1597h-201z" />
<glyph unicode="m" horiz-adv-x="1802" d="M137 0v1092h195l2 -140q51 78 130 119t177 41q104 0 186 -46t129 -130q51 84 135.5 130t190.5 46q178 0 286.5 -107.5t108.5 -285.5v-719h-200v684q0 115 -64.5 185.5t-171.5 70.5q-106 0 -169.5 -70.5t-63.5 -185.5v-684h-201v684q0 115 -64.5 185.5t-171.5 70.5 q-104 0 -168.5 -70.5t-64.5 -185.5v-684h-201z" />
<glyph unicode="n" horiz-adv-x="1193" d="M137 0v1092h195l4 -150q51 82 138 126t196 44q180 0 288.5 -107.5t108.5 -285.5v-719h-201v684q0 115 -72.5 185.5t-191.5 70.5t-191.5 -70.5t-72.5 -185.5v-684h-201z" />
<glyph unicode="o" horiz-adv-x="1189" d="M78 545q0 168 64.5 297t182 199.5t271.5 70.5t270.5 -70.5t181 -199.5t64.5 -297t-64.5 -296t-181 -198.5t-270.5 -70.5t-271.5 70.5t-182 198.5t-64.5 296zM287 545q0 -176 85 -284.5t224 -108.5q137 0 222 108.5t85 284.5q0 178 -84 286.5t-223 108.5t-224 -108.5 t-85 -286.5z" />
<glyph unicode="p" horiz-adv-x="1243" d="M137 -451v1543h195l4 -195q53 102 143 158.5t213 56.5q135 0 241.5 -70.5t168 -198.5t61.5 -294q0 -168 -61.5 -297t-168 -200.5t-241.5 -71.5q-123 0 -212 55t-142 155v-641h-201zM338 545q0 -176 85 -284.5t224 -108.5t224 108.5t85 286.5q0 176 -85 284.5t-224 108.5 t-224 -108.5t-85 -286.5z" />
<glyph unicode="q" horiz-adv-x="1241" d="M78 549q0 166 61.5 294t168 198.5t241.5 70.5q125 0 215 -56.5t143 -158.5l4 195h195v-1543h-201v644q-53 -102 -143 -157.5t-213 -55.5q-135 0 -241.5 71.5t-168 200.5t-61.5 297zM287 547q0 -178 85 -286.5t224 -108.5t224 108.5t85 284.5q0 178 -85 286.5t-224 108.5 t-224 -108.5t-85 -284.5z" />
<glyph unicode="r" horiz-adv-x="722" d="M137 0v1092h195l4 -158q55 88 150.5 133t222.5 45l-15 -184q-166 0 -261 -85t-95 -229v-614h-201z" />
<glyph unicode="s" horiz-adv-x="921" d="M86 100l80 125q113 -88 274 -88q86 0 140.5 43t54.5 113q0 113 -184 170l-93 29q-135 43 -203.5 106.5t-68.5 179.5q0 152 101.5 243t269.5 91q215 0 356 -102l-84 -133q-114 75 -246 75h-4q-86 0 -137 -39t-51 -104q0 -59 42 -95t122 -61l90 -30q137 -43 216 -116 t79 -200q0 -147 -107.5 -237t-286.5 -90q-110 0 -203 30.5t-157 89.5z" />
<glyph unicode="t" horiz-adv-x="765" d="M33 926v166h166v321h200v-321h318v-166h-318v-617q0 -70 42 -113.5t110 -43.5h5q97 0 177 36v-163q-104 -45 -246 -45q-129 0 -208.5 79.5t-79.5 210.5v656h-166z" />
<glyph unicode="u" horiz-adv-x="1161" d="M125 371v721h201v-684q0 -115 68.5 -185.5t180.5 -70.5q113 0 180.5 70.5t67.5 185.5v684h201v-1092h-193l-4 145q-51 -80 -133 -122.5t-186 -42.5q-172 0 -277.5 107.5t-105.5 283.5z" />
<glyph unicode="v" horiz-adv-x="1083" d="M16 1092h220l307 -863l305 863h221l-426 -1092h-201z" />
<glyph unicode="w" horiz-adv-x="1689" d="M20 1092h220l266 -863l256 863h168l256 -863l264 863h221l-371 -1092h-202l-252 827l-254 -827h-201z" />
<glyph unicode="x" horiz-adv-x="1044" d="M14 0l389 559l-366 533h237l250 -379l248 379h236l-367 -533l389 -559h-235l-271 408l-272 -408h-238z" />
<glyph unicode="y" horiz-adv-x="1083" d="M18 1092h222l313 -856l299 856h219l-493 -1268q-55 -150 -125 -222.5t-191 -72.5q-78 0 -135 27l20 163q35 -18 82 -18q57 0 89 36t63 111l70 170z" />
<glyph unicode="z" horiz-adv-x="978" d="M70 0v131l555 795h-545v166h813v-131l-553 -795h575v-166h-845z" />
<glyph unicode="{" horiz-adv-x="749" d="M57 526v176h15q66 0 104.5 56.5t38.5 150.5v402q0 139 78 223t205 84q109 0 198 -25v-166q-61 16 -127 17q-66 0 -105.5 -52.5t-39.5 -138.5v-368q0 -100 -42 -175t-110 -96q68 -20 110 -94t42 -176v-369q0 -86 40 -138t105 -52q66 0 127 16v-166q-88 -25 -198 -24 q-127 0 -205 84t-78 223v401q0 94 -39 150.5t-104 56.5h-15z" />
<glyph unicode="|" horiz-adv-x="530" d="M162 -451v2048h209v-2048h-209z" />
<glyph unicode="}" horiz-adv-x="749" d="M53 -199q61 -16 127 -16t106 52t40 138v369q0 102 42 176t109 94q-68 20 -109.5 95t-41.5 176v368q0 86 -40 138.5t-106 52.5t-127 -17v166q92 25 199 25q127 0 205 -84t78 -223v-402q0 -94 39.5 -150.5t105.5 -56.5h12v-176h-12q-66 0 -105.5 -56t-39.5 -151v-401 q0 -139 -78 -223t-205 -84q-107 -1 -199 24v166z" />
<glyph unicode="~" horiz-adv-x="1087" d="M131 485q0 119 64.5 192t169.5 73q55 0 102 -19.5t108 -56.5q8 -4 41 -21.5t59.5 -27t49.5 -9.5q55 0 89 30t34 83h113q0 -123 -65 -193.5t-169 -70.5q-51 0 -99 19.5t-112 56.5q-53 31 -86 45t-63 14q-55 0 -89 -31.5t-34 -83.5h-113z" />
<glyph unicode="&#xa1;" horiz-adv-x="485" d="M119 987q0 53 35.5 89t89.5 36q53 0 88 -36t35 -89q0 -55 -35 -91t-88 -36q-54 0 -89.5 36t-35.5 91zM137 -451l19 1164h174l18 -1164h-211z" />
<glyph unicode="&#xa2;" horiz-adv-x="1058" d="M78 649q0 227 116.5 378t313.5 181v170h182v-172q131 -20 238 -114l-115 -138q-92 88 -213 88q-141 0 -227 -108.5t-86 -286.5q0 -176 86 -284.5t229 -108.5q152 0 242 111l114 -136q-108 -114 -268 -139v-172h-182v170q-197 29 -313.5 180.5t-116.5 380.5z" />
<glyph unicode="&#xa3;" horiz-adv-x="1118" d="M94 0v166h121v471h-102v168h102v371q0 162 109.5 261t287.5 99q176 0 285 -99.5t109 -262.5l-201 -17q0 92 -53.5 148.5t-139.5 56.5q-84 0 -137 -55.5t-53 -143.5v-358h520v-168h-520v-469h594v-168h-922z" />
<glyph unicode="&#xa4;" horiz-adv-x="1157" d="M113 319l116 127q-72 117 -71 259q0 141 71 258l-116 124l123 123l112 -123q102 74 230 74q129 0 231 -74l113 121l122 -123l-118 -124q72 -117 71 -256q1 -137 -69 -256l116 -127l-122 -123l-113 123q-100 -76 -231 -76q-127 0 -230 73l-112 -122zM322 705 q0 -84 34.5 -155t94 -113t127.5 -42q69 0 127.5 42t93.5 113t35 155q0 82 -35 152.5t-93.5 112.5t-127.5 42q-68 0 -127.5 -42t-94 -113t-34.5 -152z" />
<glyph unicode="&#xa5;" horiz-adv-x="1306" d="M53 1516h226l374 -738l375 738h225l-432 -807h232v-134h-295v-112h295v-133h-295v-330h-209v330h-297v133h297v112h-297v134h233z" />
<glyph unicode="&#xa6;" horiz-adv-x="524" d="M158 369h209v-820h-209v820zM158 778v819h209v-819h-209z" />
<glyph unicode="&#xa7;" horiz-adv-x="1110" d="M100 651q0 164 95 281q-94 94 -95 252q0 129 56.5 227t160 152.5t236.5 54.5q236 0 410 -174l-95 -148q-133 147 -307 148q-111 0 -176.5 -62.5t-65.5 -164.5q0 -100 57.5 -151.5t172.5 -96.5l76 -29q178 -70 284.5 -169t106.5 -282q0 -157 -94 -272q94 -104 94 -260 q0 -127 -58.5 -224.5t-166 -150.5t-246.5 -53q-127 0 -239.5 46t-190.5 136l78 139q139 -147 333 -147q125 0 199 62.5t74 171.5q0 104 -68.5 165.5t-206.5 112.5l-73 29q-113 43 -187 90t-119 125t-45 192zM305 684q0 -74 31 -122t81 -77.5t132 -62.5l76 -27 q88 -33 145 -65q43 63 43 141q0 109 -71.5 173.5t-217.5 117.5l-73 26q-59 20 -101 39q-45 -57 -45 -143z" />
<glyph unicode="&#xa8;" horiz-adv-x="1228" d="M107 1452q0 55 35.5 91t89.5 36q53 0 88 -36t35 -91q0 -53 -35 -89t-88 -36q-54 0 -89.5 36t-35.5 89zM527 1452q0 55 35.5 91t89.5 36q53 0 87.5 -36t34.5 -91q0 -53 -34.5 -89t-87.5 -36q-54 0 -89.5 36t-35.5 89z" />
<glyph unicode="&#xa9;" horiz-adv-x="1587" d="M92 758q0 231 87 407t247 273.5t369 97.5t368.5 -97.5t246.5 -273.5t87 -407t-87 -407.5t-246.5 -273.5t-368.5 -97t-369 97t-247 273t-87 408zM211 758q0 -203 72.5 -356.5t205 -238.5t306.5 -85q172 0 304 85t204.5 239.5t72.5 355.5t-72.5 355.5t-204.5 239.5t-304 85 q-174 0 -306.5 -85t-205 -238.5t-72.5 -356.5zM410 754q0 127 50 223t140 149.5t207 53.5q184 0 295 -136l-88 -88q-33 47 -86.5 76t-116.5 29q-115 0 -185.5 -84t-70.5 -223q0 -141 71.5 -226.5t186.5 -85.5q141 0 219 131l94 -84q-109 -166 -317 -165q-117 0 -208 53 t-141 151.5t-50 225.5z" />
<glyph unicode="&#xaa;" horiz-adv-x="733" d="M86 1053q0 92 68.5 148t181.5 56q66 0 143 -16v27q0 76 -40 120t-111 44q-88 0 -148 -62l-57 80q96 86 235 86q115 0 182.5 -69.5t67.5 -186.5v-412h-125l-2 107q-31 -55 -82 -87t-110 -32q-90 0 -146.5 54.5t-56.5 142.5zM219 1055q0 -47 28.5 -76t78.5 -29 q61 0 107 54.5t46 146.5q-70 16 -123 16q-61 0 -99 -30.5t-38 -81.5z" />
<glyph unicode="&#xab;" horiz-adv-x="1157" d="M72 553l327 463h215l-319 -463l319 -463h-215zM535 553l329 463h213l-319 -463l319 -463h-213z" />
<glyph unicode="&#xac;" horiz-adv-x="1093" d="M123 737v166h840v-487h-201v321h-639z" />
<glyph unicode="&#xad;" horiz-adv-x="849" d="M121 518v146h606v-146h-606z" />
<glyph unicode="&#xae;" horiz-adv-x="759" d="M94 1303q0 143 79 229t208 86q127 0 206 -86t79 -229q0 -141 -79 -228.5t-206 -87.5q-129 0 -208 87t-79 229zM143 1303q0 -123 65.5 -199t172.5 -76q106 0 170.5 76t64.5 199q0 125 -64.5 199.5t-170.5 74.5q-109 0 -173.5 -75t-64.5 -199zM264 1135v333h123 q49 0 79 -28.5t30 -75.5q0 -33 -15.5 -57.5t-42.5 -34.5l78 -137h-63l-70 125h-2h-59v-125h-58zM322 1309h55q27 0 44 15t17 40t-15 40t-42 15h-59v-110z" />
<glyph unicode="&#xaf;" horiz-adv-x="1228" d="M92 1305v159h621v-159h-621z" />
<glyph unicode="&#xb0;" horiz-adv-x="661" d="M80 1366q0 115 69.5 183.5t182.5 68.5t180.5 -68.5t67.5 -183.5q0 -113 -68 -181.5t-180 -68.5q-115 0 -183.5 68.5t-68.5 181.5zM209 1366q0 -63 33.5 -103t89.5 -40q53 0 87 40t34 103q0 66 -34 105.5t-87 39.5q-55 0 -89 -39.5t-34 -105.5z" />
<glyph unicode="&#xb1;" horiz-adv-x="1101" d="M135 119v168h830v-168h-830zM135 782v166h316v361h200v-361h314v-166h-314v-362h-200v362h-316z" />
<glyph unicode="&#xb2;" horiz-adv-x="665" d="M57 811v88l250 305q70 82 110 145.5t40 137.5q0 61 -34 97t-91 36q-59 0 -95 -41t-36 -108l-133 12q0 113 71.5 181.5t190.5 68.5t189.5 -64.5t70.5 -173.5q0 -92 -49 -175t-148 -200l-166 -198l375 2v-113h-545z" />
<glyph unicode="&#xb3;" horiz-adv-x="653" d="M45 895l51 96q29 -39 75 -59t101 -20q84 0 133.5 47t49.5 125q0 74 -47.5 117.5t-124.5 43.5q-61 0 -113 -28l-37 67l258 324h-311v113h477v-84l-240 -287h17q119 0 190.5 -73t71.5 -193q0 -129 -83 -207t-222 -78q-76 0 -141.5 25.5t-104.5 70.5z" />
<glyph unicode="&#xb4;" horiz-adv-x="1228" d="M211 1268l246 315h239l-311 -315h-174z" />
<glyph unicode="&#xb6;" horiz-adv-x="1101" d="M57 1176q0 154 83 247t218 93h560v-1967h-154v1817h-176v-1817h-156v1278h-113q-119 0 -190.5 95.5t-71.5 253.5z" />
<glyph unicode="&#xb7;" horiz-adv-x="489" d="M106 592q0 57 41 98t97 41q57 0 97 -41t40 -98t-40 -98t-97 -41q-56 0 -97 41t-41 98z" />
<glyph unicode="&#xb8;" horiz-adv-x="1228" d="M37 -416l36 80q43 -43 123 -43q55 0 87 23.5t32 62.5t-30.5 60.5t-79.5 21.5q-39 0 -76 -16l-27 51l90 176h119l-70 -123h7q92 0 146 -47t54 -121q0 -82 -62.5 -131t-168.5 -49q-53 0 -101.5 15.5t-78.5 39.5z" />
<glyph unicode="&#xb9;" horiz-adv-x="497" d="M12 1497l273 224h104v-910h-135v727l-174 -137z" />
<glyph unicode="&#xba;" horiz-adv-x="788" d="M82 1196q0 154 86 247t229 93q139 0 225.5 -93t86.5 -247t-86 -247t-226 -93q-143 0 -229 93t-86 247zM215 1196q0 -102 50 -164.5t132 -62.5q80 0 129 62.5t49 164.5t-49 164.5t-129 62.5q-82 0 -132 -62.5t-50 -164.5z" />
<glyph unicode="&#xbb;" horiz-adv-x="1157" d="M80 90l319 463l-319 463h213l330 -463l-330 -463h-213zM543 90l319 463l-319 463h215l327 -463l-327 -463h-215z" />
<glyph unicode="&#xbc;" horiz-adv-x="1525" d="M12 1292l273 224h104v-910h-135v727l-174 -137zM248 49l780 1487l111 -68l-782 -1488zM842 184v99l413 626h107v-610h117v-115h-117v-184h-133v184h-387zM983 295h250v379z" />
<glyph unicode="&#xbd;" horiz-adv-x="1554" d="M12 1292l273 224h104v-910h-135v727l-174 -137zM248 49l780 1487l111 -68l-782 -1488zM946 0v88l250 305q70 82 110 145.5t40 137.5q0 61 -34 97t-91 36q-59 0 -95 -41t-36 -109l-133 13q0 113 71.5 181.5t190.5 68.5t189.5 -64.5t70.5 -173.5q0 -92 -49 -175t-148 -200 l-166 -198l375 2v-113h-545z" />
<glyph unicode="&#xbe;" horiz-adv-x="1681" d="M45 690l51 96q29 -39 75 -59t101 -20q84 0 133.5 47t49.5 125q0 74 -47.5 117.5t-124.5 43.5q-61 0 -113 -28l-37 67l258 324h-311v113h477v-84l-240 -287h17q119 0 190.5 -73t71.5 -193q0 -129 -83 -207t-222 -78q-76 0 -141.5 25.5t-104.5 70.5zM403 49l780 1487 l111 -68l-782 -1488zM998 184v99l413 626h107v-610h117v-115h-117v-184h-133v184h-387zM1139 295h250v379z" />
<glyph unicode="&#xbf;" horiz-adv-x="976" d="M61 -80q0 78 21.5 135.5t53.5 97.5t87 93q63 63 102.5 116.5t66 139.5t26.5 211h174q0 -160 -28.5 -266.5t-70.5 -169t-104 -123.5q-59 -59 -87 -105.5t-28 -120.5q0 -102 62.5 -163.5t163.5 -61.5q98 0 162.5 62.5t70.5 162.5l191 -8q-8 -176 -124 -283.5t-298 -107.5 q-131 0 -230.5 49t-155 138t-55.5 204zM379 987q0 53 36 89t89 36t88 -36t35 -89q0 -55 -35 -91t-88 -36t-89 36t-36 91z" />
<glyph unicode="&#xc0;" horiz-adv-x="1372" d="M0 0l588 1516h196l588 -1516h-223l-131 358h-664l-131 -358h-223zM326 2007h239l246 -315h-174zM420 532h532l-266 728z" />
<glyph unicode="&#xc1;" horiz-adv-x="1372" d="M0 0l588 1516h196l588 -1516h-223l-131 358h-664l-131 -358h-223zM420 532h532l-266 728zM559 1692l246 315h240l-312 -315h-174z" />
<glyph unicode="&#xc2;" horiz-adv-x="1372" d="M0 0l588 1516h196l588 -1516h-223l-131 358h-664l-131 -358h-223zM348 1692l240 315h197l239 -315h-180l-158 200l-157 -200h-181zM420 532h532l-266 728z" />
<glyph unicode="&#xc3;" horiz-adv-x="1372" d="M0 0l588 1516h196l588 -1516h-223l-131 358h-664l-131 -358h-223zM340 1722q0 119 54 191t143 72q45 0 83.5 -19.5t90.5 -56.5q47 -31 71.5 -44.5t51.5 -13.5q37 0 61.5 30t24.5 83h112q0 -121 -55 -191.5t-143 -70.5q-43 0 -80 18.5t-90 55.5q-41 31 -70 45t-55 14 q-39 0 -62.5 -30.5t-23.5 -82.5h-113zM420 532h532l-266 728z" />
<glyph unicode="&#xc4;" horiz-adv-x="1372" d="M0 0l588 1516h196l588 -1516h-223l-131 358h-664l-131 -358h-223zM352 1876q0 55 35.5 91t89.5 36q53 0 88 -36t35 -91q0 -53 -35 -89t-88 -36q-54 0 -89.5 36t-35.5 89zM420 532h532l-266 728zM772 1876q0 55 35.5 91t89.5 36q53 0 87.5 -36t34.5 -91q0 -53 -34.5 -89 t-87.5 -36q-54 0 -89.5 36t-35.5 89z" />
<glyph unicode="&#xc5;" horiz-adv-x="1372" d="M0 0l588 1516h196l588 -1516h-223l-131 358h-664l-131 -358h-223zM420 532h532l-266 728zM475 1837q0 98 57 157.5t154 59.5q96 0 153.5 -59.5t57.5 -157.5t-57.5 -157.5t-153.5 -59.5q-97 0 -154 59.5t-57 157.5zM585 1837q0 -53 28 -87t73 -34t72.5 34t27.5 87 q0 55 -27.5 89t-72.5 34t-73 -34t-28 -89z" />
<glyph unicode="&#xc6;" horiz-adv-x="1998" d="M-27 0l832 1516h1077v-175h-870l116 -483h701v-174h-658l123 -510h604v-174h-784l-82 358h-643l-182 -358h-234zM477 532h516l-159 699z" />
<glyph unicode="&#xc7;" horiz-adv-x="1406" d="M86 762q0 229 89 405t249 272.5t371 96.5q322 0 528 -246l-131 -133q-68 94 -169 149.5t-224 55.5q-147 0 -260 -75t-174.5 -211t-61.5 -314q0 -180 61.5 -318.5t174 -214t260.5 -75.5q139 0 245.5 66.5t178.5 187.5l141 -129q-90 -134 -221 -210.5t-293 -86.5l-59 -105 h6q92 0 146 -47t54 -121q0 -82 -62.5 -131t-168.5 -49q-53 0 -101.5 15.5t-78.5 39.5l37 80q43 -43 122 -43q55 0 87 23.5t32 62.5t-30.5 60.5t-79.5 21.5q-39 0 -76 -16l-27 51l80 158q-193 14 -339 115.5t-226 273.5t-80 391z" />
<glyph unicode="&#xc8;" horiz-adv-x="1179" d="M172 0v1516h891v-175h-682v-483h629v-174h-629v-510h696v-174h-905zM256 2007h239l246 -315h-174z" />
<glyph unicode="&#xc9;" horiz-adv-x="1179" d="M172 0v1516h891v-175h-682v-483h629v-174h-629v-510h696v-174h-905zM489 1692l246 315h240l-312 -315h-174z" />
<glyph unicode="&#xca;" horiz-adv-x="1179" d="M172 0v1516h891v-175h-682v-483h629v-174h-629v-510h696v-174h-905zM278 1692l240 315h197l239 -315h-180l-158 200l-157 -200h-181z" />
<glyph unicode="&#xcb;" horiz-adv-x="1179" d="M172 0v1516h891v-175h-682v-483h629v-174h-629v-510h696v-174h-905zM283 1876q0 55 35.5 91t89.5 36q53 0 88 -36t35 -91q0 -53 -35 -89t-88 -36q-54 0 -89.5 36t-35.5 89zM703 1876q0 55 35.5 91t89.5 36q53 0 87.5 -36t34.5 -91q0 -53 -34.5 -89t-87.5 -36 q-54 0 -89.5 36t-35.5 89z" />
<glyph unicode="&#xcc;" horiz-adv-x="555" d="M-84 2007h239l246 -315h-174zM172 0v1516h209v-1516h-209z" />
<glyph unicode="&#xcd;" horiz-adv-x="555" d="M149 1692l246 315h240l-312 -315h-174zM172 0v1516h209v-1516h-209z" />
<glyph unicode="&#xce;" horiz-adv-x="555" d="M-62 1692l240 315h197l239 -315h-180l-158 200l-157 -200h-181zM172 0v1516h209v-1516h-209z" />
<glyph unicode="&#xcf;" horiz-adv-x="555" d="M-57 1876q0 55 35.5 91t89.5 36q53 0 88 -36t35 -91q0 -53 -35 -89t-88 -36q-54 0 -89.5 36t-35.5 89zM172 0v1516h209v-1516h-209zM363 1876q0 55 35.5 91t89.5 36q53 0 87.5 -36t34.5 -91q0 -53 -34.5 -89t-87.5 -36q-54 0 -89.5 36t-35.5 89z" />
<glyph unicode="&#xd0;" horiz-adv-x="1433" d="M25 690v146h147v680h494q202 0 356 -94.5t239 -267.5t85 -398q0 -223 -85 -395.5t-240 -266.5t-355 -94h-494v690h-147zM381 174h278q140 0 246.5 72.5t164.5 205t58 304.5q0 174 -58 307t-164.5 205.5t-246.5 72.5h-278v-505h336v-146h-336v-516z" />
<glyph unicode="&#xd1;" d="M172 0v1516h133l895 -1125l-4 1125h209v-1516h-131l-897 1124l4 -1124h-209zM442 1722q0 119 54 191t143 72q45 0 83.5 -19.5t90.5 -56.5q47 -31 71.5 -44.5t51.5 -13.5q37 0 61.5 30t24.5 83h112q0 -121 -55 -191.5t-143 -70.5q-43 0 -80 18.5t-90 55.5q-41 31 -70 45 t-55 14q-39 0 -62.5 -30.5t-23.5 -82.5h-113z" />
<glyph unicode="&#xd2;" d="M86 758q0 231 88 407t248 273.5t369 97.5q207 0 365.5 -97.5t245.5 -273.5t87 -407t-87 -407.5t-246 -273.5t-365 -97q-209 0 -369 97t-248 273t-88 408zM303 758q0 -180 60.5 -316.5t171 -212t256.5 -75.5q143 0 252.5 75.5t170 212t60.5 316.5t-60.5 316t-170 212 t-252.5 76q-145 0 -256 -76t-171.5 -212t-60.5 -316zM430 2007h239l246 -315h-174z" />
<glyph unicode="&#xd3;" d="M86 758q0 231 88 407t248 273.5t369 97.5q207 0 365.5 -97.5t245.5 -273.5t87 -407t-87 -407.5t-246 -273.5t-365 -97q-209 0 -369 97t-248 273t-88 408zM303 758q0 -180 60.5 -316.5t171 -212t256.5 -75.5q143 0 252.5 75.5t170 212t60.5 316.5t-60.5 316t-170 212 t-252.5 76q-145 0 -256 -76t-171.5 -212t-60.5 -316zM663 1692l246 315h240l-312 -315h-174z" />
<glyph unicode="&#xd4;" d="M86 758q0 231 88 407t248 273.5t369 97.5q207 0 365.5 -97.5t245.5 -273.5t87 -407t-87 -407.5t-246 -273.5t-365 -97q-209 0 -369 97t-248 273t-88 408zM303 758q0 -180 60.5 -316.5t171 -212t256.5 -75.5q143 0 252.5 75.5t170 212t60.5 316.5t-60.5 316t-170 212 t-252.5 76q-145 0 -256 -76t-171.5 -212t-60.5 -316zM452 1692l240 315h197l239 -315h-180l-158 200l-157 -200h-181z" />
<glyph unicode="&#xd5;" d="M86 758q0 231 88 407t248 273.5t369 97.5q207 0 365.5 -97.5t245.5 -273.5t87 -407t-87 -407.5t-246 -273.5t-365 -97q-209 0 -369 97t-248 273t-88 408zM303 758q0 -180 60.5 -316.5t171 -212t256.5 -75.5q143 0 252.5 75.5t170 212t60.5 316.5t-60.5 316t-170 212 t-252.5 76q-145 0 -256 -76t-171.5 -212t-60.5 -316zM444 1722q0 119 54 191t143 72q45 0 83.5 -19.5t90.5 -56.5q47 -31 71.5 -44.5t51.5 -13.5q37 0 61.5 30t24.5 83h112q0 -121 -55 -191.5t-143 -70.5q-43 0 -80 18.5t-90 55.5q-41 31 -70 45t-55 14q-39 0 -62.5 -30.5 t-23.5 -82.5h-113z" />
<glyph unicode="&#xd6;" d="M86 758q0 231 88 407t248 273.5t369 97.5q207 0 365.5 -97.5t245.5 -273.5t87 -407t-87 -407.5t-246 -273.5t-365 -97q-209 0 -369 97t-248 273t-88 408zM303 758q0 -180 60.5 -316.5t171 -212t256.5 -75.5q143 0 252.5 75.5t170 212t60.5 316.5t-60.5 316t-170 212 t-252.5 76q-145 0 -256 -76t-171.5 -212t-60.5 -316zM457 1876q0 55 35.5 91t89.5 36q53 0 88 -36t35 -91q0 -53 -35 -89t-88 -36q-54 0 -89.5 36t-35.5 89zM877 1876q0 55 35.5 91t89.5 36q53 0 87.5 -36t34.5 -91q0 -53 -34.5 -89t-87.5 -36q-54 0 -89.5 36t-35.5 89z" />
<glyph unicode="&#xd7;" horiz-adv-x="948" d="M104 989l125 125l246 -272l244 272l125 -125l-252 -278l250 -277l-123 -123l-244 271l-244 -271l-125 123l250 277z" />
<glyph unicode="&#xd8;" horiz-adv-x="1583" d="M86 758q0 231 88 407t248 273.5t369 97.5q256 0 438 -150l129 150l129 -111l-144 -163q146 -203 146 -504q0 -231 -87 -407.5t-246 -273.5t-365 -97q-258 0 -439 145l-127 -145l-131 110l139 160q-72 100 -109.5 229t-37.5 279zM303 758q0 -197 74 -344l723 827 q-127 121 -309 121q-145 0 -256 -76t-171.5 -212t-60.5 -316zM481 272q125 -119 310 -118q143 0 252.5 75.5t170 212t60.5 316.5q0 199 -72 342z" />
<glyph unicode="&#xd9;" horiz-adv-x="1474" d="M156 502v1014h209v-1006q0 -160 103 -258t271 -98q166 0 268.5 98t102.5 258v1006h209v-1014q0 -156 -72.5 -274.5t-204 -183t-305.5 -64.5q-172 0 -304 64.5t-204.5 183t-72.5 274.5zM377 2007h239l246 -315h-174z" />
<glyph unicode="&#xda;" horiz-adv-x="1474" d="M156 502v1014h209v-1006q0 -160 103 -258t271 -98q166 0 268.5 98t102.5 258v1006h209v-1014q0 -156 -72.5 -274.5t-204 -183t-305.5 -64.5q-172 0 -304 64.5t-204.5 183t-72.5 274.5zM610 1692l246 315h240l-312 -315h-174z" />
<glyph unicode="&#xdb;" horiz-adv-x="1474" d="M156 502v1014h209v-1006q0 -160 103 -258t271 -98q166 0 268.5 98t102.5 258v1006h209v-1014q0 -156 -72.5 -274.5t-204 -183t-305.5 -64.5q-172 0 -304 64.5t-204.5 183t-72.5 274.5zM399 1692l240 315h197l239 -315h-180l-158 200l-157 -200h-181z" />
<glyph unicode="&#xdc;" horiz-adv-x="1474" d="M156 502v1014h209v-1006q0 -160 103 -258t271 -98q166 0 268.5 98t102.5 258v1006h209v-1014q0 -156 -72.5 -274.5t-204 -183t-305.5 -64.5q-172 0 -304 64.5t-204.5 183t-72.5 274.5zM404 1876q0 55 35.5 91t89.5 36q53 0 88 -36t35 -91q0 -53 -35 -89t-88 -36 q-54 0 -89.5 36t-35.5 89zM824 1876q0 55 35.5 91t89.5 36q53 0 87.5 -36t34.5 -91q0 -53 -34.5 -89t-87.5 -36q-54 0 -89.5 36t-35.5 89z" />
<glyph unicode="&#xdd;" horiz-adv-x="1247" d="M25 1516h225l375 -738l374 738h226l-496 -924v-592h-209v592zM500 1692l246 315h240l-312 -315h-174z" />
<glyph unicode="&#xde;" horiz-adv-x="1222" d="M172 0v1516h209v-267h309q141 0 249 -58t167 -165.5t59 -249.5q0 -145 -60.5 -255.5t-169 -171t-251.5 -60.5h-303v-289h-209zM381 463h285q131 0 207.5 84t76.5 223q0 137 -78.5 221t-205.5 84h-285v-612z" />
<glyph unicode="&#xdf;" horiz-adv-x="1138" d="M137 0v1243q0 111 53.5 196t149.5 132t221 47q129 0 227.5 -50t151.5 -142.5t53 -211.5q0 -121 -54 -213t-153 -141q132 -51 204.5 -159.5t72.5 -254.5q0 -139 -55.5 -244.5t-157.5 -163.5t-236 -58q-84 0 -151 22l20 166q41 -16 92 -16q127 0 204 86t77 225t-81 225 t-212 86v160q102 0 165 70.5t63 187.5q0 115 -62.5 184.5t-165.5 69.5q-102 0 -163.5 -61.5t-61.5 -161.5v-1223h-201z" />
<glyph unicode="&#xe0;" horiz-adv-x="1046" d="M59 307q0 152 114 245t300 93q109 0 246 -31v52q0 133 -69.5 209.5t-190.5 76.5q-150 0 -248 -108l-88 123q76 72 170 108.5t215 36.5q123 0 216 -53t144.5 -149.5t51.5 -223.5v-686h-195l-4 186q-51 -98 -138 -152t-188 -54q-152 0 -244 89t-92 238zM168 1583h239 l246 -315h-174zM262 311q0 -86 49 -136t138 -50q69 0 131.5 42t100.5 122t38 186v2q-119 27 -217 27q-109 0 -174.5 -53.5t-65.5 -139.5z" />
<glyph unicode="&#xe1;" horiz-adv-x="1046" d="M59 307q0 152 114 245t300 93q109 0 246 -31v52q0 133 -69.5 209.5t-190.5 76.5q-150 0 -248 -108l-88 123q76 72 170 108.5t215 36.5q123 0 216 -53t144.5 -149.5t51.5 -223.5v-686h-195l-4 186q-51 -98 -138 -152t-188 -54q-152 0 -244 89t-92 238zM262 311 q0 -86 49 -136t138 -50q69 0 131.5 42t100.5 122t38 186v2q-119 27 -217 27q-109 0 -174.5 -53.5t-65.5 -139.5zM401 1268l246 315h240l-312 -315h-174z" />
<glyph unicode="&#xe2;" horiz-adv-x="1046" d="M59 307q0 152 114 245t300 93q109 0 246 -31v52q0 133 -69.5 209.5t-190.5 76.5q-150 0 -248 -108l-88 123q76 72 170 108.5t215 36.5q123 0 216 -53t144.5 -149.5t51.5 -223.5v-686h-195l-4 186q-51 -98 -138 -152t-188 -54q-152 0 -244 89t-92 238zM190 1268l240 315 h197l239 -315h-180l-158 200l-157 -200h-181zM262 311q0 -86 49 -136t138 -50q69 0 131.5 42t100.5 122t38 186v2q-119 27 -217 27q-109 0 -174.5 -53.5t-65.5 -139.5z" />
<glyph unicode="&#xe3;" horiz-adv-x="1046" d="M59 307q0 152 114 245t300 93q109 0 246 -31v52q0 133 -69.5 209.5t-190.5 76.5q-150 0 -248 -108l-88 123q76 72 170 108.5t215 36.5q123 0 216 -53t144.5 -149.5t51.5 -223.5v-686h-195l-4 186q-51 -98 -138 -152t-188 -54q-152 0 -244 89t-92 238zM182 1298 q0 119 54 191t143 72q45 0 83.5 -19.5t90.5 -56.5q47 -31 71.5 -44.5t51.5 -13.5q37 0 61.5 30t24.5 83h112q0 -121 -55 -191.5t-143 -70.5q-43 0 -80 18.5t-90 55.5q-41 31 -70 45t-55 14q-39 0 -62.5 -30.5t-23.5 -82.5h-113zM262 311q0 -86 49 -136t138 -50 q69 0 131.5 42t100.5 122t38 186v2q-119 27 -217 27q-109 0 -174.5 -53.5t-65.5 -139.5z" />
<glyph unicode="&#xe4;" horiz-adv-x="1046" d="M59 307q0 152 114 245t300 93q109 0 246 -31v52q0 133 -69.5 209.5t-190.5 76.5q-150 0 -248 -108l-88 123q76 72 170 108.5t215 36.5q123 0 216 -53t144.5 -149.5t51.5 -223.5v-686h-195l-4 186q-51 -98 -138 -152t-188 -54q-152 0 -244 89t-92 238zM195 1452 q0 55 35.5 91t89.5 36q53 0 88 -36t35 -91q0 -53 -35 -89t-88 -36q-54 0 -89.5 36t-35.5 89zM262 311q0 -86 49 -136t138 -50q69 0 131.5 42t100.5 122t38 186v2q-119 27 -217 27q-109 0 -174.5 -53.5t-65.5 -139.5zM615 1452q0 55 35.5 91t89.5 36q53 0 87.5 -36t34.5 -91 q0 -53 -34.5 -89t-87.5 -36q-54 0 -89.5 36t-35.5 89z" />
<glyph unicode="&#xe5;" horiz-adv-x="1046" d="M59 307q0 152 114 245t300 93q109 0 246 -31v52q0 133 -69.5 209.5t-190.5 76.5q-150 0 -248 -108l-88 123q76 72 170 108.5t215 36.5q123 0 216 -53t144.5 -149.5t51.5 -223.5v-686h-195l-4 186q-51 -98 -138 -152t-188 -54q-152 0 -244 89t-92 238zM262 311 q0 -86 49 -136t138 -50q69 0 131.5 42t100.5 122t38 186v2q-119 27 -217 27q-109 0 -174.5 -53.5t-65.5 -139.5zM318 1413q0 98 57 157.5t154 59.5q96 0 153.5 -59.5t57.5 -157.5t-57.5 -157.5t-153.5 -59.5q-97 0 -154 59.5t-57 157.5zM428 1413q0 -53 28 -87t73 -34 t72.5 34t27.5 87q0 55 -27.5 89t-72.5 34t-73 -34t-28 -89z" />
<glyph unicode="&#xe6;" horiz-adv-x="1738" d="M59 307q0 152 114 245t300 93q109 0 246 -31v52q0 133 -69.5 209.5t-190.5 76.5q-150 0 -248 -108l-88 123q72 72 163 108.5t208 36.5q115 0 203.5 -52t140.5 -145q61 94 155 145.5t207 51.5q139 0 244.5 -68.5t164 -193.5t58.5 -289q0 -43 -4 -88h-745 q12 -158 81.5 -246t194.5 -88q82 0 151.5 43t120.5 119l156 -82q-68 -115 -175.5 -177t-236.5 -62q-131 0 -234.5 61t-164.5 172q-55 -109 -159.5 -171t-229.5 -62q-164 0 -263.5 89t-99.5 238zM262 311q0 -86 49 -135t138 -49q69 0 130.5 42t100.5 121t39 185v2 q-119 27 -217 27q-109 0 -174.5 -53.5t-65.5 -139.5zM918 612h540q-10 160 -80.5 250t-191.5 90q-117 0 -186.5 -90t-81.5 -250z" />
<glyph unicode="&#xe7;" horiz-adv-x="999" d="M78 547q0 168 64.5 296t182 198.5t273.5 70.5q190 0 330 -123l-115 -137q-92 88 -213 88q-141 0 -227 -108.5t-86 -286.5q0 -176 86 -284.5t229 -108.5q152 0 242 110l114 -135q-61 -66 -143 -102.5t-178 -42.5l-59 -105h6q92 0 146 -47t54 -121q0 -82 -62.5 -131 t-168.5 -49q-53 0 -101.5 15.5t-78.5 39.5l37 80q43 -43 122 -43q55 0 87 23.5t32 62.5t-30.5 60.5t-79.5 21.5q-39 0 -76 -16l-27 51l82 160q-203 25 -322.5 177t-119.5 386z" />
<glyph unicode="&#xe8;" horiz-adv-x="1112" d="M78 543q0 170 60.5 299t169 199.5t251.5 70.5t252 -68.5t169 -193.5t60 -289q0 -43 -4 -88h-747q14 -158 83.5 -246t192.5 -88q84 0 153.5 43t121.5 119l153 -82q-68 -115 -178 -177t-246 -62q-145 0 -256.5 70.5t-173 197.5t-61.5 295zM199 1583h239l246 -315h-174z M289 612h542q-10 160 -80.5 250t-191.5 90q-117 0 -187.5 -90t-82.5 -250z" />
<glyph unicode="&#xe9;" horiz-adv-x="1112" d="M78 543q0 170 60.5 299t169 199.5t251.5 70.5t252 -68.5t169 -193.5t60 -289q0 -43 -4 -88h-747q14 -158 83.5 -246t192.5 -88q84 0 153.5 43t121.5 119l153 -82q-68 -115 -178 -177t-246 -62q-145 0 -256.5 70.5t-173 197.5t-61.5 295zM289 612h542q-10 160 -80.5 250 t-191.5 90q-117 0 -187.5 -90t-82.5 -250zM432 1268l246 315h240l-312 -315h-174z" />
<glyph unicode="&#xea;" horiz-adv-x="1112" d="M78 543q0 170 60.5 299t169 199.5t251.5 70.5t252 -68.5t169 -193.5t60 -289q0 -43 -4 -88h-747q14 -158 83.5 -246t192.5 -88q84 0 153.5 43t121.5 119l153 -82q-68 -115 -178 -177t-246 -62q-145 0 -256.5 70.5t-173 197.5t-61.5 295zM221 1268l240 315h197l239 -315 h-180l-158 200l-157 -200h-181zM289 612h542q-10 160 -80.5 250t-191.5 90q-117 0 -187.5 -90t-82.5 -250z" />
<glyph unicode="&#xeb;" horiz-adv-x="1112" d="M78 543q0 170 60.5 299t169 199.5t251.5 70.5t252 -68.5t169 -193.5t60 -289q0 -43 -4 -88h-747q14 -158 83.5 -246t192.5 -88q84 0 153.5 43t121.5 119l153 -82q-68 -115 -178 -177t-246 -62q-145 0 -256.5 70.5t-173 197.5t-61.5 295zM225 1452q0 55 35.5 91t89.5 36 q53 0 88 -36t35 -91q0 -53 -35 -89t-88 -36q-54 0 -89.5 36t-35.5 89zM289 612h542q-10 160 -80.5 250t-191.5 90q-117 0 -187.5 -90t-82.5 -250zM645 1452q0 55 35.5 91t89.5 36q53 0 87.5 -36t34.5 -91q0 -53 -34.5 -89t-87.5 -36q-54 0 -89.5 36t-35.5 89z" />
<glyph unicode="&#xec;" horiz-adv-x="477" d="M-121 1583h239l246 -315h-174zM139 0v1092h199v-1092h-199z" />
<glyph unicode="&#xed;" horiz-adv-x="477" d="M112 1268l246 315h240l-312 -315h-174zM139 0v1092h199v-1092h-199z" />
<glyph unicode="&#xee;" horiz-adv-x="477" d="M-99 1268l240 315h197l239 -315h-180l-158 200l-157 -200h-181zM139 0v1092h199v-1092h-199z" />
<glyph unicode="&#xef;" horiz-adv-x="477" d="M-94 1452q0 55 35.5 91t89.5 36q53 0 88 -36t35 -91q0 -53 -35 -89t-88 -36q-54 0 -89.5 36t-35.5 89zM139 0v1092h199v-1092h-199zM326 1452q0 55 35.5 91t89.5 36q53 0 87.5 -36t34.5 -91q0 -53 -34.5 -89t-87.5 -36q-54 0 -89.5 36t-35.5 89z" />
<glyph unicode="&#xf0;" horiz-adv-x="1196" d="M78 547q0 162 61.5 288t169 194.5t242.5 68.5q127 0 223 -62q-86 154 -235 289l-131 -92l-109 84l135 94q-53 41 -141 96l166 111q63 -37 139 -92l131 92l107 -84l-131 -92q198 -174 302.5 -384t104.5 -446q0 -190 -64.5 -333.5t-181 -221t-268.5 -77.5 q-154 0 -272.5 70.5t-183 198.5t-64.5 298zM287 545q0 -176 86 -284.5t225 -108.5q137 0 222 108.5t85 284.5q0 117 -39 207t-108.5 139t-159.5 49q-139 0 -225 -108.5t-86 -286.5z" />
<glyph unicode="&#xf1;" horiz-adv-x="1193" d="M137 0v1092h195l4 -150q51 82 138 126t196 44q180 0 288.5 -107.5t108.5 -285.5v-719h-201v684q0 115 -72.5 185.5t-191.5 70.5t-191.5 -70.5t-72.5 -185.5v-684h-201zM258 1298q0 119 54 191t143 72q45 0 83.5 -19.5t90.5 -56.5q47 -31 71.5 -44.5t51.5 -13.5 q37 0 61.5 30t24.5 83h112q0 -121 -55 -191.5t-143 -70.5q-43 0 -80 18.5t-90 55.5q-41 31 -70 45t-55 14q-39 0 -62.5 -30.5t-23.5 -82.5h-113z" />
<glyph unicode="&#xf2;" horiz-adv-x="1189" d="M78 545q0 168 64.5 297t182 199.5t271.5 70.5t270.5 -70.5t181 -199.5t64.5 -297t-64.5 -296t-181 -198.5t-270.5 -70.5t-271.5 70.5t-182 198.5t-64.5 296zM236 1583h239l246 -315h-174zM287 545q0 -176 85 -284.5t224 -108.5q137 0 222 108.5t85 284.5q0 178 -84 286.5 t-223 108.5t-224 -108.5t-85 -286.5z" />
<glyph unicode="&#xf3;" horiz-adv-x="1189" d="M78 545q0 168 64.5 297t182 199.5t271.5 70.5t270.5 -70.5t181 -199.5t64.5 -297t-64.5 -296t-181 -198.5t-270.5 -70.5t-271.5 70.5t-182 198.5t-64.5 296zM287 545q0 -176 85 -284.5t224 -108.5q137 0 222 108.5t85 284.5q0 178 -84 286.5t-223 108.5t-224 -108.5 t-85 -286.5zM469 1268l246 315h240l-312 -315h-174z" />
<glyph unicode="&#xf4;" horiz-adv-x="1189" d="M78 545q0 168 64.5 297t182 199.5t271.5 70.5t270.5 -70.5t181 -199.5t64.5 -297t-64.5 -296t-181 -198.5t-270.5 -70.5t-271.5 70.5t-182 198.5t-64.5 296zM258 1268l240 315h197l239 -315h-180l-158 200l-157 -200h-181zM287 545q0 -176 85 -284.5t224 -108.5 q137 0 222 108.5t85 284.5q0 178 -84 286.5t-223 108.5t-224 -108.5t-85 -286.5z" />
<glyph unicode="&#xf5;" horiz-adv-x="1189" d="M78 545q0 168 64.5 297t182 199.5t271.5 70.5t270.5 -70.5t181 -199.5t64.5 -297t-64.5 -296t-181 -198.5t-270.5 -70.5t-271.5 70.5t-182 198.5t-64.5 296zM250 1298q0 119 54 191t143 72q45 0 83.5 -19.5t90.5 -56.5q47 -31 71.5 -44.5t51.5 -13.5q37 0 61.5 30 t24.5 83h112q0 -121 -55 -191.5t-143 -70.5q-43 0 -80 18.5t-90 55.5q-41 31 -70 45t-55 14q-39 0 -62.5 -30.5t-23.5 -82.5h-113zM287 545q0 -176 85 -284.5t224 -108.5q137 0 222 108.5t85 284.5q0 178 -84 286.5t-223 108.5t-224 -108.5t-85 -286.5z" />
<glyph unicode="&#xf6;" horiz-adv-x="1189" d="M78 545q0 168 64.5 297t182 199.5t271.5 70.5t270.5 -70.5t181 -199.5t64.5 -297t-64.5 -296t-181 -198.5t-270.5 -70.5t-271.5 70.5t-182 198.5t-64.5 296zM262 1452q0 55 35.5 91t89.5 36q53 0 88 -36t35 -91q0 -53 -35 -89t-88 -36q-54 0 -89.5 36t-35.5 89zM287 545 q0 -176 85 -284.5t224 -108.5q137 0 222 108.5t85 284.5q0 178 -84 286.5t-223 108.5t-224 -108.5t-85 -286.5zM682 1452q0 55 35.5 91t89.5 36q53 0 87.5 -36t34.5 -91q0 -53 -34.5 -89t-87.5 -36q-54 0 -89.5 36t-35.5 89z" />
<glyph unicode="&#xf7;" horiz-adv-x="1054" d="M106 631v166h840v-166h-840zM403 367q0 53 36 89t89 36t88 -36t35 -89q0 -55 -34.5 -91t-88.5 -36q-53 0 -89 35.5t-36 91.5zM403 1063q0 53 36 89t89 36t88 -36t35 -89q0 -55 -34.5 -91t-88.5 -36q-53 0 -89 36t-36 91z" />
<glyph unicode="&#xf8;" horiz-adv-x="1193" d="M78 545q0 168 64.5 297t182 199.5t271.5 70.5q176 0 307 -96l84 96l125 -104l-96 -111q96 -143 96 -352q0 -168 -64.5 -296t-181 -198.5t-270.5 -70.5q-178 0 -307 94l-84 -94l-123 104l94 106q-98 145 -98 355zM287 545q-1 -105 32 -191l459 520q-76 66 -182 66 q-139 0 -224 -108.5t-85 -286.5zM414 217q76 -66 182 -65q137 0 222 108.5t85 284.5q0 108 -31 190z" />
<glyph unicode="&#xf9;" horiz-adv-x="1161" d="M125 371v721h201v-684q0 -115 68.5 -185.5t180.5 -70.5q113 0 180.5 70.5t67.5 185.5v684h201v-1092h-193l-4 145q-51 -80 -133 -122.5t-186 -42.5q-172 0 -277.5 107.5t-105.5 283.5zM215 1583h239l246 -315h-174z" />
<glyph unicode="&#xfa;" horiz-adv-x="1161" d="M125 371v721h201v-684q0 -115 68.5 -185.5t180.5 -70.5q113 0 180.5 70.5t67.5 185.5v684h201v-1092h-193l-4 145q-51 -80 -133 -122.5t-186 -42.5q-172 0 -277.5 107.5t-105.5 283.5zM448 1268l246 315h240l-312 -315h-174z" />
<glyph unicode="&#xfb;" horiz-adv-x="1161" d="M125 371v721h201v-684q0 -115 68.5 -185.5t180.5 -70.5q113 0 180.5 70.5t67.5 185.5v684h201v-1092h-193l-4 145q-51 -80 -133 -122.5t-186 -42.5q-172 0 -277.5 107.5t-105.5 283.5zM237 1268l240 315h197l239 -315h-180l-158 200l-157 -200h-181z" />
<glyph unicode="&#xfc;" horiz-adv-x="1161" d="M125 371v721h201v-684q0 -115 68.5 -185.5t180.5 -70.5q113 0 180.5 70.5t67.5 185.5v684h201v-1092h-193l-4 145q-51 -80 -133 -122.5t-186 -42.5q-172 0 -277.5 107.5t-105.5 283.5zM242 1452q0 55 35.5 91t89.5 36q53 0 88 -36t35 -91q0 -53 -35 -89t-88 -36 q-54 0 -89.5 36t-35.5 89zM662 1452q0 55 35.5 91t89.5 36q53 0 87.5 -36t34.5 -91q0 -53 -34.5 -89t-87.5 -36q-54 0 -89.5 36t-35.5 89z" />
<glyph unicode="&#xfd;" horiz-adv-x="1083" d="M18 1092h222l313 -856l299 856h219l-493 -1268q-55 -150 -125 -222.5t-191 -72.5q-78 0 -135 27l20 163q35 -18 82 -18q57 0 89 36t63 111l70 170zM422 1268l246 315h240l-312 -315h-174z" />
<glyph unicode="&#xfe;" horiz-adv-x="1243" d="M137 -451v2048h201v-696q53 100 142 155.5t212 55.5q135 0 241.5 -70.5t168 -198.5t61.5 -294q0 -168 -61.5 -297t-168 -200.5t-241.5 -71.5q-123 0 -212 55t-142 155v-641h-201zM338 545q0 -176 85 -284.5t224 -108.5t224 108.5t85 286.5q0 176 -85 284.5t-224 108.5 t-224 -108.5t-85 -286.5z" />
<glyph unicode="&#xff;" horiz-adv-x="1083" d="M18 1092h222l313 -856l299 856h219l-493 -1268q-55 -150 -125 -222.5t-191 -72.5q-78 0 -135 27l20 163q35 -18 82 -18q57 0 89 36t63 111l70 170zM215 1452q0 55 35.5 91t89.5 36q53 0 88 -36t35 -91q0 -53 -35 -89t-88 -36q-54 0 -89.5 36t-35.5 89zM635 1452 q0 55 35.5 91t89.5 36q53 0 87.5 -36t34.5 -91q0 -53 -34.5 -89t-87.5 -36q-54 0 -89.5 36t-35.5 89z" />
<glyph unicode="&#x152;" horiz-adv-x="2287" d="M88 758q0 231 86 407t241.5 273.5t360.5 97.5q156 0 285 -61.5t219 -174.5v216h891v-175h-680v-483h627v-174h-627v-510h696v-174h-907v215q-90 -113 -219 -174t-285 -61q-205 0 -360.5 97t-241.5 273t-86 408zM305 758q0 -180 60.5 -316.5t171 -212t254.5 -75.5 q143 0 252.5 75.5t170 212t60.5 316.5t-60.5 316t-170 212t-252.5 76t-254 -76t-171.5 -212t-60.5 -316z" />
<glyph unicode="&#x153;" horiz-adv-x="1937" d="M78 545q0 168 63.5 297t178 199.5t264.5 70.5q143 0 252.5 -70.5t169.5 -195.5q55 125 157.5 195.5t235.5 70.5q139 0 244.5 -68.5t164 -193.5t58.5 -289q0 -43 -4 -88h-748q14 -158 84 -246t195 -88q82 0 151.5 43t120.5 119l154 -82q-66 -115 -173.5 -177t-236.5 -62 q-137 0 -241.5 70.5t-159.5 195.5q-61 -125 -171 -195.5t-253 -70.5q-150 0 -264.5 70.5t-178 198.5t-63.5 296zM287 545q0 -176 85 -284.5t224 -108.5q137 0 222 108.5t85 284.5q0 178 -84 286.5t-223 108.5t-224 -108.5t-85 -286.5zM1114 612h543q-10 160 -81 250t-192 90 q-116 0 -187 -90t-83 -250z" />
<glyph unicode="&#x178;" horiz-adv-x="1247" d="M25 1516h225l375 -738l374 738h226l-496 -924v-592h-209v592zM293 1876q0 55 35.5 91t89.5 36q53 0 88 -36t35 -91q0 -53 -35 -89t-88 -36q-54 0 -89.5 36t-35.5 89zM713 1876q0 55 35.5 91t89.5 36q53 0 87.5 -36t34.5 -91q0 -53 -34.5 -89t-87.5 -36q-54 0 -89.5 36 t-35.5 89z" />
<glyph unicode="&#x2c6;" horiz-adv-x="1228" d="M71 1268l240 315h197l239 -315h-180l-158 200l-157 -200h-181z" />
<glyph unicode="&#x2dc;" horiz-adv-x="1228" d="M78 1298q0 119 54 191t143 72q45 0 83.5 -19.5t90.5 -56.5q47 -31 71.5 -44.5t51.5 -13.5q37 0 61.5 30t24.5 83h112q0 -121 -55 -191.5t-143 -70.5q-43 0 -80 18.5t-90 55.5q-41 31 -70 45t-55 14q-39 0 -62.5 -30.5t-23.5 -82.5h-113z" />
<glyph unicode="&#x2000;" horiz-adv-x="1027" />
<glyph unicode="&#x2001;" horiz-adv-x="2054" />
<glyph unicode="&#x2002;" horiz-adv-x="1027" />
<glyph unicode="&#x2003;" horiz-adv-x="2054" />
<glyph unicode="&#x2004;" horiz-adv-x="684" />
<glyph unicode="&#x2005;" horiz-adv-x="513" />
<glyph unicode="&#x2006;" horiz-adv-x="342" />
<glyph unicode="&#x2007;" horiz-adv-x="342" />
<glyph unicode="&#x2008;" horiz-adv-x="256" />
<glyph unicode="&#x2009;" horiz-adv-x="410" />
<glyph unicode="&#x200a;" horiz-adv-x="114" />
<glyph unicode="&#x2010;" horiz-adv-x="849" d="M121 518v146h606v-146h-606z" />
<glyph unicode="&#x2011;" horiz-adv-x="849" d="M121 518v146h606v-146h-606z" />
<glyph unicode="&#x2012;" horiz-adv-x="849" d="M121 518v146h606v-146h-606z" />
<glyph unicode="&#x2013;" horiz-adv-x="1097" d="M121 518v146h854v-146h-854z" />
<glyph unicode="&#x2014;" horiz-adv-x="1736" d="M121 518v146h1495v-146h-1495z" />
<glyph unicode="&#x2018;" horiz-adv-x="477" d="M82 1036l149 480h183l-123 -480h-209z" />
<glyph unicode="&#x2019;" horiz-adv-x="473" d="M86 1036l123 480h209l-150 -480h-182z" />
<glyph unicode="&#x201a;" horiz-adv-x="462" d="M25 -272l120 479h211l-151 -479h-180z" />
<glyph unicode="&#x201c;" horiz-adv-x="823" d="M84 1036l152 480h180l-121 -480h-211zM428 1036l152 480h180l-121 -480h-211z" />
<glyph unicode="&#x201d;" horiz-adv-x="817" d="M86 1036l123 480h209l-150 -480h-182zM432 1036l121 480h209l-150 -480h-180z" />
<glyph unicode="&#x201e;" horiz-adv-x="806" d="M25 -272l120 479h211l-151 -479h-180zM369 -272l123 479h208l-151 -479h-180z" />
<glyph unicode="&#x2022;" horiz-adv-x="702" d="M152 643q0 96 55 153.5t145 57.5t144.5 -58.5t54.5 -152.5q0 -96 -55.5 -154.5t-143.5 -58.5q-90 0 -145 58.5t-55 154.5z" />
<glyph unicode="&#x2026;" horiz-adv-x="1329" d="M96 119q0 57 40 98t97 41t97.5 -41t40.5 -98t-40 -98t-98 -41q-57 0 -97 40.5t-40 98.5zM528 119q0 57 40 98t98 41q55 0 95 -41t40 -98t-40 -98t-95 -41q-58 0 -98 40.5t-40 98.5zM958 119q0 57 41 98t97 41q57 0 97 -41t40 -98t-40 -98t-97 -41q-56 0 -97 40.5 t-41 98.5z" />
<glyph unicode="&#x202f;" horiz-adv-x="410" />
<glyph unicode="&#x2039;" horiz-adv-x="692" d="M72 553l327 463h215l-319 -463l319 -463h-215z" />
<glyph unicode="&#x203a;" horiz-adv-x="694" d="M80 90l319 463l-319 463h213l330 -463l-330 -463h-213z" />
<glyph unicode="&#x205f;" horiz-adv-x="513" />
<glyph unicode="&#x20ac;" horiz-adv-x="1533" d="M78 543v133h108q-4 57 -4 86v26h-104v134h117q29 186 123 324t241.5 214t331.5 76q322 0 528 -246l-131 -133q-68 94 -169 149.5t-224 55.5q-186 0 -314 -118t-167 -322h465v-134h-480v-26q0 -29 4 -86h476v-133h-453q47 -182 171 -285.5t298 -103.5q139 0 245.5 66.5 t178.5 187.5l141 -129q-98 -143 -242.5 -221t-324.5 -78q-264 0 -447.5 151.5t-240.5 411.5h-127z" />
<glyph unicode="&#x2122;" horiz-adv-x="1341" d="M70 1501v96h442v-96h-164v-489h-112v489h-166zM569 1012l37 585h117l170 -430l166 430h119l39 -585h-113l-23 401l-161 -401h-54l-164 403l-20 -403h-113z" />
<glyph unicode="&#x25fc;" horiz-adv-x="1095" d="M0 0v1096h1096v-1096h-1096z" />
</font>
</defs>
</svg>
