<?xml version="1.0" standalone="no"?>
<!DOCTYPE svg PUBLIC "-//W3C//DTD SVG 1.1//EN" "http://www.w3.org/Graphics/SVG/1.1/DTD/svg11.dtd" >
<svg xmlns="http://www.w3.org/2000/svg" xmlns:xlink="http://www.w3.org/1999/xlink" version="1.1">
<metadata></metadata>
<defs>
<font id="bwmodelica-boldcouploadedfile" horiz-adv-x="1404" >
<font-face units-per-em="2048" ascent="1587" descent="-461" />
<missing-glyph horiz-adv-x="450" />
<glyph unicode="&#xfb01;" horiz-adv-x="1275" d="M49 883v221h160v186q0 147 90 237.5t236 90.5q139 0 223 -43l-19 -211q-51 23 -116 22q-66 0 -106 -37.5t-40 -99.5v-145h252v-221h-252v-883h-268v883h-160zM858 1448q0 70 45 116t115 46t114 -45t44 -117q0 -70 -44 -115t-114 -45t-115 45t-45 115zM883 0v1104h268 v-1104h-268z" />
<glyph unicode="&#xfb02;" horiz-adv-x="1277" d="M49 883v221h160v186q0 147 90 237.5t236 90.5q139 0 223 -43l-19 -211q-51 23 -116 22q-66 0 -106 -37.5t-40 -99.5v-145h252v-221h-252v-883h-268v883h-160zM883 0v1597h270v-1597h-270z" />
<glyph horiz-adv-x="0" />
<glyph unicode="&#xd;" horiz-adv-x="385" />
<glyph unicode=" "  horiz-adv-x="450" />
<glyph unicode="&#x09;" horiz-adv-x="450" />
<glyph unicode="&#xa0;" horiz-adv-x="450" />
<glyph unicode="!" horiz-adv-x="542" d="M113 141q0 70 45 115t114 45q70 0 114 -45t44 -115t-44 -115.5t-114 -45.5q-69 0 -114 46t-45 115zM131 1516h281l-25 -1080h-229z" />
<glyph unicode="&#x22;" horiz-adv-x="768" d="M102 1597h215l-6 -442h-202zM451 1597h215l-7 -442h-202z" />
<glyph unicode="#" horiz-adv-x="1388" d="M61 379l41 176h222l65 315h-225l39 177h223l80 387h192l-80 -387h287l80 387h193l-80 -387h227l-39 -177h-225l-66 -315h232l-43 -176h-226l-77 -379h-195l80 379h-287l-78 -379h-194l80 379h-226zM516 555h287l65 315h-286z" />
<glyph unicode="$" horiz-adv-x="1206" d="M90 1079q0 172 101.5 291t275.5 154v174h274v-174q180 -37 326 -162l-123 -195q-150 137 -334 138q-106 0 -168.5 -49.5t-62.5 -131.5t60.5 -128t176.5 -83l76 -26q195 -63 315.5 -170t120.5 -291q0 -170 -105 -284.5t-286 -149.5v-176h-272v174q-219 39 -359 178 l107 190q160 -147 365 -147q123 0 192.5 49t69.5 139q0 84 -69 136.5t-208 99.5l-76 24q-193 63 -295 157.5t-102 262.5z" />
<glyph unicode="%" horiz-adv-x="1617" d="M59 1188q0 156 97.5 252t255.5 96t254 -95t96 -253t-96.5 -254t-253.5 -96q-158 0 -255.5 96t-97.5 254zM279 1188q0 -80 36.5 -128t98.5 -48q59 0 96 48t37 128t-37 127t-96 47q-61 0 -98 -47t-37 -127zM385 51l705 1483l137 -68l-705 -1484zM854 328q0 158 97.5 254 t254.5 96q158 0 254 -96.5t96 -253.5q0 -158 -96 -253t-254 -95q-157 0 -254.5 96t-97.5 252zM1071 328q0 -78 37 -126t98 -48q60 0 96.5 48t36.5 126q0 80 -36.5 128t-96.5 48q-61 0 -98 -48t-37 -128z" />
<glyph unicode="&#x26;" horiz-adv-x="1431" d="M80 418q0 139 68.5 242.5t193.5 158.5q-90 49 -140 134t-50 192q0 115 57 204t160.5 138t238.5 49q131 0 232.5 -49t158 -138t56.5 -204v-225h282v-213h-284v-353q0 -63 35.5 -103t95.5 -40q88 0 168 37v-217q-115 -51 -256 -51q-88 0 -158 36.5t-111 102.5 q-63 -68 -146 -103.5t-179 -35.5q-123 0 -219.5 55t-149.5 154.5t-53 228.5zM360 457q0 -111 58.5 -178.5t152.5 -67.5q93 0 152 59.5t59 178.5v258h-176q-111 0 -178.5 -69t-67.5 -181zM432 1114q0 -88 48 -141t128 -53h176v213q0 78 -49 125t-127 47q-80 0 -128 -52.5 t-48 -138.5z" />
<glyph unicode="'" horiz-adv-x="421" d="M102 1597h215l-6 -442h-202z" />
<glyph unicode="(" horiz-adv-x="632" d="M76 614q0 299 83 549t191 434h250q-96 -186 -170 -422.5t-74 -560.5t74 -560t170 -423h-250q-108 185 -191 434.5t-83 548.5z" />
<glyph unicode=")" horiz-adv-x="632" d="M35 -369q96 187 170 423.5t74 559.5q0 324 -74 560.5t-170 422.5h250q109 -188 190.5 -436t81.5 -547t-82 -546.5t-190 -436.5h-250z" />
<glyph unicode="*" horiz-adv-x="729" d="M84 1231l53 162l148 -60l-4 183h168l-5 -181l148 58l51 -162l-156 -49l101 -146l-135 -100l-88 143l-91 -143l-135 100l101 146z" />
<glyph unicode="+" horiz-adv-x="1036" d="M76 606v221h307v357h270v-357h308v-221h-308v-356h-270v356h-307z" />
<glyph unicode="," horiz-adv-x="548" d="M14 -297l129 555h310l-166 -555h-273z" />
<glyph unicode="-" horiz-adv-x="897" d="M113 498v192h671v-192h-671z" />
<glyph unicode="." horiz-adv-x="514" d="M84 158q0 72 51 124t123 52t123 -52.5t51 -123.5q0 -74 -51 -126t-123 -52t-123 52t-51 126z" />
<glyph unicode="/" horiz-adv-x="843" d="M66 -205l440 1802h272l-440 -1802h-272z" />
<glyph unicode="0" horiz-adv-x="1196" d="M74 758q0 231 65.5 407t184 273.5t274.5 97.5t274.5 -97.5t184 -273.5t65.5 -407t-65.5 -407.5t-184 -273.5t-274.5 -97t-274.5 97t-184 273t-65.5 408zM360 758q0 -162 30 -286t84 -192.5t124 -68.5q107 0 171.5 150.5t64.5 396.5t-64.5 396.5t-171.5 150.5 q-70 0 -124 -69t-84 -192.5t-30 -285.5z" />
<glyph unicode="1" horiz-adv-x="835" d="M8 1141l459 375h213v-1516h-279v1141l-254 -199z" />
<glyph unicode="2" horiz-adv-x="1099" d="M76 0v176l422 510q100 123 160.5 222.5t60.5 205.5q0 86 -47 138.5t-123 52.5q-82 0 -131 -62.5t-49 -163.5l-279 23q0 129 56.5 227t160 152.5t238.5 54.5t237.5 -50t158.5 -142.5t56 -213.5q0 -147 -77.5 -283t-237.5 -321l-252 -299l584 4v-231h-938z" />
<glyph unicode="3" horiz-adv-x="1077" d="M53 131l107 199q47 -57 121.5 -88t160.5 -31q127 0 201 68.5t74 183.5q0 109 -71 174t-187 65q-98 0 -178 -49l-74 142l375 489h-463v232h807v-175l-353 -426q127 -2 224.5 -58t149.5 -158.5t52 -233.5q0 -145 -63.5 -255t-182 -170t-280.5 -60q-127 0 -239.5 39.5 t-180.5 111.5z" />
<glyph unicode="4" horiz-adv-x="1193" d="M39 295v194l686 1027h217v-990h186v-231h-186v-295h-278v295h-625zM354 518h318l4 492z" />
<glyph unicode="5" horiz-adv-x="1097" d="M45 115l82 202q57 -53 136 -79.5t169 -26.5q135 0 218 75.5t83 200.5q0 106 -59.5 172t-155.5 66q-57 0 -108.5 -16.5t-85.5 -44.5l-174 26l92 826h708v-232h-477l-45 -350q63 23 147 22q129 0 230.5 -56t158 -158.5t56.5 -235.5q0 -156 -71.5 -275.5t-198.5 -185 t-291 -65.5q-129 0 -235.5 33.5t-178.5 101.5z" />
<glyph unicode="6" horiz-adv-x="1093" d="M72 459q0 123 34.5 227.5t108.5 216.5l389 613h314l-402 -596q43 6 96 6q117 0 214.5 -57.5t153.5 -163t56 -240.5q0 -143 -60.5 -254t-169 -171t-251.5 -60t-252.5 60t-170 168.5t-60.5 250.5zM352 461q0 -113 55.5 -181.5t145.5 -68.5t146.5 68.5t56.5 181.5 t-56.5 183.5t-146.5 70.5t-145.5 -71t-55.5 -183z" />
<glyph unicode="7" horiz-adv-x="1003" d="M43 1284v232h932l-457 -1516h-293l398 1284h-580z" />
<glyph unicode="8" horiz-adv-x="1138" d="M86 418q0 127 60.5 222t166.5 146q-92 51 -141 137.5t-49 196.5q0 123 55 217.5t156.5 146.5t234.5 52t234.5 -51t157 -145.5t55.5 -217.5q0 -111 -50.5 -196.5t-140.5 -137.5q107 -51 167.5 -146t60.5 -220q0 -131 -60.5 -231.5t-170 -155.5t-253.5 -55 q-143 0 -252.5 55t-170 154.5t-60.5 228.5zM369 440q0 -104 55 -166.5t145 -62.5t145.5 62.5t55.5 166.5q0 102 -55.5 165t-145.5 63t-145 -62.5t-55 -165.5zM401 1102q0 -90 46.5 -145.5t121.5 -55.5q76 0 122 55.5t46 145.5t-46 146.5t-122 56.5q-75 0 -121.5 -56.5 t-46.5 -146.5z" />
<glyph unicode="9" horiz-adv-x="1093" d="M55 1051q0 143 60.5 253.5t169 171t252.5 60.5q143 0 252.5 -60.5t170 -169t60.5 -249.5q0 -123 -35 -227.5t-108 -217.5l-390 -612h-313l401 596q-43 -6 -96 -6q-117 0 -214 57.5t-153.5 162.5t-56.5 241zM336 1055q0 -113 56.5 -183.5t146.5 -70.5t145 70.5t55 183.5 t-55 181.5t-145 68.5t-146.5 -69t-56.5 -181z" />
<glyph unicode=":" horiz-adv-x="548" d="M100 158q0 72 51.5 124t122.5 52q72 0 123.5 -52.5t51.5 -123.5q0 -74 -51.5 -126t-123.5 -52q-71 0 -122.5 52t-51.5 126zM100 946q0 74 51.5 126t122.5 52q72 0 123.5 -52t51.5 -126q0 -72 -51.5 -124t-123.5 -52q-71 0 -122.5 52t-51.5 124z" />
<glyph unicode=";" horiz-adv-x="600" d="M43 -297l129 555h309l-168 -555h-270zM137 946q0 74 52.5 126t123.5 52q72 0 122 -52t50 -126q0 -72 -51 -124t-121 -52q-71 0 -123.5 52t-52.5 124z" />
<glyph unicode="&#x3c;" horiz-adv-x="1073" d="M66 631v172l880 440v-254l-547 -272l547 -273v-254z" />
<glyph unicode="=" horiz-adv-x="1122" d="M119 379v223h885v-223h-885zM119 834v221h885v-221h-885z" />
<glyph unicode="&#x3e;" horiz-adv-x="1073" d="M127 190v254l549 273l-549 272v254l881 -440v-172z" />
<glyph unicode="?" horiz-adv-x="1021" d="M59 1137q10 180 130 289.5t309 109.5q137 0 240.5 -50t160.5 -140.5t57 -208.5q0 -111 -42 -179.5t-123 -144.5q-57 -55 -93 -100t-60 -113t-24 -164h-229q0 137 26.5 230.5t65.5 149.5t94 112q53 53 78 95t25 101q0 82 -49.5 131.5t-126.5 49.5q-78 0 -128.5 -49.5 t-56.5 -131.5zM340 141q0 70 45 115t115 45t113.5 -45t43.5 -115t-44 -115.5t-113 -45.5q-70 0 -115 46t-45 115z" />
<glyph unicode="@" horiz-adv-x="2088" d="M78 532q0 301 124 528.5t350 351.5t527 124q274 0 483.5 -105.5t325 -299t115.5 -451.5q0 -174 -54.5 -312.5t-151.5 -215t-224 -76.5q-102 0 -180 49t-119 137q-45 -88 -122 -138t-177 -50q-111 0 -201 57t-141 162.5t-51 241.5q0 137 51 242.5t139 163.5t195 58 q152 0 235 -120l4 104h258v-537q0 -63 28 -101t75 -38q76 0 122 99.5t46 252.5q0 197 -82 343.5t-230.5 225.5t-343.5 79q-217 0 -380.5 -97.5t-252 -273.5t-88.5 -408q0 -229 87 -403t250 -269.5t384 -95.5q106 0 251 19.5t253 50.5l80 -209q-125 -41 -291 -66.5 t-303 -25.5q-299 0 -523 125t-346 352t-122 526zM858 537q0 -102 46 -167t122 -65t123 64.5t47 167.5q0 104 -47 167.5t-123 63.5t-122 -63.5t-46 -167.5z" />
<glyph unicode="A" d="M-6 0l579 1516h258l580 -1516h-299l-106 307h-607l-108 -307h-297zM481 539h443l-219 630z" />
<glyph unicode="B" horiz-adv-x="1312" d="M158 0v1516h592q186 0 300.5 -109t114.5 -289q0 -100 -49 -181t-141 -134q125 -45 195.5 -141.5t70.5 -223.5q0 -129 -60.5 -228t-171 -154.5t-255.5 -55.5h-596zM438 231h291q100 0 161.5 59.5t61.5 158.5q0 94 -61.5 153.5t-159.5 59.5h-293v-431zM438 895h236 q92 0 147.5 53t55.5 142q0 88 -55.5 141t-145.5 53h-238v-389z" />
<glyph unicode="C" horiz-adv-x="1419" d="M78 762q0 229 91 405t256 272.5t380 96.5q338 0 541 -244l-175 -180q-59 88 -153 140.5t-209 52.5q-131 0 -231.5 -68t-155.5 -191.5t-55 -285.5q0 -164 55 -288t156.5 -192.5t234.5 -68.5q248 0 389 242l189 -168q-102 -150 -250 -227.5t-334 -77.5q-215 0 -381 97 t-257 275t-91 410z" />
<glyph unicode="D" horiz-adv-x="1458" d="M158 0v1516h534q205 0 360.5 -94.5t241.5 -266.5t86 -397t-86 -397.5t-241.5 -266.5t-360.5 -94h-534zM438 231h256q117 0 207 65.5t140.5 185.5t50.5 276q0 158 -50.5 276.5t-140.5 184t-207 65.5h-256v-1053z" />
<glyph unicode="E" horiz-adv-x="1206" d="M158 0v1516h940v-232h-660v-399h600v-232h-600v-422h674v-231h-954z" />
<glyph unicode="F" horiz-adv-x="1095" d="M158 0v1516h876v-232h-596v-440h508v-232h-508v-612h-280z" />
<glyph unicode="G" horiz-adv-x="1509" d="M78 758q0 231 87 407t247.5 273.5t373.5 97.5q297 0 488 -166l-184 -176q-100 111 -299 111q-125 0 -221.5 -69t-149.5 -192.5t-53 -285.5t52 -286t148.5 -192.5t220.5 -68.5q164 0 265.5 110.5t117.5 296.5h-340v232h627q4 -31 4 -92q0 -231 -83 -407.5t-235.5 -273.5 t-357.5 -97q-211 0 -371.5 97t-248.5 273t-88 408z" />
<glyph unicode="H" horiz-adv-x="1585" d="M158 0v1516h280v-629h711v629h278v-1516h-278v655h-711v-655h-280z" />
<glyph unicode="I" horiz-adv-x="595" d="M158 0v1516h280v-1516h-280z" />
<glyph unicode="J" horiz-adv-x="792" d="M6 90l74 189q61 -68 143 -68q66 0 104 42t38 109v1154h278v-1201q0 -152 -101.5 -243.5t-262.5 -91.5h-3q-173 0 -270 110z" />
<glyph unicode="K" horiz-adv-x="1310" d="M158 0v1516h280v-625h107l424 625h329l-514 -738l539 -778h-328l-448 659h-109v-659h-280z" />
<glyph unicode="L" horiz-adv-x="1060" d="M158 0v1516h280v-1285h594v-231h-874z" />
<glyph unicode="M" horiz-adv-x="1847" d="M117 0l92 1524h309l406 -1067l405 1067h309l93 -1524h-279l-51 1020l-402 -1020h-151l-402 1020l-51 -1020h-278z" />
<glyph unicode="N" horiz-adv-x="1607" d="M158 0v1516h174l846 -1006l-7 1006h279v-1516h-174l-844 1006l6 -1006h-280z" />
<glyph unicode="O" horiz-adv-x="1595" d="M78 758q0 231 90 407t254 273.5t379 97.5q213 0 375.5 -97.5t253 -273.5t90.5 -407t-90.5 -407.5t-253 -273.5t-375.5 -97q-215 0 -379 97t-254 273t-90 408zM367 758q0 -162 54 -286t152.5 -192.5t227.5 -68.5q127 0 225 68.5t151.5 192.5t53.5 286t-53.5 285.5 t-151.5 192.5t-225 69q-129 0 -227.5 -69t-152.5 -192.5t-54 -285.5z" />
<glyph unicode="P" horiz-adv-x="1253" d="M158 0v1516h549q147 0 259.5 -60.5t175 -171t62.5 -256.5q0 -152 -63.5 -266.5t-179 -178t-267.5 -63.5h-256v-520h-280zM438 752h240q110 0 173.5 72.5t63.5 193.5t-65.5 193.5t-171.5 72.5h-240v-532z" />
<glyph unicode="Q" horiz-adv-x="1597" d="M78 758q0 231 90 407t254 273.5t379 97.5q213 0 375.5 -97.5t253 -273.5t90.5 -407q0 -154 -41 -285t-117 -231l194 -242h-321l-59 76q-166 -96 -375 -96q-215 0 -379 97t-254 273t-90 408zM367 758q0 -162 54 -286t152.5 -192.5t227.5 -68.5h4q122 0 215 65l-221 285 h303l74 -92q55 123 55 289q0 162 -53.5 285.5t-151.5 192.5t-225 69q-129 0 -227.5 -69t-152.5 -192.5t-54 -285.5z" />
<glyph unicode="R" horiz-adv-x="1355" d="M158 0v1516h569q147 0 259 -59.5t173.5 -168t61.5 -250.5q0 -143 -67 -251.5t-187 -168.5l362 -618h-325l-314 561h-252v-561h-280zM438 793h236q117 0 188.5 67.5t71.5 177.5q0 111 -65.5 178.5t-172.5 67.5h-258v-491z" />
<glyph unicode="S" horiz-adv-x="1206" d="M90 1079q0 135 63.5 238.5t180.5 161t268 57.5q264 0 465 -174l-123 -195q-150 137 -334 138q-106 0 -168.5 -49.5t-62.5 -131.5t60.5 -128t176.5 -83l76 -26q195 -63 315.5 -170t120.5 -291q0 -133 -66.5 -234.5t-186 -156.5t-277.5 -55q-143 0 -271 48t-221 140 l107 190q160 -147 365 -147q123 0 192.5 49t69.5 139q0 84 -69 136.5t-208 99.5l-76 24q-193 63 -295 157.5t-102 262.5z" />
<glyph unicode="T" horiz-adv-x="1159" d="M27 1284v232h1103v-232h-411v-1284h-279v1284h-413z" />
<glyph unicode="U" horiz-adv-x="1490" d="M143 518v998h279v-986q0 -145 89 -232t237 -87q145 0 233 88t88 231v986h279v-998q0 -160 -75 -281.5t-211 -189t-317 -67.5q-178 0 -315 67.5t-212 189t-75 281.5z" />
<glyph unicode="V" horiz-adv-x="1406" d="M-6 1516h299l412 -1170l409 1170h297l-577 -1516h-261z" />
<glyph unicode="W" horiz-adv-x="2107" d="M4 1516h297l315 -1141l308 1141h260l309 -1141l313 1141h297l-467 -1516h-260l-321 1079l-324 -1079h-258z" />
<glyph unicode="X" horiz-adv-x="1277" d="M-6 0l491 782l-458 734h321l291 -490l291 490h321l-458 -732l493 -784h-319l-328 543l-324 -543h-321z" />
<glyph unicode="Y" horiz-adv-x="1286" d="M18 1516h299l328 -705l326 705h297l-486 -953v-563h-278v563z" />
<glyph unicode="Z" horiz-adv-x="1241" d="M68 0v174l727 1110h-717v232h1081v-175l-727 -1110h746v-231h-1110z" />
<glyph unicode="[" horiz-adv-x="733" d="M145 -369v1966h533v-231h-254v-1503h254v-232h-533z" />
<glyph unicode="\" horiz-adv-x="843" d="M66 1597h272l440 -1802h-272z" />
<glyph unicode="]" horiz-adv-x="733" d="M55 -137h254v1503h-254v231h535v-1966h-535v232z" />
<glyph unicode="^" horiz-adv-x="1030" d="M78 641l307 668h260l307 -668h-262l-174 383l-176 -383h-262z" />
<glyph unicode="_" horiz-adv-x="1107" d="M47 0h1016v-193h-1016v193z" />
<glyph unicode="`" horiz-adv-x="1228" d="M-39 1595h314l251 -329h-229z" />
<glyph unicode="a" horiz-adv-x="1069" d="M53 322q0 104 53.5 183t149.5 123t223 44q102 0 209 -25v23q0 115 -60.5 178t-170.5 63q-133 0 -226 -92l-116 162q84 72 183 107.5t228 35.5q127 0 225.5 -53t152.5 -151.5t54 -225.5v-694h-262l-4 150q-49 -82 -127 -126t-166 -44q-156 0 -251 93t-95 249zM324 326 q0 -72 38.5 -113t110.5 -41q88 0 151.5 80t63.5 213q-88 20 -172 20q-88 0 -140 -44t-52 -115z" />
<glyph unicode="b" horiz-adv-x="1259" d="M123 0v1597h270v-647q113 174 320 174q133 0 242.5 -72.5t172 -203.5t62.5 -301q0 -166 -62.5 -295t-172 -200.5t-242.5 -71.5q-109 0 -191 47t-133 133l-6 -160h-260zM393 551q0 -154 71 -247t187 -93q117 0 188.5 93t71.5 245q0 156 -71.5 250t-188.5 94t-187.5 -94 t-70.5 -248z" />
<glyph unicode="c" horiz-adv-x="1013" d="M68 553q0 170 67.5 299t189 200.5t283.5 71.5q193 0 342 -127l-151 -184q-74 80 -185 80q-121 0 -193.5 -94t-72.5 -248t73 -247t193 -93q141 0 217 100l154 -178q-72 -78 -169 -115.5t-214 -37.5q-160 0 -280.5 71.5t-187 201.5t-66.5 300z" />
<glyph unicode="d" horiz-adv-x="1257" d="M68 547q0 170 62.5 301t172 203.5t242.5 72.5q207 0 319 -174v647h271v-1597h-261l-6 160q-51 -86 -133 -133t-190 -47q-133 0 -242.5 71.5t-172 200.5t-62.5 295zM346 549q0 -152 71.5 -245t186.5 -93q117 0 188.5 93t71.5 247t-71.5 248t-188.5 94q-115 0 -186.5 -94 t-71.5 -250z" />
<glyph unicode="e" horiz-adv-x="1134" d="M68 545q0 172 62.5 303t176 203.5t262.5 72.5q150 0 263.5 -69.5t176 -195.5t62.5 -292q0 -63 -6 -112h-713q27 -262 228 -262q70 0 129 34.5t102 98.5l207 -105q-68 -113 -181.5 -177t-252.5 -64q-154 0 -270.5 70.5t-181 198.5t-64.5 296zM352 639h439 q-12 131 -68.5 201.5t-153.5 70.5q-94 0 -148 -70.5t-69 -201.5z" />
<glyph unicode="f" horiz-adv-x="757" d="M49 883v221h160v186q0 147 90 237.5t236 90.5q139 0 223 -43l-19 -211q-49 22 -111 22h-5q-66 0 -106 -37.5t-40 -99.5v-145h252v-221h-252v-883h-268v883h-160z" />
<glyph unicode="g" horiz-adv-x="1257" d="M70 557q0 166 62.5 295t171 200.5t241.5 71.5q215 0 325 -180l7 160h260v-1026q0 -164 -74 -289t-210 -192.5t-314 -67.5q-133 0 -247 35t-198 104l60 213q158 -121 378 -121q152 0 243 88.5t91 233.5v70q-111 -172 -321 -172q-133 0 -241.5 72.5t-171 203.5t-62.5 301z M348 553q0 -154 72 -248t186 -94q117 0 188.5 94t71.5 246q0 154 -71.5 248t-188.5 94q-115 0 -186.5 -94t-71.5 -246z" />
<glyph unicode="h" horiz-adv-x="1212" d="M123 0v1597h270v-616q55 70 137 106.5t177 36.5q178 0 286.5 -109.5t108.5 -289.5v-725h-271v682q0 96 -59 153.5t-160 57.5q-100 0 -159.5 -57.5t-59.5 -153.5v-682h-270z" />
<glyph unicode="i" horiz-adv-x="518" d="M100 1448q0 70 45 116t115 46t114 -45t44 -117q0 -70 -44 -115t-114 -45t-115 45t-45 115zM125 0v1104h268v-1104h-268z" />
<glyph unicode="j" horiz-adv-x="526" d="M-117 -436l19 213q41 -16 98 -17q59 0 96 40t37 108v1196h270v-1258q0 -143 -88 -230t-233 -87q-119 0 -199 35zM106 1448q0 70 45.5 116t114.5 46q68 0 113 -46t45 -116t-45 -115t-113 -45q-69 0 -114.5 45t-45.5 115z" />
<glyph unicode="k" horiz-adv-x="1128" d="M123 0v1597h270v-907h84l316 414h331l-419 -522l442 -582h-332l-338 469h-84v-469h-270z" />
<glyph unicode="l" horiz-adv-x="520" d="M125 0v1597h270v-1597h-270z" />
<glyph unicode="m" horiz-adv-x="1812" d="M123 0v1104h260l4 -121q51 70 127 105.5t166 35.5q96 0 174 -40t125 -111q55 74 137 112.5t178 38.5q119 0 211 -50t143.5 -140t51.5 -209v-725h-270v682q0 96 -52.5 153.5t-140.5 57.5q-86 0 -138 -57.5t-52 -153.5v-682h-271v682q0 96 -52 153.5t-140 57.5 q-86 0 -138.5 -57.5t-52.5 -153.5v-682h-270z" />
<glyph unicode="n" horiz-adv-x="1212" d="M123 0v1104h260l4 -131q55 74 139 112.5t181 38.5q178 0 286.5 -109.5t108.5 -289.5v-725h-271v682q0 96 -59 153.5t-160 57.5q-100 0 -159.5 -57.5t-59.5 -153.5v-682h-270z" />
<glyph unicode="o" horiz-adv-x="1210" d="M68 551q0 170 67.5 300t189 201.5t281.5 71.5q158 0 280 -71.5t188.5 -201.5t66.5 -300t-66.5 -299t-188.5 -200.5t-280 -71.5q-160 0 -281.5 71.5t-189 200.5t-67.5 299zM346 551q0 -152 71.5 -246t186.5 -94q117 0 187.5 94t70.5 246q0 154 -70.5 248t-187.5 94 q-115 0 -186.5 -94t-71.5 -248z" />
<glyph unicode="p" horiz-adv-x="1259" d="M123 -451v1555h260l6 -160q51 86 133 133t191 47q133 0 242.5 -71.5t172 -200.5t62.5 -295q0 -170 -62.5 -301t-172 -203.5t-242.5 -72.5q-209 0 -320 172v-603h-270zM393 551q0 -152 71 -246t187 -94q117 0 188.5 94t71.5 248q0 152 -71.5 246t-188.5 94t-187.5 -94 t-70.5 -248z" />
<glyph unicode="q" horiz-adv-x="1257" d="M68 557q0 166 62.5 295t172 200.5t242.5 71.5q109 0 190.5 -47t132.5 -133l6 160h261v-1555h-271v603q-111 -172 -319 -172q-133 0 -242.5 72.5t-172 203.5t-62.5 301zM346 553q0 -154 71.5 -248t186.5 -94q117 0 188.5 94t71.5 246q0 154 -71.5 248t-188.5 94 q-115 0 -186.5 -94t-71.5 -246z" />
<glyph unicode="r" horiz-adv-x="761" d="M123 0v1104h260l4 -141q59 77 152.5 119t210.5 42l-19 -247q-152 0 -245 -77t-93 -204v-596h-270z" />
<glyph unicode="s" horiz-adv-x="956" d="M78 109l102 163q123 -82 277 -82q68 0 109.5 31t41.5 84q0 49 -42 82t-122 55l-79 27q-141 41 -214 106.5t-73 186.5q0 164 109.5 263t289.5 99q231 0 381 -108l-113 -178q-108 73 -237 73h-4q-68 0 -110 -28.5t-42 -77.5q0 -47 37 -75t109 -50l77 -25 q145 -45 226.5 -120.5t81.5 -208.5q0 -156 -116 -251t-304 -95q-119 0 -217.5 32.5t-167.5 96.5z" />
<glyph unicode="t" horiz-adv-x="808" d="M33 883v221h164v323h270v-323h283v-221h-283v-533q0 -63 36 -101t93 -38q90 0 168 35v-217q-115 -49 -256 -49q-139 0 -225 86t-86 229v588h-164z" />
<glyph unicode="u" horiz-adv-x="1173" d="M113 377v727h268v-684q0 -94 55.5 -151.5t145.5 -57.5t145 57.5t55 151.5v684h269v-1104h-258l-5 125q-53 -72 -130.5 -108.5t-170.5 -36.5q-168 0 -271 109.5t-103 287.5z" />
<glyph unicode="v" horiz-adv-x="1122" d="M8 1104h295l258 -797l256 797h295l-416 -1104h-270z" />
<glyph unicode="w" horiz-adv-x="1697" d="M12 1104h295l221 -797l211 797h219l211 -797l222 797h295l-363 -1104h-270l-203 727l-205 -727h-270z" />
<glyph unicode="x" horiz-adv-x="1085" d="M6 0l379 563l-356 541h315l201 -322l198 322h316l-359 -539l381 -565h-315l-221 350l-223 -350h-316z" />
<glyph unicode="y" horiz-adv-x="1120" d="M12 1104h295l266 -789l248 789h295l-465 -1235q-61 -172 -143 -256t-223 -84q-97 0 -152 31l27 217q37 -16 80 -17q55 0 87.5 35t61.5 107l47 123z" />
<glyph unicode="z" horiz-adv-x="1017" d="M72 0v174l495 709h-487v221h852v-174l-494 -707h512v-223h-878z" />
<glyph unicode="{" horiz-adv-x="780" d="M55 498v233h13q59 0 97 46t38 122v393q0 147 85 236.5t224 89.5q111 0 213 -27v-217q-47 12 -109 12q-61 0 -98 -48t-37 -126v-346q0 -94 -44 -162.5t-115 -89.5q72 -20 115.5 -88.5t43.5 -163.5v-346q0 -78 37 -126t98 -48q63 0 109 13v-217q-102 -27 -213 -27 q-139 0 -224 89t-85 237v393q0 76 -38 122t-97 46h-13z" />
<glyph unicode="|" horiz-adv-x="569" d="M145 -451v2048h279v-2048h-279z" />
<glyph unicode="}" horiz-adv-x="780" d="M55 -145q47 -12 109 -13q59 0 97 48.5t38 125.5v346q0 94 43 163t115 89q-72 20 -115 89t-43 163v346q0 78 -38 126t-97 48q-61 0 -109 -12v217q102 27 213 27q139 0 224.5 -89t85.5 -237v-393q0 -76 37.5 -122t97.5 -46h12v-233h-12q-59 0 -97 -46t-38 -122v-393 q0 -147 -85 -236.5t-225 -89.5q-111 0 -213 27v217z" />
<glyph unicode="~" horiz-adv-x="1112" d="M121 471q0 131 68.5 211t181.5 80q57 0 109 -18.5t116 -49.5q55 -25 87 -36t60 -11q51 0 80 23.5t29 70.5h145q0 -137 -67.5 -213.5t-181.5 -76.5q-54 0 -106 18t-120 51q-10 4 -43 19.5t-58.5 22.5t-45.5 7q-49 0 -79 -26.5t-30 -71.5h-145z" />
<glyph unicode="&#xa1;" horiz-adv-x="520" d="M100 963q0 70 45 115.5t115 45.5t114 -45t44 -116q0 -70 -44 -116t-114 -46t-115 46t-45 116zM119 -451l26 1119h230l24 -1119h-280z" />
<glyph unicode="&#xa2;" horiz-adv-x="1077" d="M68 655q0 223 113.5 374t307.5 188v172h244v-177q123 -31 217 -112l-151 -185q-74 80 -185 80q-121 0 -193.5 -94t-72.5 -248t73 -247t193 -93q141 0 217 101l154 -178q-98 -107 -252 -140v-178h-244v174q-195 35 -308 186.5t-113 376.5z" />
<glyph unicode="&#xa3;" horiz-adv-x="1155" d="M90 0v219h125v397h-106v222h106v329q0 166 115.5 267.5t304.5 101.5q186 0 301 -102.5t115 -270.5l-269 -18q0 72 -41 116t-106 44q-63 0 -103 -41t-40 -109v-317h491v-222h-491v-393h569v-223h-971z" />
<glyph unicode="&#xa4;" horiz-adv-x="1191" d="M98 328l127 137q-59 109 -59 240q0 125 59 237l-127 137l164 164l121 -133q96 59 213 59q113 0 213 -61l121 133l164 -164l-129 -139q57 -104 57 -233q0 -127 -57 -236l129 -139l-164 -164l-121 131q-100 -61 -213 -61q-111 0 -213 59l-121 -131zM381 705 q0 -113 62.5 -191t152.5 -78q88 0 149.5 78t61.5 191q0 111 -61.5 189.5t-149.5 78.5q-59 0 -108.5 -36t-78 -98.5t-28.5 -133.5z" />
<glyph unicode="&#xa5;" horiz-adv-x="1351" d="M51 1516h299l328 -705l326 705h296l-403 -791h197v-172h-279v-100h279v-174h-279v-279h-278v279h-279v174h279v100h-279v172h197z" />
<glyph unicode="&#xa6;" horiz-adv-x="565" d="M143 369h279v-820h-279v820zM143 778v819h279v-819h-279z" />
<glyph unicode="&#xa7;" horiz-adv-x="1140" d="M94 629q0 164 88 284q-88 94 -88 248q0 135 58.5 238.5t166 161t248.5 57.5q242 0 430 -174l-120 -195q-70 70 -142.5 103.5t-154.5 33.5q-90 0 -143.5 -49t-53.5 -131q0 -84 51 -127t160 -84l63 -24q180 -68 289 -173.5t109 -289.5q0 -162 -92 -277q92 -106 92 -256 q0 -133 -61.5 -234t-172 -156.5t-256.5 -55.5q-133 0 -249.5 48t-204.5 140l100 187q150 -143 332 -144q104 0 163.5 49.5t59.5 137.5q0 86 -57.5 137t-176.5 94l-67 25q-121 45 -200 96t-125 131t-46 199zM362 674q0 -63 29 -105.5t76 -69t127 -57.5l63 -24l101 -41 q27 47 26 104q0 94 -62.5 148.5t-189.5 101.5l-67 25q-41 14 -70 26q-33 -45 -33 -108z" />
<glyph unicode="&#xa8;" horiz-adv-x="1228" d="M93 1448q0 70 45 116t114 46q68 0 113 -46t45 -116t-45 -115t-113 -45q-69 0 -114 45t-45 115zM555 1448q0 70 45 116t115 46t114 -45t44 -117q0 -70 -44 -115t-114 -45t-115 45t-45 115z" />
<glyph unicode="&#xa9;" horiz-adv-x="1601" d="M82 758q0 231 89 407t253 273.5t377 97.5t375.5 -97.5t252 -273.5t89.5 -407t-89.5 -407.5t-252 -273.5t-375.5 -97t-377 97t-253 273t-89 408zM233 758q0 -195 72 -343.5t200 -230.5t296 -82t296 82t199.5 230.5t71.5 343.5t-71.5 343t-199.5 230t-296 82t-296 -82 t-200 -230.5t-72 -342.5zM408 754q0 193 111.5 309.5t295.5 116.5q193 0 303 -136l-114 -112q-29 43 -77 69.5t-108 26.5q-100 0 -162.5 -75.5t-62.5 -200.5t63.5 -201t165.5 -76q127 0 199 125l123 -108q-113 -168 -328 -168q-121 0 -214 53t-144 151.5t-51 225.5z" />
<glyph unicode="&#xaa;" horiz-adv-x="737" d="M78 1055q0 96 70.5 154.5t185.5 58.5q47 0 123 -15v11q0 66 -36 102.5t-99 36.5q-82 0 -136 -53l-71 102q100 84 250 84q116 0 187 -70.5t71 -187.5v-416h-160l-2 88q-31 -49 -76 -74.5t-98 -25.5q-94 0 -151.5 56.5t-57.5 148.5zM250 1059q0 -41 21.5 -64.5t64.5 -23.5 q49 0 85 46t36 122q-51 12 -99 12q-49 0 -78.5 -25.5t-29.5 -66.5z" />
<glyph unicode="&#xab;" horiz-adv-x="1255" d="M61 553l334 469h287l-324 -469l324 -469h-287zM567 553l332 469h287l-322 -469l322 -469h-287z" />
<glyph unicode="&#xac;" horiz-adv-x="1116" d="M106 715v221h885v-555h-268v334h-617z" />
<glyph unicode="&#xad;" horiz-adv-x="897" d="M113 498v192h671v-192h-671z" />
<glyph unicode="&#xae;" horiz-adv-x="753" d="M86 1300q0 143 80 230.5t211 87.5t211 -87t80 -231q0 -141 -80 -229t-211 -88t-211 88t-80 229zM141 1300q0 -121 64.5 -194.5t171.5 -73.5q104 0 168.5 74t64.5 194q0 123 -64.5 197t-168.5 74q-106 0 -171 -74t-65 -197zM256 1133v333h129q51 0 81 -29.5t30 -76.5 q-1 -67 -58 -92l78 -135h-76l-67 120h-49v-120h-68zM324 1311h47q25 0 40 13t15 36t-13.5 36t-35.5 13h-53v-98z" />
<glyph unicode="&#xaf;" horiz-adv-x="1228" d="M70 1280v213h667v-213h-667z" />
<glyph unicode="&#xb0;" horiz-adv-x="667" d="M70 1358q0 117 72.5 188.5t191.5 71.5t190.5 -71.5t71.5 -188.5t-71.5 -188.5t-190.5 -71.5t-191.5 71.5t-72.5 188.5zM233 1358q0 -53 28 -87t73 -34t71.5 34t26.5 87q0 55 -26.5 89t-71.5 34t-73 -34t-28 -89z" />
<glyph unicode="&#xb1;" horiz-adv-x="1130" d="M121 74v223h889v-223h-889zM121 774v221h309v357h270v-357h310v-221h-310v-356h-270v356h-309z" />
<glyph unicode="&#xb2;" horiz-adv-x="679" d="M53 811v111l254 311q59 74 94 130t35 118q0 49 -26.5 78.5t-69.5 29.5q-47 0 -75.5 -34.5t-28.5 -92.5l-173 15q0 115 76 185.5t199 70.5t196.5 -65.5t73.5 -174.5q0 -88 -46 -169t-144 -197l-148 -174l351 2v-144h-568z" />
<glyph unicode="&#xb3;" horiz-adv-x="663" d="M37 889l65 125q29 -33 72 -52.5t92 -19.5q76 0 119 40t43 108q0 66 -40 103.5t-107 37.5q-57 0 -105 -29l-47 88l223 287h-274v144h485v-109l-207 -248q115 -4 183.5 -78.5t68.5 -195.5q0 -131 -86 -211t-233 -80q-76 0 -144.5 23.5t-107.5 66.5z" />
<glyph unicode="&#xb4;" horiz-adv-x="1228" d="M190 1266l252 329h314l-336 -329h-230z" />
<glyph unicode="&#xb6;" horiz-adv-x="1165" d="M55 1163q0 158 87 255.5t229 97.5h620v-1967h-200v1772h-152v-1772h-203v1256h-112q-121 0 -195 98t-74 260z" />
<glyph unicode="&#xb7;" horiz-adv-x="532" d="M92 596q0 72 51.5 124t122.5 52q72 0 123 -52t51 -124q0 -74 -51 -126t-123 -52q-71 0 -122.5 52t-51.5 126z" />
<glyph unicode="&#xb8;" horiz-adv-x="1228" d="M32 -420l47 101q43 -39 111 -39q45 0 71.5 20.5t26.5 52.5q0 31 -23.5 48.5t-64.5 17.5q-37 0 -65 -17l-35 62l84 174h149l-63 -113q88 -2 140 -50t52 -122q0 -84 -66.5 -135t-178.5 -51q-55 0 -104.5 14.5t-80.5 36.5z" />
<glyph unicode="&#xb9;" horiz-adv-x="516" d="M8 1495l275 226h133v-910h-172v680l-150 -119z" />
<glyph unicode="&#xba;" horiz-adv-x="790" d="M72 1194q0 154 90 248t235 94t233.5 -94t88.5 -248q0 -156 -88 -250t-234 -94q-147 0 -236 94t-89 250zM244 1194q0 -90 42 -144.5t111 -54.5q68 0 109 54.5t41 144.5q0 88 -42 143.5t-108 55.5q-70 0 -111.5 -54.5t-41.5 -144.5z" />
<glyph unicode="&#xbb;" horiz-adv-x="1255" d="M70 84l321 469l-321 469h286l332 -469l-332 -469h-286zM573 84l324 469l-324 469h287l334 -469l-334 -469h-287z" />
<glyph unicode="&#xbc;" horiz-adv-x="1587" d="M8 1290l275 226h133v-910h-172v680l-150 -119zM268 68l772 1468l142 -86l-770 -1470zM883 174v123l411 612h135v-587h111v-148h-111v-174h-172v174h-374zM1069 315h193v293z" />
<glyph unicode="&#xbd;" horiz-adv-x="1615" d="M8 1290l275 226h133v-910h-172v680l-150 -119zM268 68l772 1468l142 -86l-770 -1470zM989 0v111l254 311q59 74 94 130t35 118q0 49 -26.5 78.5t-69.5 29.5q-47 0 -75.5 -34.5t-28.5 -92.5l-173 15q0 115 76 185.5t199 70.5t196.5 -65.5t73.5 -174.5q0 -88 -46 -169 t-144 -198l-148 -174l351 2v-143h-568z" />
<glyph unicode="&#xbe;" horiz-adv-x="1734" d="M37 684l65 125q29 -33 72 -52.5t92 -19.5q76 0 119 40t43 108q0 66 -40 103.5t-107 37.5q-57 0 -105 -29l-47 88l223 287h-274v144h485v-109l-207 -248q115 -4 183.5 -78.5t68.5 -195.5q0 -131 -86 -211t-233 -80q-76 0 -144.5 23.5t-107.5 66.5zM416 68l772 1468 l142 -86l-770 -1470zM1031 174v123l411 612h135v-587h111v-148h-111v-174h-172v174h-374zM1217 315h193v293z" />
<glyph unicode="&#xbf;" horiz-adv-x="1009" d="M59 -72q0 76 22.5 133.5t53.5 95.5t88 97t93 108.5t60.5 125t24.5 180.5h232q0 -147 -26.5 -249t-65.5 -162t-97 -120q-51 -53 -75.5 -95t-24.5 -101q0 -82 48 -131.5t128 -49.5q76 0 126 49.5t59 131.5l251 -13q-8 -180 -127.5 -289.5t-308.5 -109.5q-137 0 -241.5 50 t-162 140.5t-57.5 208.5zM358 963q0 70 45.5 115.5t114.5 45.5q70 0 114 -45t44 -116q0 -70 -44 -116t-114 -46q-69 0 -114.5 46t-45.5 116z" />
<glyph unicode="&#xc0;" d="M-6 0l579 1516h258l580 -1516h-299l-106 307h-607l-108 -307h-297zM305 2007h314l251 -329h-229zM481 539h443l-219 630z" />
<glyph unicode="&#xc1;" d="M-6 0l579 1516h258l580 -1516h-299l-106 307h-607l-108 -307h-297zM481 539h443l-219 630zM537 1678l252 329h313l-336 -329h-229z" />
<glyph unicode="&#xc2;" d="M-6 0l579 1516h258l580 -1516h-299l-106 307h-607l-108 -307h-297zM332 1678l244 329h256l240 -329h-238l-131 172l-131 -172h-240zM481 539h443l-219 630z" />
<glyph unicode="&#xc3;" d="M-6 0l579 1516h258l580 -1516h-299l-106 307h-607l-108 -307h-297zM340 1700q0 131 58 212t155 81q45 0 85 -17.5t97 -50.5q41 -25 66.5 -37t48.5 -12q33 0 52 24.5t19 72.5h146q0 -137 -58.5 -215t-154.5 -78q-41 0 -81 17.5t-98 49.5q-47 29 -71.5 40t-46.5 11 q-33 0 -52.5 -26.5t-19.5 -71.5h-145zM481 539h443l-219 630z" />
<glyph unicode="&#xc4;" d="M-6 0l579 1516h258l580 -1516h-299l-106 307h-607l-108 -307h-297zM314 1860q0 70 45 116t114 46q68 0 113 -46t45 -116t-45 -115t-113 -45q-69 0 -114 45t-45 115zM481 539h443l-219 630zM776 1860q0 70 45 116t115 46t114 -45t44 -117q0 -70 -44 -115t-114 -45t-115 45 t-45 115z" />
<glyph unicode="&#xc5;" d="M-6 0l579 1516h258l580 -1516h-299l-106 307h-607l-108 -307h-297zM481 539h443l-219 630zM484 1829q0 100 60 159.5t161 59.5q98 0 158.5 -59t60.5 -160q0 -100 -60.5 -160.5t-158.5 -60.5q-101 0 -161 60.5t-60 160.5zM625 1829q0 -45 22.5 -71.5t57.5 -26.5t57.5 26.5 t22.5 71.5q0 43 -22.5 71t-57.5 28t-57.5 -28t-22.5 -71z" />
<glyph unicode="&#xc6;" horiz-adv-x="2027" d="M-31 0l852 1516h1100v-232h-831l92 -399h678v-232h-625l96 -422h604v-231h-845l-64 307h-588l-155 -307h-314zM555 539h422l-123 589z" />
<glyph unicode="&#xc7;" horiz-adv-x="1419" d="M78 762q0 229 91 405t256 272.5t380 96.5q338 0 541 -244l-175 -180q-59 88 -153 140.5t-209 52.5q-131 0 -231.5 -68t-155.5 -191.5t-55 -285.5q0 -164 55 -288t156.5 -192.5t234.5 -68.5q248 0 389 242l189 -168q-93 -138 -225 -214.5t-298 -88.5l-53 -95 q88 -2 140.5 -50t52.5 -122q0 -84 -67 -135t-179 -51q-55 0 -104.5 14.5t-79.5 36.5l47 101q43 -39 110 -39q45 0 72 20.5t27 52.5q0 31 -24 48.5t-65 17.5q-37 0 -65 -17l-35 62l76 158q-193 18 -338 120.5t-225 271.5t-80 386z" />
<glyph unicode="&#xc8;" horiz-adv-x="1206" d="M158 0v1516h940v-232h-660v-399h600v-232h-600v-422h674v-231h-954zM229 2007h314l251 -329h-229z" />
<glyph unicode="&#xc9;" horiz-adv-x="1206" d="M158 0v1516h940v-232h-660v-399h600v-232h-600v-422h674v-231h-954zM461 1678l252 329h313l-336 -329h-229z" />
<glyph unicode="&#xca;" horiz-adv-x="1206" d="M158 0v1516h940v-232h-660v-399h600v-232h-600v-422h674v-231h-954zM256 1678l244 329h256l240 -329h-238l-131 172l-131 -172h-240z" />
<glyph unicode="&#xcb;" horiz-adv-x="1206" d="M158 0v1516h940v-232h-660v-399h600v-232h-600v-422h674v-231h-954zM238 1860q0 70 45 116t114 46q68 0 113 -46t45 -116t-45 -115t-113 -45q-69 0 -114 45t-45 115zM700 1860q0 70 45 116t115 46t114 -45t44 -117q0 -70 -44 -115t-114 -45t-115 45t-45 115z" />
<glyph unicode="&#xcc;" horiz-adv-x="595" d="M-103 2007h314l251 -329h-229zM158 0v1516h280v-1516h-280z" />
<glyph unicode="&#xcd;" horiz-adv-x="595" d="M129 1678l252 329h313l-336 -329h-229zM158 0v1516h280v-1516h-280z" />
<glyph unicode="&#xce;" horiz-adv-x="595" d="M-76 1678l244 329h256l240 -329h-238l-131 172l-131 -172h-240zM158 0v1516h280v-1516h-280z" />
<glyph unicode="&#xcf;" horiz-adv-x="595" d="M-94 1860q0 70 45 116t114 46q68 0 113 -46t45 -116t-45 -115t-113 -45q-69 0 -114 45t-45 115zM158 0v1516h280v-1516h-280zM368 1860q0 70 45 116t115 46t114 -45t44 -117q0 -70 -44 -115t-114 -45t-115 45t-45 115z" />
<glyph unicode="&#xd0;" horiz-adv-x="1458" d="M20 666v192h138v658h534q205 0 360.5 -94.5t241.5 -266.5t86 -397t-86 -397.5t-241.5 -266.5t-360.5 -94h-534v666h-138zM438 231h256q117 0 207 65.5t140.5 185.5t50.5 276q0 158 -50.5 276.5t-140.5 184t-207 65.5h-256v-426h297v-192h-297v-435z" />
<glyph unicode="&#xd1;" horiz-adv-x="1607" d="M158 0v1516h174l846 -1006l-7 1006h279v-1516h-174l-844 1006l6 -1006h-280zM439 1700q0 131 58 212t155 81q45 0 85 -17.5t97 -50.5q41 -25 66.5 -37t48.5 -12q33 0 52 24.5t19 72.5h146q0 -137 -58.5 -215t-154.5 -78q-41 0 -81 17.5t-98 49.5q-47 29 -71.5 40 t-46.5 11q-33 0 -52.5 -26.5t-19.5 -71.5h-145z" />
<glyph unicode="&#xd2;" horiz-adv-x="1595" d="M78 758q0 231 90 407t254 273.5t379 97.5q213 0 375.5 -97.5t253 -273.5t90.5 -407t-90.5 -407.5t-253 -273.5t-375.5 -97q-215 0 -379 97t-254 273t-90 408zM367 758q0 -162 54 -286t152.5 -192.5t227.5 -68.5q127 0 225 68.5t151.5 192.5t53.5 286t-53.5 285.5 t-151.5 192.5t-225 69q-129 0 -227.5 -69t-152.5 -192.5t-54 -285.5zM401 2007h314l251 -329h-229z" />
<glyph unicode="&#xd3;" horiz-adv-x="1595" d="M78 758q0 231 90 407t254 273.5t379 97.5q213 0 375.5 -97.5t253 -273.5t90.5 -407t-90.5 -407.5t-253 -273.5t-375.5 -97q-215 0 -379 97t-254 273t-90 408zM367 758q0 -162 54 -286t152.5 -192.5t227.5 -68.5q127 0 225 68.5t151.5 192.5t53.5 286t-53.5 285.5 t-151.5 192.5t-225 69q-129 0 -227.5 -69t-152.5 -192.5t-54 -285.5zM633 1678l252 329h313l-336 -329h-229z" />
<glyph unicode="&#xd4;" horiz-adv-x="1595" d="M78 758q0 231 90 407t254 273.5t379 97.5q213 0 375.5 -97.5t253 -273.5t90.5 -407t-90.5 -407.5t-253 -273.5t-375.5 -97q-215 0 -379 97t-254 273t-90 408zM367 758q0 -162 54 -286t152.5 -192.5t227.5 -68.5q127 0 225 68.5t151.5 192.5t53.5 286t-53.5 285.5 t-151.5 192.5t-225 69q-129 0 -227.5 -69t-152.5 -192.5t-54 -285.5zM428 1678l244 329h256l240 -329h-238l-131 172l-131 -172h-240z" />
<glyph unicode="&#xd5;" horiz-adv-x="1595" d="M78 758q0 231 90 407t254 273.5t379 97.5q213 0 375.5 -97.5t253 -273.5t90.5 -407t-90.5 -407.5t-253 -273.5t-375.5 -97q-215 0 -379 97t-254 273t-90 408zM367 758q0 -162 54 -286t152.5 -192.5t227.5 -68.5q127 0 225 68.5t151.5 192.5t53.5 286t-53.5 285.5 t-151.5 192.5t-225 69q-129 0 -227.5 -69t-152.5 -192.5t-54 -285.5zM437 1700q0 131 58 212t155 81q45 0 85 -17.5t97 -50.5q41 -25 66.5 -37t48.5 -12q33 0 52 24.5t19 72.5h146q0 -137 -58.5 -215t-154.5 -78q-41 0 -81 17.5t-98 49.5q-47 29 -71.5 40t-46.5 11 q-33 0 -52.5 -26.5t-19.5 -71.5h-145z" />
<glyph unicode="&#xd6;" horiz-adv-x="1595" d="M78 758q0 231 90 407t254 273.5t379 97.5q213 0 375.5 -97.5t253 -273.5t90.5 -407t-90.5 -407.5t-253 -273.5t-375.5 -97q-215 0 -379 97t-254 273t-90 408zM367 758q0 -162 54 -286t152.5 -192.5t227.5 -68.5q127 0 225 68.5t151.5 192.5t53.5 286t-53.5 285.5 t-151.5 192.5t-225 69q-129 0 -227.5 -69t-152.5 -192.5t-54 -285.5zM410 1860q0 70 45 116t114 46q68 0 113 -46t45 -116t-45 -115t-113 -45q-69 0 -114 45t-45 115zM872 1860q0 70 45 116t115 46t114 -45t44 -117q0 -70 -44 -115t-114 -45t-115 45t-45 115z" />
<glyph unicode="&#xd7;" horiz-adv-x="972" d="M92 977l166 166l229 -254l228 254l166 -166l-238 -262l236 -260l-166 -164l-226 250l-227 -250l-166 164l236 260z" />
<glyph unicode="&#xd8;" horiz-adv-x="1599" d="M78 758q0 231 90 407t254 273.5t379 97.5q246 0 428 -131l117 131l172 -150l-132 -147q134 -196 134 -481q0 -231 -90.5 -407.5t-253 -273.5t-375.5 -97q-248 0 -428 129l-117 -129l-172 149l129 143q-135 203 -135 486zM367 758q0 -145 45 -264l645 718q-109 92 -256 93 q-129 0 -227.5 -69t-152.5 -192.5t-54 -285.5zM545 301q109 -90 256 -90q127 0 225 68.5t151.5 192.5t53.5 286q0 147 -43 260z" />
<glyph unicode="&#xd9;" horiz-adv-x="1490" d="M143 518v998h279v-986q0 -145 89 -232t237 -87q145 0 233 88t88 231v986h279v-998q0 -160 -75 -281.5t-211 -189t-317 -67.5q-178 0 -315 67.5t-212 189t-75 281.5zM346 2007h314l251 -329h-229z" />
<glyph unicode="&#xda;" horiz-adv-x="1490" d="M143 518v998h279v-986q0 -145 89 -232t237 -87q145 0 233 88t88 231v986h279v-998q0 -160 -75 -281.5t-211 -189t-317 -67.5q-178 0 -315 67.5t-212 189t-75 281.5zM578 1678l252 329h313l-336 -329h-229z" />
<glyph unicode="&#xdb;" horiz-adv-x="1490" d="M143 518v998h279v-986q0 -145 89 -232t237 -87q145 0 233 88t88 231v986h279v-998q0 -160 -75 -281.5t-211 -189t-317 -67.5q-178 0 -315 67.5t-212 189t-75 281.5zM373 1678l244 329h256l240 -329h-238l-131 172l-131 -172h-240z" />
<glyph unicode="&#xdc;" horiz-adv-x="1490" d="M143 518v998h279v-986q0 -145 89 -232t237 -87q145 0 233 88t88 231v986h279v-998q0 -160 -75 -281.5t-211 -189t-317 -67.5q-178 0 -315 67.5t-212 189t-75 281.5zM355 1860q0 70 45 116t114 46q68 0 113 -46t45 -116t-45 -115t-113 -45q-69 0 -114 45t-45 115z M817 1860q0 70 45 116t115 46t114 -45t44 -117q0 -70 -44 -115t-114 -45t-115 45t-45 115z" />
<glyph unicode="&#xdd;" horiz-adv-x="1286" d="M18 1516h299l328 -705l326 705h297l-486 -953v-563h-278v563zM478 1678l252 329h313l-336 -329h-229z" />
<glyph unicode="&#xde;" horiz-adv-x="1251" d="M158 0v1516h280v-248h269q147 0 259.5 -60.5t175 -171t62.5 -256.5q0 -152 -63.5 -266.5t-179 -178t-267.5 -63.5h-256v-272h-280zM438 504h240q110 0 173.5 72.5t63.5 193.5t-65.5 193.5t-171.5 72.5h-240v-532z" />
<glyph unicode="&#xdf;" horiz-adv-x="1163" d="M123 0v1235q0 113 55 200t156.5 135t234.5 48q135 0 238.5 -51t161 -145.5t57.5 -215.5q0 -115 -50 -204t-142 -142q122 -53 192 -158.5t70 -244.5q0 -141 -56.5 -250t-159 -168t-237.5 -59q-94 0 -158 22l27 221q37 -12 78 -12q102 0 165.5 73.5t63.5 192.5 q0 123 -67.5 197t-178.5 74v213q82 0 130.5 59t48.5 156q0 96 -49.5 153t-131.5 57q-80 0 -129 -48t-49 -130v-1208h-270z" />
<glyph unicode="&#xe0;" horiz-adv-x="1069" d="M53 322q0 104 53.5 183t149.5 123t223 44q102 0 209 -25v23q0 115 -60.5 178t-170.5 63q-133 0 -226 -92l-116 162q84 72 183 107.5t228 35.5q127 0 225.5 -53t152.5 -151.5t54 -225.5v-694h-262l-4 150q-49 -82 -127 -126t-166 -44q-156 0 -251 93t-95 249zM145 1595 h314l251 -329h-229zM324 326q0 -72 38.5 -113t110.5 -41q88 0 151.5 80t63.5 213q-88 20 -172 20q-88 0 -140 -44t-52 -115z" />
<glyph unicode="&#xe1;" horiz-adv-x="1069" d="M53 322q0 104 53.5 183t149.5 123t223 44q102 0 209 -25v23q0 115 -60.5 178t-170.5 63q-133 0 -226 -92l-116 162q84 72 183 107.5t228 35.5q127 0 225.5 -53t152.5 -151.5t54 -225.5v-694h-262l-4 150q-49 -82 -127 -126t-166 -44q-156 0 -251 93t-95 249zM324 326 q0 -72 38.5 -113t110.5 -41q88 0 151.5 80t63.5 213q-88 20 -172 20q-88 0 -140 -44t-52 -115zM377 1266l252 329h313l-336 -329h-229z" />
<glyph unicode="&#xe2;" horiz-adv-x="1069" d="M53 322q0 104 53.5 183t149.5 123t223 44q102 0 209 -25v23q0 115 -60.5 178t-170.5 63q-133 0 -226 -92l-116 162q84 72 183 107.5t228 35.5q127 0 225.5 -53t152.5 -151.5t54 -225.5v-694h-262l-4 150q-49 -82 -127 -126t-166 -44q-156 0 -251 93t-95 249zM172 1266 l244 329h256l240 -329h-238l-131 172l-131 -172h-240zM324 326q0 -72 38.5 -113t110.5 -41q88 0 151.5 80t63.5 213q-88 20 -172 20q-88 0 -140 -44t-52 -115z" />
<glyph unicode="&#xe3;" horiz-adv-x="1069" d="M53 322q0 104 53.5 183t149.5 123t223 44q102 0 209 -25v23q0 115 -60.5 178t-170.5 63q-133 0 -226 -92l-116 162q84 72 183 107.5t228 35.5q127 0 225.5 -53t152.5 -151.5t54 -225.5v-694h-262l-4 150q-49 -82 -127 -126t-166 -44q-156 0 -251 93t-95 249zM181 1288 q0 131 58 212t155 81q45 0 85 -17.5t97 -50.5q41 -25 66.5 -37t48.5 -12q33 0 52 24.5t19 72.5h146q0 -137 -58.5 -215t-154.5 -78q-41 0 -81 17.5t-98 49.5q-47 29 -71.5 40t-46.5 11q-33 0 -52.5 -26.5t-19.5 -71.5h-145zM324 326q0 -72 38.5 -113t110.5 -41 q88 0 151.5 80t63.5 213q-88 20 -172 20q-88 0 -140 -44t-52 -115z" />
<glyph unicode="&#xe4;" horiz-adv-x="1069" d="M53 322q0 104 53.5 183t149.5 123t223 44q102 0 209 -25v23q0 115 -60.5 178t-170.5 63q-133 0 -226 -92l-116 162q84 72 183 107.5t228 35.5q127 0 225.5 -53t152.5 -151.5t54 -225.5v-694h-262l-4 150q-49 -82 -127 -126t-166 -44q-156 0 -251 93t-95 249zM154 1448 q0 70 45 116t114 46q68 0 113 -46t45 -116t-45 -115t-113 -45q-69 0 -114 45t-45 115zM324 326q0 -72 38.5 -113t110.5 -41q88 0 151.5 80t63.5 213q-88 20 -172 20q-88 0 -140 -44t-52 -115zM616 1448q0 70 45 116t115 46t114 -45t44 -117q0 -70 -44 -115t-114 -45t-115 45 t-45 115z" />
<glyph unicode="&#xe5;" horiz-adv-x="1069" d="M53 322q0 104 53.5 183t149.5 123t223 44q102 0 209 -25v23q0 115 -60.5 178t-170.5 63q-133 0 -226 -92l-116 162q84 72 183 107.5t228 35.5q127 0 225.5 -53t152.5 -151.5t54 -225.5v-694h-262l-4 150q-49 -82 -127 -126t-166 -44q-156 0 -251 93t-95 249zM324 326 q0 -72 38.5 -113t110.5 -41q88 0 151.5 80t63.5 213q-88 20 -172 20q-88 0 -140 -44t-52 -115zM324 1417q0 100 60 159.5t161 59.5q98 0 158.5 -59t60.5 -160q0 -100 -60.5 -160.5t-158.5 -60.5q-101 0 -161 60.5t-60 160.5zM465 1417q0 -45 22.5 -71.5t57.5 -26.5 t57.5 26.5t22.5 71.5q0 43 -22.5 71t-57.5 28t-57.5 -28t-22.5 -71z" />
<glyph unicode="&#xe6;" horiz-adv-x="1734" d="M53 322q0 104 53.5 183t149.5 123t223 44q102 0 209 -25v23q0 115 -60.5 178t-170.5 63q-133 0 -226 -92l-116 162q80 72 174 107.5t219 35.5q104 0 190 -45t142 -123q63 80 153 124t197 44q143 0 251.5 -69.5t169 -195.5t60.5 -292q0 -63 -6 -112h-713q27 -262 228 -262 q70 0 129 34.5t102 98.5l207 -105q-63 -113 -172 -177t-244 -64q-123 0 -223 52t-166 146q-57 -94 -157.5 -146t-217.5 -52q-174 0 -279.5 93t-105.5 249zM324 326q0 -70 38.5 -111t110.5 -41q88 0 151.5 79t63.5 212q-88 20 -172 20q-88 0 -140 -44t-52 -115zM952 639h439 q-12 131 -68.5 201.5t-153.5 70.5q-94 0 -148 -70.5t-69 -201.5z" />
<glyph unicode="&#xe7;" horiz-adv-x="1013" d="M68 553q0 170 67.5 299t189 200.5t283.5 71.5q193 0 342 -127l-151 -184q-74 80 -185 80q-121 0 -193.5 -94t-72.5 -248t73 -247t193 -93q141 0 217 100l154 -178q-123 -135 -330 -151l-53 -95q88 -2 140.5 -50t52.5 -122q0 -84 -66.5 -135t-179.5 -51q-55 0 -104.5 14.5 t-79.5 36.5l47 101q43 -39 110 -39q45 0 72 20.5t27 52.5q0 31 -24 48.5t-65 17.5q-37 0 -65 -17l-35 62l78 160q-203 31 -322.5 183.5t-119.5 383.5z" />
<glyph unicode="&#xe8;" horiz-adv-x="1134" d="M68 545q0 172 62.5 303t176 203.5t262.5 72.5q150 0 263.5 -69.5t176 -195.5t62.5 -292q0 -63 -6 -112h-713q27 -262 228 -262q70 0 129 34.5t102 98.5l207 -105q-68 -113 -181.5 -177t-252.5 -64q-154 0 -270.5 70.5t-181 198.5t-64.5 296zM170 1595h314l251 -329h-229z M352 639h439q-12 131 -68.5 201.5t-153.5 70.5q-94 0 -148 -70.5t-69 -201.5z" />
<glyph unicode="&#xe9;" horiz-adv-x="1134" d="M68 545q0 172 62.5 303t176 203.5t262.5 72.5q150 0 263.5 -69.5t176 -195.5t62.5 -292q0 -63 -6 -112h-713q27 -262 228 -262q70 0 129 34.5t102 98.5l207 -105q-68 -113 -181.5 -177t-252.5 -64q-154 0 -270.5 70.5t-181 198.5t-64.5 296zM352 639h439 q-12 131 -68.5 201.5t-153.5 70.5q-94 0 -148 -70.5t-69 -201.5zM402 1266l252 329h313l-336 -329h-229z" />
<glyph unicode="&#xea;" horiz-adv-x="1134" d="M68 545q0 172 62.5 303t176 203.5t262.5 72.5q150 0 263.5 -69.5t176 -195.5t62.5 -292q0 -63 -6 -112h-713q27 -262 228 -262q70 0 129 34.5t102 98.5l207 -105q-68 -113 -181.5 -177t-252.5 -64q-154 0 -270.5 70.5t-181 198.5t-64.5 296zM196 1266l244 329h256 l240 -329h-238l-131 172l-131 -172h-240zM352 639h439q-12 131 -68.5 201.5t-153.5 70.5q-94 0 -148 -70.5t-69 -201.5z" />
<glyph unicode="&#xeb;" horiz-adv-x="1134" d="M68 545q0 172 62.5 303t176 203.5t262.5 72.5q150 0 263.5 -69.5t176 -195.5t62.5 -292q0 -63 -6 -112h-713q27 -262 228 -262q70 0 129 34.5t102 98.5l207 -105q-68 -113 -181.5 -177t-252.5 -64q-154 0 -270.5 70.5t-181 198.5t-64.5 296zM179 1448q0 70 45 116t114 46 q68 0 113 -46t45 -116t-45 -115t-113 -45q-69 0 -114 45t-45 115zM352 639h439q-12 131 -68.5 201.5t-153.5 70.5q-94 0 -148 -70.5t-69 -201.5zM641 1448q0 70 45 116t115 46t114 -45t44 -117q0 -70 -44 -115t-114 -45t-115 45t-45 115z" />
<glyph unicode="&#xec;" horiz-adv-x="518" d="M-140 1593h314l251 -329h-229zM125 0v1102h268v-1102h-268z" />
<glyph unicode="&#xed;" horiz-adv-x="518" d="M93 1264l252 329h313l-336 -329h-229zM125 0v1102h268v-1102h-268z" />
<glyph unicode="&#xee;" horiz-adv-x="518" d="M-113 1264l244 329h256l240 -329h-238l-131 172l-131 -172h-240zM125 0v1102h268v-1102h-268z" />
<glyph unicode="&#xef;" horiz-adv-x="518" d="M-131 1446q0 70 45 116t114 46q68 0 113 -46t45 -116t-45 -115t-113 -45q-69 0 -114 45t-45 115zM125 0v1102h268v-1102h-268zM331 1446q0 70 45 116t115 46t114 -45t44 -117q0 -70 -44 -115t-114 -45t-115 45t-45 115z" />
<glyph unicode="&#xf0;" horiz-adv-x="1216" d="M70 555q0 162 62.5 287t171 193.5t241.5 68.5q92 0 168 -35q-74 115 -181 211l-108 -74l-141 107l112 78q-49 37 -123 82l224 145q66 -39 118 -76l111 76l141 -109l-112 -77q190 -168 289.5 -371t99.5 -430q0 -193 -66.5 -341.5t-188.5 -229t-280 -80.5 q-160 0 -282.5 71.5t-189 201.5t-66.5 302zM348 551q0 -154 70.5 -247t189.5 -93q115 0 185.5 94t70.5 246q0 154 -70.5 248t-185.5 94q-119 0 -189.5 -94t-70.5 -248z" />
<glyph unicode="&#xf1;" horiz-adv-x="1212" d="M123 0v1104h260l4 -131q55 74 139 112.5t181 38.5q178 0 286.5 -109.5t108.5 -289.5v-725h-271v682q0 96 -59 153.5t-160 57.5q-100 0 -159.5 -57.5t-59.5 -153.5v-682h-270zM252 1288q0 131 58 212t155 81q45 0 85 -17.5t97 -50.5q41 -25 66.5 -37t48.5 -12 q33 0 52 24.5t19 72.5h146q0 -137 -58.5 -215t-154.5 -78q-41 0 -81 17.5t-98 49.5q-47 29 -71.5 40t-46.5 11q-33 0 -52.5 -26.5t-19.5 -71.5h-145z" />
<glyph unicode="&#xf2;" horiz-adv-x="1210" d="M68 551q0 170 67.5 300t189 201.5t281.5 71.5q158 0 280 -71.5t188.5 -201.5t66.5 -300t-66.5 -299t-188.5 -200.5t-280 -71.5q-160 0 -281.5 71.5t-189 200.5t-67.5 299zM207 1595h314l251 -329h-229zM346 551q0 -152 71.5 -246t186.5 -94q117 0 187.5 94t70.5 246 q0 154 -70.5 248t-187.5 94q-115 0 -186.5 -94t-71.5 -248z" />
<glyph unicode="&#xf3;" horiz-adv-x="1210" d="M68 551q0 170 67.5 300t189 201.5t281.5 71.5q158 0 280 -71.5t188.5 -201.5t66.5 -300t-66.5 -299t-188.5 -200.5t-280 -71.5q-160 0 -281.5 71.5t-189 200.5t-67.5 299zM346 551q0 -152 71.5 -246t186.5 -94q117 0 187.5 94t70.5 246q0 154 -70.5 248t-187.5 94 q-115 0 -186.5 -94t-71.5 -248zM439 1266l252 329h313l-336 -329h-229z" />
<glyph unicode="&#xf4;" horiz-adv-x="1210" d="M68 551q0 170 67.5 300t189 201.5t281.5 71.5q158 0 280 -71.5t188.5 -201.5t66.5 -300t-66.5 -299t-188.5 -200.5t-280 -71.5q-160 0 -281.5 71.5t-189 200.5t-67.5 299zM233 1266l244 329h256l240 -329h-238l-131 172l-131 -172h-240zM346 551q0 -152 71.5 -246 t186.5 -94q117 0 187.5 94t70.5 246q0 154 -70.5 248t-187.5 94q-115 0 -186.5 -94t-71.5 -248z" />
<glyph unicode="&#xf5;" horiz-adv-x="1210" d="M68 551q0 170 67.5 300t189 201.5t281.5 71.5q158 0 280 -71.5t188.5 -201.5t66.5 -300t-66.5 -299t-188.5 -200.5t-280 -71.5q-160 0 -281.5 71.5t-189 200.5t-67.5 299zM242 1288q0 131 58 212t155 81q45 0 85 -17.5t97 -50.5q41 -25 66.5 -37t48.5 -12q33 0 52 24.5 t19 72.5h146q0 -137 -58.5 -215t-154.5 -78q-41 0 -81 17.5t-98 49.5q-47 29 -71.5 40t-46.5 11q-33 0 -52.5 -26.5t-19.5 -71.5h-145zM346 551q0 -152 71.5 -246t186.5 -94q117 0 187.5 94t70.5 246q0 154 -70.5 248t-187.5 94q-115 0 -186.5 -94t-71.5 -248z" />
<glyph unicode="&#xf6;" horiz-adv-x="1210" d="M68 551q0 170 67.5 300t189 201.5t281.5 71.5q158 0 280 -71.5t188.5 -201.5t66.5 -300t-66.5 -299t-188.5 -200.5t-280 -71.5q-160 0 -281.5 71.5t-189 200.5t-67.5 299zM216 1448q0 70 45 116t114 46q68 0 113 -46t45 -116t-45 -115t-113 -45q-69 0 -114 45t-45 115z M346 551q0 -152 71.5 -246t186.5 -94q117 0 187.5 94t70.5 246q0 154 -70.5 248t-187.5 94q-115 0 -186.5 -94t-71.5 -248zM678 1448q0 70 45 116t115 46t114 -45t44 -117q0 -70 -44 -115t-114 -45t-115 45t-45 115z" />
<glyph unicode="&#xf7;" horiz-adv-x="1064" d="M90 606v221h885v-221h-885zM375 336q0 70 45 116t112 46q70 0 115 -45t45 -117q0 -70 -45 -116t-115 -46q-67 0 -112 46t-45 116zM375 1102q0 70 45 115t112 45q70 0 115 -45.5t45 -114.5q0 -72 -45 -117t-115 -45q-67 0 -112 46t-45 116z" />
<glyph unicode="&#xf8;" horiz-adv-x="1212" d="M68 551q0 170 67.5 300t189 201.5t281.5 71.5q172 0 299 -84l74 82l162 -141l-86 -94q86 -143 86 -336q0 -170 -66.5 -299t-188.5 -200.5t-280 -71.5q-172 0 -299 81l-74 -81l-163 143l86 94q-88 139 -88 334zM346 551q0 -62 12 -111l377 414q-59 39 -131 39 q-115 0 -186.5 -94t-71.5 -248zM477 248q55 -37 127 -37q117 0 187.5 94t70.5 246q0 54 -10 111z" />
<glyph unicode="&#xf9;" horiz-adv-x="1173" d="M113 377v727h268v-684q0 -94 55.5 -151.5t145.5 -57.5t145 57.5t55 151.5v684h269v-1104h-258l-5 125q-53 -72 -130.5 -108.5t-170.5 -36.5q-168 0 -271 109.5t-103 287.5zM182 1595h314l251 -329h-229z" />
<glyph unicode="&#xfa;" horiz-adv-x="1173" d="M113 377v727h268v-684q0 -94 55.5 -151.5t145.5 -57.5t145 57.5t55 151.5v684h269v-1104h-258l-5 125q-53 -72 -130.5 -108.5t-170.5 -36.5q-168 0 -271 109.5t-103 287.5zM414 1266l252 329h313l-336 -329h-229z" />
<glyph unicode="&#xfb;" horiz-adv-x="1173" d="M113 377v727h268v-684q0 -94 55.5 -151.5t145.5 -57.5t145 57.5t55 151.5v684h269v-1104h-258l-5 125q-53 -72 -130.5 -108.5t-170.5 -36.5q-168 0 -271 109.5t-103 287.5zM209 1266l244 329h256l240 -329h-238l-131 172l-131 -172h-240z" />
<glyph unicode="&#xfc;" horiz-adv-x="1173" d="M113 377v727h268v-684q0 -94 55.5 -151.5t145.5 -57.5t145 57.5t55 151.5v684h269v-1104h-258l-5 125q-53 -72 -130.5 -108.5t-170.5 -36.5q-168 0 -271 109.5t-103 287.5zM191 1448q0 70 45 116t114 46q68 0 113 -46t45 -116t-45 -115t-113 -45q-69 0 -114 45t-45 115z M653 1448q0 70 45 116t115 46t114 -45t44 -117q0 -70 -44 -115t-114 -45t-115 45t-45 115z" />
<glyph unicode="&#xfd;" horiz-adv-x="1120" d="M12 1104h295l266 -789l248 789h295l-465 -1235q-61 -172 -143 -256t-223 -84q-97 0 -152 31l27 217q37 -16 80 -17q55 0 87.5 35t61.5 107l47 123zM400 1266l252 329h313l-336 -329h-229z" />
<glyph unicode="&#xfe;" horiz-adv-x="1259" d="M123 -451v2048h270v-645q111 172 320 172q133 0 242.5 -71.5t172 -200.5t62.5 -295q0 -170 -62.5 -301t-172 -203.5t-242.5 -72.5q-209 0 -320 172v-603h-270zM393 551q0 -152 71 -246t187 -94q117 0 188.5 94t71.5 248q0 152 -71.5 246t-188.5 94t-187.5 -94t-70.5 -248 z" />
<glyph unicode="&#xff;" horiz-adv-x="1120" d="M12 1104h295l266 -789l248 789h295l-465 -1235q-61 -172 -143 -256t-223 -84q-97 0 -152 31l27 217q37 -16 80 -17q55 0 87.5 35t61.5 107l47 123zM177 1448q0 70 45 116t114 46q68 0 113 -46t45 -116t-45 -115t-113 -45q-69 0 -114 45t-45 115zM639 1448q0 70 45 116 t115 46t114 -45t44 -117q0 -70 -44 -115t-114 -45t-115 45t-45 115z" />
<glyph unicode="&#x152;" horiz-adv-x="2289" d="M78 758q0 231 88 407t247.5 273.5t368.5 97.5q137 0 254 -46t205 -132v158h940v-232h-659v-399h600v-232h-600v-422h673v-231h-954v158q-88 -86 -204.5 -132t-254.5 -46q-209 0 -368.5 97t-247.5 273t-88 408zM367 758q0 -162 54 -286t152.5 -192.5t227.5 -68.5 q127 0 225 68.5t152.5 192.5t54.5 286t-54.5 285.5t-152.5 192.5t-225 69q-129 0 -227.5 -69t-152.5 -192.5t-54 -285.5z" />
<glyph unicode="&#x153;" horiz-adv-x="1929" d="M70 551q0 170 64.5 300t182 201.5t271.5 71.5q135 0 241.5 -60t171.5 -171q61 111 160 171t223 60q143 0 252 -69.5t169.5 -195.5t60.5 -292q0 -79 -4 -112h-715q27 -262 229 -262q139 0 230 133l206 -105q-63 -113 -171.5 -177t-241.5 -64q-131 0 -233.5 60t-164.5 169 q-66 -109 -172 -169t-241 -60q-154 0 -271.5 71.5t-182 200.5t-64.5 299zM348 551q0 -152 70.5 -246t187.5 -94q115 0 186.5 94t71.5 246q0 154 -71.5 248t-186.5 94q-117 0 -187.5 -94t-70.5 -248zM1147 639h440q-14 131 -69.5 201.5t-151.5 70.5q-94 0 -149.5 -70.5 t-69.5 -201.5z" />
<glyph unicode="&#x178;" horiz-adv-x="1286" d="M18 1516h299l328 -705l326 705h297l-486 -953v-563h-278v563zM254 1860q0 70 45 116t114 46q68 0 113 -46t45 -116t-45 -115t-113 -45q-69 0 -114 45t-45 115zM716 1860q0 70 45 116t115 46t114 -45t44 -117q0 -70 -44 -115t-114 -45t-115 45t-45 115z" />
<glyph unicode="&#x2c6;" horiz-adv-x="1228" d="M61 1266l244 329h256l240 -329h-238l-131 172l-131 -172h-240z" />
<glyph unicode="&#x2dc;" horiz-adv-x="1228" d="M58 1288q0 131 58 212t155 81q45 0 85 -17.5t97 -50.5q41 -25 66.5 -37t48.5 -12q33 0 52 24.5t19 72.5h146q0 -137 -58.5 -215t-154.5 -78q-41 0 -81 17.5t-98 49.5q-47 29 -71.5 40t-46.5 11q-33 0 -52.5 -26.5t-19.5 -71.5h-145z" />
<glyph unicode="&#x2000;" horiz-adv-x="1024" />
<glyph unicode="&#x2001;" horiz-adv-x="2048" />
<glyph unicode="&#x2002;" horiz-adv-x="1024" />
<glyph unicode="&#x2003;" horiz-adv-x="2048" />
<glyph unicode="&#x2004;" horiz-adv-x="682" />
<glyph unicode="&#x2005;" horiz-adv-x="512" />
<glyph unicode="&#x2006;" horiz-adv-x="341" />
<glyph unicode="&#x2007;" horiz-adv-x="341" />
<glyph unicode="&#x2008;" horiz-adv-x="256" />
<glyph unicode="&#x2009;" horiz-adv-x="409" />
<glyph unicode="&#x200a;" horiz-adv-x="113" />
<glyph unicode="&#x2010;" horiz-adv-x="897" d="M113 498v192h671v-192h-671z" />
<glyph unicode="&#x2011;" horiz-adv-x="897" d="M113 498v192h671v-192h-671z" />
<glyph unicode="&#x2012;" horiz-adv-x="897" d="M113 498v192h671v-192h-671z" />
<glyph unicode="&#x2013;" horiz-adv-x="1148" d="M113 498v192h921v-192h-921z" />
<glyph unicode="&#x2014;" horiz-adv-x="1818" d="M113 498v192h1591v-192h-1591z" />
<glyph unicode="&#x2018;" horiz-adv-x="528" d="M72 995l157 521h244l-121 -521h-280z" />
<glyph unicode="&#x2019;" horiz-adv-x="522" d="M78 995l121 521h280l-157 -521h-244z" />
<glyph unicode="&#x201a;" horiz-adv-x="518" d="M23 -264l118 520h283l-160 -520h-241z" />
<glyph unicode="&#x201c;" horiz-adv-x="942" d="M74 995l157 521h242l-119 -521h-280zM485 995l158 521h242l-119 -521h-281z" />
<glyph unicode="&#x201d;" horiz-adv-x="935" d="M78 995l121 521h280l-157 -521h-244zM489 995l121 521h281l-158 -521h-244z" />
<glyph unicode="&#x201e;" horiz-adv-x="929" d="M23 -264l118 520h283l-160 -520h-241zM434 -264l121 520h281l-160 -520h-242z" />
<glyph unicode="&#x2022;" horiz-adv-x="737" d="M137 631q0 111 63.5 177t168.5 66q104 0 167.5 -66.5t63.5 -176.5q0 -109 -63.5 -176.5t-167.5 -67.5q-105 0 -168.5 67.5t-63.5 176.5z" />
<glyph unicode="&#x2026;" horiz-adv-x="1492" d="M84 158q0 72 51 124t123 52t123 -52.5t51 -123.5q0 -74 -51 -126t-123 -52t-123 52t-51 126zM571 158q0 72 52.5 124t124.5 52q70 0 121 -52.5t51 -123.5q0 -74 -50.5 -126t-121.5 -52q-72 0 -124.5 52t-52.5 126zM1061 158q0 72 51 124t123 52t123 -52.5t51 -123.5 q0 -74 -51 -126t-123 -52t-123 52t-51 126z" />
<glyph unicode="&#x202f;" horiz-adv-x="409" />
<glyph unicode="&#x2039;" horiz-adv-x="749" d="M61 553l334 469h287l-324 -469l324 -469h-287z" />
<glyph unicode="&#x203a;" horiz-adv-x="749" d="M70 84l321 469l-321 469h286l332 -469l-332 -469h-286z" />
<glyph unicode="&#x205f;" horiz-adv-x="512" />
<glyph unicode="&#x20ac;" horiz-adv-x="1566" d="M78 516v174h112q-2 23 -2 72v26h-110v175h131q53 264 241.5 418.5t464.5 154.5q338 0 541 -244l-174 -180q-59 88 -153.5 140.5t-208.5 52.5q-154 0 -263.5 -91.5t-152.5 -250.5h409v-175h-436v-28q0 -47 2 -70h434v-174h-397q49 -143 155.5 -224t252.5 -81 q248 0 389 242l188 -168q-102 -150 -249.5 -227.5t-333.5 -77.5q-264 0 -449.5 143t-249.5 393h-141z" />
<glyph unicode="&#x2122;" horiz-adv-x="1359" d="M70 1477v120h458v-120h-157v-465h-144v465h-157zM578 1012l38 585h154l141 -380l140 380h153l41 -585h-143l-21 358l-141 -358h-57l-144 358l-18 -358h-143z" />
<glyph unicode="&#x25fc;" horiz-adv-x="1105" d="M0 0v1106h1106v-1106h-1106z" />
</font>
</defs>
</svg>
