<svg height="496pt" viewBox="-1 0 496 496" width="496pt" xmlns="http://www.w3.org/2000/svg"><path d="m461 240.808594v-112.808594c17.648438 0 32-14.351562 32-32s-14.351562-32-32-32v-64h-275.3125l-76.6875 76.6875v33.695312l-100.441406 66.960938 8.875 13.3125 27.566406-18.375v131.71875h64v160h208.808594c3.71875 18.230469 19.871094 32 39.191406 32h96c22.054688 0 40-17.945312 40-40v-176c0-19.3125-13.769531-35.472656-32-39.191406zm-200-133.753906-22.113281-11.054688 22.113281-11.054688zm16-27.054688h152v32h-152zm200 16c0 8.824219-7.175781 16-16 16h-16v-32h16c8.824219 0 16 7.175781 16 16zm-296-68.6875v44.6875h-44.6875zm-120 134.304688 72-48 72 48v126.382812h-32v-40c0-22.054688-17.945312-40-40-40s-40 17.945312-40 40v40h-32zm96 126.382812h-48v-40c0-13.230469 10.769531-24 24-24s24 10.769531 24 24zm160-8v168h-192v-144h96v-131.71875l27.558594 18.375 8.875-13.3125-124.433594-82.960938-8 5.335938v-11.71875h72v-72h248v48h-177.886719l-64 32 64 32h177.886719v112h-88c-22.054688 0-40 17.945312-40 40zm160 176c0 13.230469-10.769531 24-24 24h-96c-13.230469 0-24-10.769531-24-24v-176c0-13.230469 10.769531-24 24-24h96c13.230469 0 24 10.769531 24 24zm0 0"/><path d="m349 336h112v-64h-112zm16-48h80v32h-80zm0 0"/><path d="m349 448c0 8.824219 7.175781 16 16 16h80c8.824219 0 16-7.175781 16-16v-96h-112zm16-16h16v16h-16zm48-32v16h-16v-16zm-16-16v-16h16v16zm32 16h16.007812v16h-16.007812zm-16 32v16h-16v-16zm-32-16h-16v-16h16zm48 32v-16h16.015625v16zm16-64h-16v-16h16zm-64-16v16h-16v-16zm0 0"/><path d="m117 192h32c8.824219 0 16-7.175781 16-16v-16c0-8.824219-7.175781-16-16-16h-32c-8.824219 0-16 7.175781-16 16v16c0 8.824219 7.175781 16 16 16zm0-32h32l.015625 16h-32.015625zm0 0"/><path d="m90 94.246094-10-12.492188-35 28.007813-35-28.007813-10 12.492188 45 35.992187zm0 0"/><path d="m37 64h16v16h-16zm0 0"/><path d="m141 320h160v16h-160zm0 0"/><path d="m173 352h128v16h-128zm0 0"/><path d="m141 352h16v16h-16zm0 0"/><path d="m141 384h160v16h-160zm0 0"/><path d="m285 416h16v16h-16zm0 0"/><path d="m141 416h128v16h-128zm0 0"/><path d="m277 144h152v16h-152zm0 0"/><path d="m277 176h16v16h-16zm0 0"/><path d="m309 176h120v16h-120zm0 0"/><path d="m277 208h120v16h-120zm0 0"/><path d="m413 208h16v16h-16zm0 0"/><path d="m37 32h16v16h-16zm0 0"/><path d="m37 0h16v16h-16zm0 0"/><path d="m0 361.753906 10 12.492188 35-28.007813 35 28.007813 10-12.492188-45-35.992187zm0 0"/><path d="m37 376h16v16h-16zm0 0"/><path d="m37 408h16v16h-16zm0 0"/><path d="m37 440h16v16h-16zm0 0"/></svg>