<?xml version="1.0" encoding="iso-8859-1"?>
<!-- Generator: Adobe Illustrator 19.0.0, SVG Export Plug-In . SVG Version: 6.00 Build 0)  -->
<svg version="1.1" id="Capa_1" xmlns="http://www.w3.org/2000/svg" xmlns:xlink="http://www.w3.org/1999/xlink" x="0px" y="0px"
	 viewBox="0 0 512 512" style="enable-background:new 0 0 512 512;" xml:space="preserve">
<g>
	<g>
		<path d="M337.058,237.67c-1.86-1.86-4.44-2.93-7.07-2.93c-2.63,0-5.21,1.069-7.07,2.93s-2.93,4.439-2.93,7.07
			c0,2.63,1.07,5.21,2.93,7.069c1.86,1.86,4.44,2.931,7.07,2.931c2.63,0,5.21-1.07,7.07-2.931c1.86-1.859,2.93-4.439,2.93-7.069
			C339.988,242.109,338.918,239.53,337.058,237.67z"/>
	</g>
</g>
<g>
	<g>
		<path d="M105.989,166.001H57.989c-5.523,0-10,4.478-10,10V232c0,5.522,4.477,10,10,10h47.999c5.523,0,10-4.478,10-10v-55.999
			C115.989,170.479,111.512,166.001,105.989,166.001z M95.989,222.001h-28v-36h28V222.001z"/>
	</g>
</g>
<g>
	<g>
		<path d="M193.988,166.001h-47.999c-5.523,0-10,4.478-10,10V232c0,5.522,4.477,10,10,10h47.999c5.523,0,10-4.478,10-10v-55.999
			C203.988,170.479,199.511,166.001,193.988,166.001z M183.988,222.001h-28v-36h28V222.001z"/>
	</g>
</g>
<g>
	<g>
		<path d="M281.987,166.001h-47.999c-5.523,0-10,4.478-10,10V232c0,5.522,4.477,10,10,10h47.999c5.523,0,10-4.478,10-10v-55.999
			C291.987,170.479,287.51,166.001,281.987,166.001z M271.987,222.001h-28v-36h28V222.001z"/>
	</g>
</g>
<g>
	<g>
		<path d="M105.989,278H57.989c-5.523,0-10,4.478-10,10v55.999c0,5.522,4.477,10,10,10h47.999c5.523,0,10-4.477,10-10V288
			C115.989,282.478,111.512,278,105.989,278z M95.989,333.999h-28v-36h28V333.999z"/>
	</g>
</g>
<g>
	<g>
		<path d="M193.988,278h-47.999c-5.523,0-10,4.478-10,10v55.999c0,5.522,4.477,10,10,10h47.999c5.523,0,10-4.478,10-10V288
			C203.988,282.478,199.511,278,193.988,278z M183.988,333.999h-28v-36h28V333.999z"/>
	</g>
</g>
<g>
	<g>
		<path d="M460.419,345.549h-15.282c-5.523,0-10,4.478-10,10c0,5.522,4.477,10,10,10h15.282c5.523,0,10-4.478,10-10
			C470.419,350.027,465.942,345.549,460.419,345.549z"/>
	</g>
</g>
<g>
	<g>
		<path d="M310.859,345.549h-15.282c-5.523,0-10,4.478-10,10c0,5.522,4.477,10,10,10h15.282c5.523,0,10-4.478,10-10
			C320.859,350.027,316.382,345.549,310.859,345.549z"/>
	</g>
</g>
<g>
	<g>
		<path d="M377.998,314.549c-22.607,0-41,18.393-41,41c0,22.607,18.393,41,41,41c22.607,0,41-18.393,41-41
			C418.997,332.942,400.604,314.549,377.998,314.549z M377.998,376.549c-11.58,0-21-9.421-21-21c0-11.579,9.421-21,21-21
			c11.58,0,21,9.421,21,21C398.997,367.128,389.577,376.549,377.998,376.549z"/>
	</g>
</g>
<g>
	<g>
		<path d="M511.996,290c0-5.522-4.477-10-10-10H253.999c-5.523,0-10,4.478-10,10l0.007,201.998h-14.019v-43.984
			c0-33.084-26.916-59.999-59.999-59.999s-59.999,26.916-59.999,59.999v43.984h-42v-70.648c0-5.522-4.477-10-10-10s-10,4.478-10,10
			v70.648H20V157.079l149.992-86.257l149.994,86.258v46.92c0,5.522,4.477,10,10,10s10-4.478,10-10l-0.002-101.99
			c0-3.579-1.913-6.885-5.015-8.669L174.977,1.334c-3.087-1.775-6.884-1.775-9.971,0L5.015,93.342C1.913,95.126,0,98.432,0,102.011
			v399.986c0,5.522,4.477,10,10,10h492c5.523,0,10-4.478,10-10L511.996,290z M20,121.002v-13.206l149.992-86.258l149.992,86.258
			v26.213l-145.007-83.39c-1.543-0.888-3.264-1.331-4.985-1.331c-1.721,0-3.442,0.443-4.985,1.331L20,134.009V121.002z
			 M209.988,491.997h-79.999v-43.983c0-22.056,17.944-40,40-40c22.056,0,40,17.944,40,40V491.997z M491.996,300v19.238
			c-9.007-3.091-16.143-10.23-19.23-19.238H491.996z M303.904,300h148.186c4.008,20.062,19.845,35.903,39.906,39.916v32.181
			c-20.056,4.012-35.891,19.847-39.903,39.903H303.902c-4.012-20.056-19.847-35.891-39.903-39.903v-32.181
			C284.06,335.902,299.896,320.061,303.904,300z M491.996,392.773v19.225h-19.225C475.86,402.996,482.994,395.862,491.996,392.773z
			 M263.999,300h19.23c-3.087,9.008-10.223,16.147-19.23,19.238V300z M263.999,392.774c9.002,3.089,16.136,10.223,19.225,19.225
			h-19.225V392.774z M492,491.997H329.986h-65.98v-20H492V491.997z M492,451.998H264.006v-20H492V451.998z"/>
	</g>
</g>
<g>
	<g>
		<path d="M65.061,377.279c-1.86-1.86-4.44-2.931-7.07-2.931c-2.63,0-5.21,1.071-7.07,2.931c-1.86,1.859-2.93,4.439-2.93,7.069
			c0,2.63,1.07,5.21,2.93,7.07s4.43,2.93,7.07,2.93c2.63,0,5.21-1.069,7.07-2.93c1.86-1.86,2.93-4.44,2.93-7.07
			C67.991,381.718,66.921,379.138,65.061,377.279z"/>
	</g>
</g>
<g>
</g>
<g>
</g>
<g>
</g>
<g>
</g>
<g>
</g>
<g>
</g>
<g>
</g>
<g>
</g>
<g>
</g>
<g>
</g>
<g>
</g>
<g>
</g>
<g>
</g>
<g>
</g>
<g>
</g>
</svg>
