<svg height="496pt" viewBox="0 -3 496 496" width="496pt" xmlns="http://www.w3.org/2000/svg"><path d="m336 378.734375c4.40625 0 8 3.585937 8 8h16c0-10.414063-6.710938-19.214844-16-22.527344v-17.472656h-16v17.472656c-9.289062 3.3125-16 12.113281-16 22.527344 0 13.234375 10.769531 24 24 24 4.40625 0 8 3.585937 8 8 0 4.417969-3.59375 8-8 8s-8-3.582031-8-8h-16c0 10.417969 6.710938 19.21875 16 22.53125v17.46875h16v-17.46875c9.289062-3.3125 16-12.113281 16-22.53125 0-13.230469-10.769531-24-24-24-4.40625 0-8-3.582031-8-8 0-4.414063 3.59375-8 8-8zm0 0"/><path d="m496 186.734375v-43.574219l-160-143.160156-47.878906 42.839844v-.105469h-196.242188l-91.421875 128h15.542969v177.472656c-9.289062 3.3125-16 12.113281-16 22.527344v24h177.472656c-.898437 2.511719-1.472656 5.1875-1.472656 8v24h75.40625c10.480469 36.882813 44.394531 64 84.59375 64s74.105469-27.117187 84.59375-64h75.40625v-24c0-10.414063-6.710938-19.214844-16-22.527344v-193.472656zm-304-16v-16h288v16zm275.0625-32h-262.125l131.0625-117.261719zm-366.941406-80h170.238281l-94.359375 84.425781v11.574219h-144.457031zm75.878906 112v16h16v160h-160v-176zm-160 200c0-4.414063 3.59375-8 8-8h168v16h-176zm176 40v-8c0-4.414063 3.59375-8 8-8h48.40625c-.238281 2.640625-.40625 5.296875-.40625 8 0 2.707031.167969 5.363281.40625 8zm144 64c-39.695312 0-72-32.292969-72-72 0-39.703125 32.304688-72 72-72s72 32.296875 72 72c0 39.707031-32.304688 72-72 72zm80-108.445313c-11.753906-25.6875-35.457031-44.753906-64-50.023437v-49.53125h64zm64 44.445313h-56.40625c.238281-2.636719.40625-5.292969.40625-8 0-2.703125-.167969-5.359375-.40625-8h48.40625c4.40625 0 8 3.585937 8 8zm-16-32h-32v-128h-96v64c-40.191406 0-74.105469 27.121094-84.59375 64h-43.40625v-192h256zm0 0"/><path d="m320 282.734375v-80h-96v80zm-80-32h24v16h-24zm40 16v-16h24v16zm24-32h-24v-16h24zm-40-16v16h-24v-16zm0 0"/><path d="m160 266.734375v-80h-112v80zm-96-32h32v16h-32zm48 16v-16h32v16zm32-32h-32v-16h32zm-48-16v16h-32v-16zm0 0"/></svg>