<?xml version="1.0"?>
<svg xmlns="http://www.w3.org/2000/svg" xmlns:xlink="http://www.w3.org/1999/xlink" version="1.1" id="Capa_1" x="0px" y="0px" viewBox="0 0 512 512" style="enable-background:new 0 0 512 512;" xml:space="preserve" width="512px" height="512px"><g><g>
	<path d="M505.459,485.888L27.838,4.436c-4.281-4.315-10.743-5.619-16.361-3.305C5.857,3.445,2.189,8.922,2.189,15v482   c0,3.981,1.583,7.799,4.399,10.613c2.812,2.81,6.625,4.387,10.601,4.387c0.006,0,0.012,0,0.018,0l477.621-0.548   c6.053-0.007,11.508-3.651,13.832-9.24C510.985,496.623,509.722,490.185,505.459,485.888z M32.189,481.983v-60.328h15.002   c8.284,0,15-6.716,15-15s-6.716-15-15-15H32.189v-30.004h15.002c8.284,0,15-6.716,15-15s-6.716-15-15-15H32.189v-30.004h15.002   c8.284,0,15-6.716,15-15s-6.716-15-15-15H32.189v-30.004h15.002c8.284,0,15-6.716,15-15s-6.716-15-15-15H32.189V51.419   l426.652,430.074L32.189,481.983z" data-original="#000000" class="active-path" data-old_color="#000000" fill="#505050"/>
	<path d="M107.098,421.655c0.016,0,0.03,0,0.046,0l174.459-0.533c6.056-0.019,11.507-3.677,13.818-9.275   c2.312-5.598,1.03-12.036-3.249-16.323L117.714,220.769c-4.288-4.296-10.743-5.583-16.35-3.263   c-5.608,2.32-9.266,7.791-9.266,13.861v175.288c0,3.986,1.587,7.808,4.409,10.623C99.32,420.081,103.129,421.655,107.098,421.655z    M122.098,267.623l123.399,123.609l-123.399,0.377V267.623z" data-original="#000000" class="active-path" data-old_color="#000000" fill="#505050"/>
</g></g> </svg>
