<?xml version="1.0" encoding="iso-8859-1"?>
<!-- Generator: Adobe Illustrator 21.0.0, SVG Export Plug-In . SVG Version: 6.00 Build 0)  -->
<svg xmlns="http://www.w3.org/2000/svg" xmlns:xlink="http://www.w3.org/1999/xlink" version="1.1" id="Capa_1" x="0px" y="0px" viewBox="0 0 512 512" style="enable-background:new 0 0 512 512;" xml:space="preserve" width="512" height="512">
<path id="_x3C_Group_x3E__4_" d="M333.57,181c6.191,17.461,22.874,30,42.43,30s36.239-12.539,42.43-30H497c8.284,0,15-6.716,15-15  v-60c0-8.284-6.716-15-15-15h-78.502c-1.975-5.739-5.096-11.076-9.225-15.735c3.993-4.386,7.125-9.565,9.146-15.265H466  c8.284,0,15-6.716,15-15s-6.716-15-15-15h-47.58C412.228,12.541,395.555,0,376,0s-36.228,12.541-42.42,30H286  c-8.284,0-15,6.716-15,15s6.716,15,15,15h47.58c2.022,5.7,5.154,10.879,9.146,15.265c-4.128,4.659-7.25,9.996-9.225,15.735H286  c-41.355,0-75,33.645-75,75v57.565l-28.047,84.141c-11.818-5.909-37.404-21.411-72.91-9.576  c-17.752,5.917-32.63,17.431-42.705,32.87H15c-8.284,0-15,6.716-15,15v120c0,8.284,6.716,15,15,15h119.737l179.156,30.388  c2.458,0.409,4.929,0.612,7.391,0.612c8.302,0,16.498-2.301,23.672-6.728l145.202-90.172c21.244-13.112,28.078-41.195,15.233-62.602  c-12.654-21.088-39.508-28.438-61.136-16.732l-86.923,47.046c-2.297-7.05-5.624-13.635-9.783-19.6L301,223.565V181H333.57z M376,30  c8.271,0,15,6.729,15,15s-6.729,15-15,15s-15-6.729-15-15S367.729,30,376,30z M241,166c0-24.813,20.187-45,45-45h60  c8.284,0,15-6.716,15-15c0-8.523,7.009-16,15-16s15,7.477,15,16c0,8.284,6.716,15,15,15h76v30h-76c-8.284,0-15,6.716-15,15  c0,8.271-6.729,15-15,15s-15-6.729-15-15c0-8.284-6.716-15-15-15h-60c-8.284,0-15,6.716-15,15v45h-30V166z M236.812,241h38.377  l30.917,92.75C299.703,331.966,292.963,331,286,331h-56.459l-19.482-9.741L236.812,241z M353.386,419.058l105.148-56.91  c7.477-4.047,16.758-1.505,21.132,5.783c4.439,7.399,2.078,17.106-5.301,21.66l-145.202,90.172  c-3.089,1.907-6.761,2.628-10.298,2.039l-180.357-30.592C137.68,451.071,136.841,451,136,451H30v-90h46  c5.682,0,10.875-3.21,13.417-8.292c6.221-12.443,16.916-21.718,30.114-26.117c13.196-4.399,27.318-3.396,39.762,2.826l60,30  c2.083,1.041,4.379,1.583,6.708,1.583h60c19.556,0,36.239,12.539,42.43,30H226c-8.284,0-15,6.716-15,15c0,8.284,6.716,14.8,15,14.8  h119.72C348.402,420.851,351.049,420.383,353.386,419.058z"/>















</svg>
