<svg height="479pt" viewBox="0 0 479 479.99999" width="479pt" xmlns="http://www.w3.org/2000/svg"><path d="m232.5 384v-112h-16v48h-48v-48h-16v56c0 4.417969 3.582031 8 8 8h56v48zm0 0"/><path d="m136.5 272h-72v16h64v32h-56c-4.417969 0-8 3.582031-8 8v48c0 4.417969 3.582031 8 8 8h64v-16h-56v-32h56c4.417969 0 8-3.582031 8-8v-48c0-4.417969-3.582031-8-8-8zm0 0"/><path d="m280.5 328c-.003906-54.957031-35.089844-103.777344-87.175781-121.300781-52.085938-17.527344-109.546875.148437-142.777344 43.921875-33.226563 43.773437-34.804687 103.871094-3.921875 149.328125 30.886719 45.457031 87.339844 66.125 140.277344 51.355469 55.304687-15.484376 93.550781-65.875 93.597656-123.304688zm-128 112c-58.902344 0-107.738281-45.628906-111.738281-104.398438-4-58.765624 38.207031-110.589843 96.566406-118.570312 58.363281-7.980469 112.929687 30.609375 124.855469 88.292969 11.925781 57.6875-22.871094 114.75-79.609375 130.5625-9.792969 2.730469-19.910157 4.113281-30.074219 4.113281zm0 0"/><path d="m240.5 0c-72.605469.0351562-141.292969 32.917969-186.851562 89.453125-45.554688 56.53125-63.085938 130.644531-47.683594 201.59375.777344 3.597656 3.90625 6.203125 7.585937 6.3125 3.679688.105469 6.957031-2.308594 7.941407-5.855469 12.339843-44.265625 46.195312-79.308594 90.011718-93.160156s91.664063-4.640625 127.203125 24.488281c2.972657 2.433594 7.253907 2.414063 10.203125-.046875l53.191406-44.386718-44.375 53.1875c-2.464843 2.945312-2.484374 7.226562-.050781 10.199218 29.128907 35.539063 38.34375 83.386719 24.492188 127.203125-13.851563 43.8125-48.890625 77.671875-93.15625 90.011719-3.546875.984375-5.960938 4.261719-5.855469 7.941406.105469 3.675782 2.707031 6.808594 6.304688 7.585938 89.785156 19.507812 182.824218-13.953125 239.617187-86.179688 56.792969-72.222656 67.367187-170.53125 27.230469-253.183594-40.132813-82.648437-123.929688-135.132812-215.808594-135.164062zm0 464c-6.191406 0-12.386719-.265625-18.589844-.800781 39.828125-20.445313 68.617188-57.414063 78.6875-101.039063 10.066406-43.625.390625-89.46875-26.449218-125.304687l80.800781-96.800781c6.847656 7.832031 12.871093 16.347656 17.976562 25.410156 6.082031 10.824218 19.414063 15.222656 30.742188 10.144531 6.195312-2.8125 10.929687-8.082031 13.066406-14.539063 2.109375-6.269531 1.457031-13.140624-1.792969-18.902343-35.398437-63.058594-102.082031-102.097657-174.402344-102.097657-72.316406 0-139 39.039063-174.398437 102.097657-2.003906 3.476562-3.066406 7.417969-3.078125 11.433593-.007812 10.945313 7.371094 20.519532 17.957031 23.300782 10.589844 2.785156 21.722657-1.925782 27.097657-11.460938 26.914062-47.816406 77.511718-77.414062 132.382812-77.441406 36.75-.046875 72.246094 13.367188 99.785156 37.703125l-96.664062 80.648437c-35.832032-26.832031-81.671875-36.5-125.289063-26.433593-43.621093 10.066406-80.582031 38.851562-101.03125 78.675781-.535156-6.195312-.800781-12.390625-.800781-18.59375 0-123.710938 100.289062-224 224-224s224 100.289062 224 224-100.289062 224-224 224zm130.402344-353.753906c11.777344 11.816406 21.890625 25.1875 30.054687 39.738281 1.042969 1.859375 1.246094 4.070313.558594 6.085937-.71875 2.1875-2.316406 3.972657-4.40625 4.929688-3.789063 1.671875-8.230469.203125-10.273437-3.398438-6.082032-10.742187-13.324219-20.777343-21.597657-29.9375l5.855469-7.015624c2.503906-3.042969 2.421875-7.453126-.191406-10.402344zm-11.050782-.871094-7.199218 5.984375c-30.664063-27.9375-70.667969-43.402344-112.152344-43.359375-60.648438.03125-116.574219 32.746094-146.320312 85.601562-2 3.617188-6.429688 5.117188-10.214844 3.453126-2.949219-1.304688-4.863282-4.207032-4.902344-7.429688 0-1.269531.335938-2.511719.972656-3.609375 28.105469-50.152344 78.046875-84.277344 134.984375-92.226563 56.9375-7.949218 114.316407 11.191407 155.082031 51.730469-2.925781-2.539062-7.253906-2.601562-10.25-.144531zm0 0"/><path d="m312.5 280h16v-16h16v-16h-16v-16h-16v16h-16v16h16zm0 0"/><path d="m224.5 184h16v-16h16v-16h-16v-16h-16v16h-16v16h16zm0 0"/><path d="m152.5 168h16v-16h16v-16h-16v-16h-16v16h-16v16h16zm0 0"/><path d="m344.5 304h-16v16h-16v16h16v16h16v-16h16v-16h-16zm0 0"/></svg>