<?xml version="1.0" encoding="iso-8859-1"?>
<!-- Generator: Adobe Illustrator 19.0.0, SVG Export Plug-In . SVG Version: 6.00 Build 0)  -->
<svg version="1.1" id="Capa_1" xmlns="http://www.w3.org/2000/svg" xmlns:xlink="http://www.w3.org/1999/xlink" x="0px" y="0px"
	 viewBox="0 0 496 496" style="enable-background:new 0 0 496 496;" xml:space="preserve">
<g>
	<g>
		<path d="M488,327.994v-103.68c-0.007-1.027-0.213-2.044-0.608-2.992c-0.184-0.364-0.398-0.712-0.64-1.04
			c-0.236-0.481-0.52-0.937-0.848-1.36l-88-96.32c-1.514-1.66-3.657-2.606-5.904-2.608h-8v-24c0-4.418-3.582-8-8-8h-32
			c-4.418,0-8,3.582-8,8v24H80v-24c0-4.418-3.582-8-8-8H40c-4.418,0-8,3.582-8,8v24H16c-4.418,0-8,3.582-8,8v200
			c-4.418,0-8,3.582-8,8v32c0,4.418,3.582,8,8,8h29.48c13.189,27.901,46.5,39.828,74.401,26.639
			c11.695-5.529,21.11-14.944,26.639-26.639h218.96c13.189,27.901,46.5,39.828,74.401,26.639
			c11.695-5.529,21.11-14.944,26.639-26.639H488c4.418,0,8-3.582,8-8v-32C496,331.576,492.418,327.994,488,327.994z M472,227.418
			v36.576H344v-80h88.328L472,227.418z M352,103.994h16v16h-16V103.994z M48,103.994h16v16H48V103.994z M24,183.994h32v72H24
			V183.994z M32.64,359.994H16v-16h16.64C31.787,349.293,31.787,354.695,32.64,359.994z M88,391.994c-22.091,0-40-17.909-40-40
			c0-22.091,17.909-40,40-40s40,17.909,40,40C127.974,374.074,110.08,391.967,88,391.994z M352.64,359.994H143.36
			c0.853-5.299,0.853-10.701,0-16h209.28C351.787,349.293,351.787,354.695,352.64,359.994z M216,327.994v-144h80v144H216z
			 M408,391.994c-22.091,0-40-17.909-40-40c0-22.091,17.909-40,40-40c22.091,0,40,17.909,40,40
			C447.974,374.074,430.08,391.967,408,391.994z M384.119,301.355c-11.695,5.529-21.11,14.943-26.639,26.639H312v-152
			c0-4.418-3.582-8-8-8h-96c-4.418,0-8,3.582-8,8v152h-61.48c-13.189-27.901-46.5-39.828-74.401-26.639
			c-11.695,5.529-21.11,14.944-26.639,26.639H24v-56h40c4.418,0,8-3.582,8-8v-88c0-4.418-3.582-8-8-8H24v-32h364.472l29.24,32H336
			c-4.418,0-8,3.582-8,8v96c0,4.418,3.582,8,8,8h136v48h-13.48C445.331,300.093,412.02,288.166,384.119,301.355z M480,359.994
			h-16.64c0.853-5.299,0.853-10.701,0-16H480V359.994z"/>
	</g>
</g>
<g>
	<g>
		<path d="M88,327.994c-13.255,0-24,10.745-24,24s10.745,24,24,24s24-10.745,24-24S101.255,327.994,88,327.994z M88,359.994
			c-4.418,0-8-3.582-8-8s3.582-8,8-8s8,3.582,8,8S92.418,359.994,88,359.994z"/>
	</g>
</g>
<g>
	<g>
		<path d="M408,327.994c-13.255,0-24,10.745-24,24s10.745,24,24,24s24-10.745,24-24S421.255,327.994,408,327.994z M408,359.994
			c-4.418,0-8-3.582-8-8s3.582-8,8-8s8,3.582,8,8S412.418,359.994,408,359.994z"/>
	</g>
</g>
<g>
	<g>
		<path d="M280,231.994c-4.418,0-8,3.582-8,8v24c0,4.418,3.582,8,8,8s8-3.582,8-8v-24C288,235.576,284.418,231.994,280,231.994z"/>
	</g>
</g>
<g>
	<g>
		<path d="M176,167.994H88c-4.418,0-8,3.582-8,8v88c0,4.418,3.582,8,8,8h88c4.418,0,8-3.582,8-8v-88
			C184,171.576,180.418,167.994,176,167.994z M168,255.994H96v-72h72V255.994z"/>
	</g>
</g>
<g>
	<g>
		<path d="M384,143.994H40c-4.418,0-8,3.582-8,8s3.582,8,8,8h344c4.418,0,8-3.582,8-8S388.418,143.994,384,143.994z"/>
	</g>
</g>
<g>
	<g>
		<path d="M176,279.994h-40c-4.418,0-8,3.582-8,8s3.582,8,8,8h40c4.418,0,8-3.582,8-8S180.418,279.994,176,279.994z"/>
	</g>
</g>
<g>
	<g>
		<path d="M176,303.994h-16c-4.418,0-8,3.582-8,8s3.582,8,8,8h16c4.418,0,8-3.582,8-8S180.418,303.994,176,303.994z"/>
	</g>
</g>
<g>
</g>
<g>
</g>
<g>
</g>
<g>
</g>
<g>
</g>
<g>
</g>
<g>
</g>
<g>
</g>
<g>
</g>
<g>
</g>
<g>
</g>
<g>
</g>
<g>
</g>
<g>
</g>
<g>
</g>
</svg>
