<svg height="512pt" viewBox="-60 0 512 512.001" width="512pt" xmlns="http://www.w3.org/2000/svg"><path d="m131.679688 101.558594c2.433593-24.640625 11.011718-47.503906 24.183593-67.023438h-155.863281v67.023438zm0 0"/><path d="m276.976562 305.558594 74.773438-95.320313c22.578125-30.804687 41.242188-59.179687 41.242188-94.222656 0-63.972656-52.042969-116.015625-116.015626-116.015625h-.605468c-63.695313.316406-115.410156 52.238281-115.410156 116.011719 0 35.046875 18.664062 63.421875 41.242187 94.226562zm0-259.980469c38.914063 0 70.574219 31.660156 70.574219 70.578125 0 38.914062-31.660156 70.574219-70.574219 70.574219-38.914062 0-70.578124-31.660157-70.578124-70.574219 0-38.917969 31.664062-70.578125 70.578124-70.578125zm0 0"/><path d="m0 389.34375h335.3125v-109.335938l-58.335938 74.671876h-166.347656c-26.578125 0-48.203125-21.621094-48.203125-48.203126 0-26.582031 21.625-48.207031 48.203125-48.207031h15.792969v30h-15.792969c-10.039062 0-18.207031 8.167969-18.207031 18.207031 0 10.039063 8.167969 18.207032 18.207031 18.207032h142.914063l-75.386719-96.511719c-21.871094-29.828125-41.765625-59.800781-46.246094-96.617187h-131.910156zm144.273438-131.132812h30.0625v30.058593h-30.0625zm0 0"/><path d="m276.976562 156.734375c22.375 0 40.578126-18.203125 40.578126-40.578125s-18.203126-40.578125-40.578126-40.578125-40.578124 18.203125-40.578124 40.578125 18.203124 40.578125 40.578124 40.578125zm0 0"/><path d="m0 419.34375v92.65625h335.3125v-92.65625zm180.429688 46.601562h-29.75v-29.746093h29.75zm0 0"/></svg>