<?xml version="1.0" encoding="iso-8859-1"?>
<!-- Generator: Adobe Illustrator 19.0.0, SVG Export Plug-In . SVG Version: 6.00 Build 0)  -->
<svg xmlns="http://www.w3.org/2000/svg" xmlns:xlink="http://www.w3.org/1999/xlink" version="1.1" id="Capa_1" x="0px" y="0px" viewBox="0 0 520 520" style="enable-background:new 0 0 520 520;" xml:space="preserve" width="512" height="512">
<g id="XMLID_973_">
	<path id="XMLID_974_" d="M516.84,35.791l-23.333-30C490.665,2.137,486.295,0,481.667,0h-115c-3.72,0-7.267,1.396-10,3.846V385H520   V45C520,41.664,518.888,38.424,516.84,35.791z M443.333,355h-40c-8.284,0-15-6.716-15-15s6.716-15,15-15h40c8.284,0,15,6.716,15,15   S451.618,355,443.333,355z M426.663,270v-60c0-8.284,6.716-15,15-15s15,6.716,15,15v60c0,8.284-6.716,15-15,15   S426.663,278.284,426.663,270z M443.333,155h-40c-8.284,0-15-6.716-15-15s6.716-15,15-15h40c8.284,0,15,6.716,15,15   S451.618,155,443.333,155z M443.333,95h-40c-8.284,0-15-6.716-15-15s6.716-15,15-15h40c8.284,0,15,6.716,15,15   S451.618,95,443.333,95z"/>
	<rect id="XMLID_980_" x="193.333" y="415" width="133.333" height="65"/>
	<path id="XMLID_981_" d="M203.333,0c-3.72,0-7.267,1.396-10,3.846V385h133.333V2.545C324.227,0.913,321.339,0,318.333,0H203.333z    M280,355h-40c-8.284,0-15-6.716-15-15s6.716-15,15-15h40c8.284,0,15,6.716,15,15S288.284,355,280,355z M263.33,270v-60   c0-8.284,6.716-15,15-15s15,6.716,15,15v60c0,8.284-6.716,15-15,15S263.33,278.284,263.33,270z M280,155h-40   c-8.284,0-15-6.716-15-15s6.716-15,15-15h40c8.284,0,15,6.716,15,15S288.284,155,280,155z M280,95h-40c-8.284,0-15-6.716-15-15   s6.716-15,15-15h40c8.284,0,15,6.716,15,15S288.284,95,280,95z"/>
	<path id="XMLID_987_" d="M40,0c-4.452,0-8.673,1.978-11.523,5.397l-25,30C1.23,38.093,0,41.491,0,45v340h163.333V2.546   C160.894,0.914,158.006,0,155,0H40z M116.667,355h-40c-8.284,0-15-6.716-15-15s6.716-15,15-15h40c8.284,0,15,6.716,15,15   S124.951,355,116.667,355z M99.996,270v-60c0-8.284,6.716-15,15-15s15,6.716,15,15v60c0,8.284-6.716,15-15,15   S99.996,278.284,99.996,270z M116.667,155h-40c-8.284,0-15-6.716-15-15s6.716-15,15-15h40c8.284,0,15,6.716,15,15   S124.951,155,116.667,155z M116.667,95h-40c-8.284,0-15-6.716-15-15s6.716-15,15-15h40c8.284,0,15,6.716,15,15   S124.951,95,116.667,95z"/>
	<path id="XMLID_993_" d="M356.667,480h110v25c0,8.284,6.716,15,15,15s15-6.716,15-15v-25H505c8.284,0,15-6.716,15-15v-50H356.667   V480z"/>
	<path id="XMLID_994_" d="M0,465c0,8.284,6.716,15,15,15h10v25c0,8.284,6.716,15,15,15s15-6.716,15-15v-25h108.333v-65H0V465z"/>
</g>















</svg>
