<?xml version="1.0" encoding="iso-8859-1"?>
<!-- Generator: Adobe Illustrator 19.0.0, SVG Export Plug-In . SVG Version: 6.00 Build 0)  -->
<svg version="1.1" id="Layer_1" xmlns="http://www.w3.org/2000/svg" xmlns:xlink="http://www.w3.org/1999/xlink" x="0px" y="0px"
	 viewBox="0 0 512 512" style="enable-background:new 0 0 512 512;" xml:space="preserve">
<g>
	<g>
		<path d="M117.333,128H32c-5.888,0-10.667,4.779-10.667,10.667V224c0,5.888,4.779,10.667,10.667,10.667h85.333
			c5.888,0,10.667-4.779,10.667-10.667v-85.333C128,132.779,123.221,128,117.333,128z"/>
	</g>
</g>
<g>
	<g>
		<path d="M245.333,85.333h-42.667c-29.397,0-53.333,23.936-53.333,53.333V224c0,29.397,23.936,53.333,53.333,53.333h42.667
			c29.397,0,53.333-23.936,53.333-53.333v-85.333C298.667,109.269,274.731,85.333,245.333,85.333z"/>
	</g>
</g>
<g>
	<g>
		<path d="M373.333,128h-42.667c-5.888,0-10.667,4.779-10.667,10.667V224c0,5.888,4.779,10.667,10.667,10.667H352
			c17.643,0,32,14.357,32,32v42.667c0,5.888,4.779,10.667,10.667,10.667H480c5.888,0,10.667-4.779,10.667-10.667v-64
			C490.667,180.629,438.037,128,373.333,128z"/>
	</g>
</g>
<g>
	<g>
		<path d="M446.123,367.275c-4.011-5.781-13.568-5.781-17.579,0C421.12,378.048,384,433.067,384,458.667
			C384,488.064,407.936,512,437.333,512s53.333-23.936,53.333-53.333C490.667,433.067,453.547,378.048,446.123,367.275z"/>
	</g>
</g>
<g>
	<g>
		<path d="M288,0c-7.893,0-40.213,3.755-64,9.749C200.213,3.755,167.893,0,160,0c-17.643,0-32,14.357-32,32
			c0,17.643,14.357,32,32,32c6.827,0,31.936-2.816,53.973-7.467C215.36,60.843,219.243,64,224,64s8.64-3.157,10.027-7.467
			C256.064,61.184,281.173,64,288,64c17.643,0,32-14.357,32-32S305.643,0,288,0z M288,42.667c-6.379,0-39.104-3.819-61.248-9.749
			c-0.896-0.235-1.813-0.363-2.752-0.363s-1.856,0.128-2.752,0.363c-22.144,5.931-54.869,9.749-61.248,9.749
			c-5.888,0-10.667-4.779-10.667-10.667S154.112,21.333,160,21.333c6.379,0,39.104,3.819,61.248,9.749
			c1.792,0.469,3.712,0.469,5.504,0c22.144-5.931,54.869-9.749,61.248-9.749c5.888,0,10.667,4.779,10.667,10.667
			S293.888,42.667,288,42.667z"/>
	</g>
</g>
<g>
</g>
<g>
</g>
<g>
</g>
<g>
</g>
<g>
</g>
<g>
</g>
<g>
</g>
<g>
</g>
<g>
</g>
<g>
</g>
<g>
</g>
<g>
</g>
<g>
</g>
<g>
</g>
<g>
</g>
</svg>
