<?xml version="1.0" encoding="iso-8859-1"?>
<!-- Generator: Adobe Illustrator 19.0.0, SVG Export Plug-In . SVG Version: 6.00 Build 0)  -->
<svg xmlns="http://www.w3.org/2000/svg" xmlns:xlink="http://www.w3.org/1999/xlink" version="1.1" id="Layer_1" x="0px" y="0px" viewBox="0 0 510 510" style="enable-background:new 0 0 510 510;" xml:space="preserve" width="512" height="512">
<g>
	<path d="M420,422.763c0-5.401,0-135.426,0-137.763c0-24.901-20.1-45-45-45H259.501c30.599,21.299,53.699,53.099,64.198,90H390v30   h-60.901c0.601,4.799,0.901,9.898,0.901,15c0,5.1-0.3,10.199-0.901,15H390v32.763c-17.422,6.212-30,22.707-30,42.237   c0,24.814,20.186,45,45,45c19.53,0,36.024-12.578,42.237-30H480v-30h-32.763C442.705,437.292,432.708,427.295,420,422.763z"/>
	<path d="M165,510c74.399,0,135-60.601,135-135c0-74.401-60.601-135-135-135S30,300.599,30,375C30,449.399,90.601,510,165,510z    M165,330c24.9,0,45,20.1,45,45c0,24.898-20.1,45-45,45s-45-20.102-45-45C120,350.1,140.1,330,165,330z"/>
	<path d="M165,390c8.401,0,15-6.601,15-15c0-8.401-6.599-15-15-15s-15,6.599-15,15C150,383.399,156.599,390,165,390z"/>
	<path d="M135,0H30v30h105c8.401,0,15,6.599,15,15v165.899c4.799-0.599,9.9-0.899,15-0.899c3.229,0,122.177,0,129.3,0l30-60H390v-30   H180V45C180,20.099,159.9,0,135,0z"/>
</g>















</svg>
