<svg height="512pt" viewBox="-26 0 512 512" width="512pt" xmlns="http://www.w3.org/2000/svg"><path d="m158.898438 512c-87.613282 0-158.898438-71.277344-158.898438-158.898438 0-57.082031 30.871094-110.085937 80.570312-138.292968 8.457032-4.792969 19.257813-1.84375 24.066407 6.65625 4.8125 8.46875 1.847656 19.242187-6.636719 24.070312-38.671875 21.929688-62.691406 63.15625-62.691406 107.566406 0 68.140626 55.441406 123.589844 123.589844 123.589844 68.144531 0 123.585937-55.449218 123.585937-123.589844 0-9.757812 7.902344-17.652343 17.652344-17.652343s17.65625 7.894531 17.65625 17.652343c0 87.621094-71.285157 158.898438-158.894531 158.898438zm0 0"/><path d="m211.863281 353.101562c0 29.253907-23.714843 52.96875-52.964843 52.96875-29.253907 0-52.96875-23.714843-52.96875-52.96875 0-29.25 23.714843-52.964843 52.96875-52.964843 29.25 0 52.964843 23.714843 52.964843 52.964843zm0 0"/><path d="m441.378906 441.378906h-52.964844v-118.429687c0-32.054688-26.066406-58.121094-58.121093-58.121094h-60.308594c-12.578125 0-22.8125-10.242187-22.8125-22.8125v-118.429687c0-.3125-.160156-.570313-.175781-.875 29.953125-4.253907 53.140625-29.808594 53.140625-60.917969 0-34.070313-27.722657-61.792969-61.792969-61.792969s-61.792969 27.722656-61.792969 61.792969c0 25.011719 15.011719 46.496093 36.4375 56.207031-.601562 1.78125-1.125 3.605469-1.125 5.585938v25.734374l-60.578125 28.953126c-6.136718 2.933593-10.042968 9.140624-10.042968 15.933593v123.585938c0 9.757812 7.902343 17.65625 17.65625 17.65625 9.75 0 17.652343-7.898438 17.652343-17.65625v-112.464844l35.3125-16.875v53.5625c0 32.054687 26.066407 58.121094 58.121094 58.121094h60.308594c12.578125 0 22.808593 10.242187 22.808593 22.8125v136.085937c0 9.757813 7.90625 17.65625 17.65625 17.65625h70.621094c9.75 0 17.65625-7.898437 17.65625-17.65625 0-9.757812-7.90625-17.65625-17.65625-17.65625zm-203.035156-406.070312c14.605469 0 26.484375 11.882812 26.484375 26.484375 0 14.601562-11.878906 26.484375-26.484375 26.484375-14.601562 0-26.480469-11.882813-26.480469-26.484375 0-14.601563 11.878907-26.484375 26.480469-26.484375zm0 0"/></svg>